<svg width="244" height="244" viewBox="0 0 244 244" fill="none" xmlns="http://www.w3.org/2000/svg">
<path d="M204.055 182.321C199.073 184.78 193.318 185.159 188.056 183.375C182.795 181.591 178.457 177.79 175.998 172.808C175.512 171.818 175.104 170.792 174.776 169.739C174.776 169.739 174.776 169.739 174.776 169.712C173.307 164.953 173.582 159.827 175.551 155.252C177.52 150.678 181.056 146.955 185.522 144.751L194.788 163.536L205.2 145.349C208.501 147.232 211.227 149.979 213.086 153.293C214.946 156.607 215.869 160.365 215.756 164.164C215.644 167.963 214.5 171.659 212.447 174.858C210.395 178.056 207.511 180.636 204.104 182.321H204.055Z" stroke="#263238" stroke-linecap="round" stroke-linejoin="round"/>
<path d="M185.763 135.09C188.839 133.573 192.24 132.834 195.668 132.938C199.097 133.042 202.447 133.986 205.425 135.688L195.013 153.87L185.763 135.09Z" stroke="#263238" stroke-linecap="round" stroke-linejoin="round"/>
<path d="M185.763 135.09V139.639L195.03 158.418L205.425 140.236V135.688L195.03 153.875L185.763 135.09Z" stroke="#263238" stroke-linecap="round" stroke-linejoin="round"/>
<path d="M70.4394 124.405H13.5803C12.1924 124.405 10.8613 124.956 9.87983 125.937C8.8984 126.919 8.34705 128.25 8.34705 129.638V151.124C8.34705 152.513 8.89823 153.844 9.8795 154.827C10.8608 155.809 12.1919 156.362 13.5803 156.363H70.4394C71.8288 156.363 73.1613 155.811 74.1437 154.829C75.1262 153.846 75.6781 152.514 75.6781 151.124V129.638C75.6767 128.249 75.1241 126.918 74.1418 125.937C73.1595 124.956 71.8278 124.405 70.4394 124.405V124.405ZM36.4642 151.946C36.4642 152.081 36.4113 152.209 36.3169 152.305C36.2225 152.4 36.0943 152.455 35.9601 152.456H31.209C31.1421 152.456 31.0758 152.443 31.014 152.417C30.9522 152.392 30.896 152.354 30.8487 152.307C30.8013 152.259 30.7638 152.203 30.7382 152.141C30.7126 152.08 30.6994 152.013 30.6994 151.946V140.888C30.7008 140.754 30.7552 140.626 30.8506 140.531C30.946 140.437 31.0748 140.384 31.209 140.384H35.9382C36.0719 140.384 36.2001 140.437 36.2946 140.532C36.3892 140.626 36.4423 140.754 36.4423 140.888L36.4642 151.946ZM45.906 152.456H41.1769C41.0417 152.456 40.9121 152.402 40.8165 152.307C40.721 152.211 40.6673 152.082 40.6673 151.946V137.074C40.6687 136.94 40.723 136.812 40.8185 136.717C40.9139 136.623 41.0427 136.57 41.1769 136.57H45.906C45.9722 136.57 46.0378 136.583 46.099 136.608C46.1601 136.634 46.2157 136.671 46.2625 136.718C46.3093 136.764 46.3465 136.82 46.3718 136.881C46.3971 136.942 46.4102 137.008 46.4102 137.074V151.946C46.4102 152.015 46.3965 152.082 46.3699 152.145C46.3432 152.208 46.3042 152.265 46.2551 152.313C46.2061 152.36 46.1479 152.397 46.0842 152.422C46.0204 152.447 45.9524 152.458 45.8841 152.456H45.906ZM55.7698 151.946C55.7698 152.081 55.7168 152.209 55.6225 152.305C55.5281 152.4 55.3998 152.455 55.2656 152.456H50.531C50.3968 152.455 50.2686 152.4 50.1742 152.305C50.0798 152.209 50.0269 152.081 50.0269 151.946V150.165C50.0269 150.032 50.08 149.903 50.1745 149.809C50.2691 149.714 50.3973 149.661 50.531 149.661H55.2656C55.3993 149.661 55.5276 149.714 55.6221 149.809C55.7167 149.903 55.7698 150.032 55.7698 150.165V151.946ZM65.1239 151.946C65.1239 152.081 65.071 152.209 64.9766 152.305C64.8822 152.4 64.754 152.455 64.6198 152.456H59.8687C59.7336 152.456 59.6039 152.402 59.5084 152.307C59.4128 152.211 59.3591 152.082 59.3591 151.946V135.649L54.5532 147.349C54.5166 147.435 54.4569 147.509 54.3806 147.564C54.3044 147.618 54.2147 147.651 54.1212 147.658C54.0278 147.664 53.9343 147.645 53.851 147.602C53.7677 147.56 53.6978 147.495 53.6491 147.415L45.1224 133.085C45.0878 133.026 45.0413 132.974 44.986 132.934C44.9307 132.894 44.8676 132.865 44.8008 132.85C44.734 132.835 44.6648 132.834 44.5975 132.847C44.5303 132.86 44.4665 132.887 44.41 132.926L35.9765 138.614C35.8949 138.667 35.7997 138.695 35.7025 138.695C35.6053 138.695 35.5101 138.667 35.4285 138.614L26.3155 133.594V151.952C26.3155 152.086 26.2626 152.215 26.1682 152.31C26.0738 152.406 25.9456 152.46 25.8114 152.461H21.0932C21.0263 152.461 20.96 152.448 20.8982 152.423C20.8364 152.397 20.7802 152.36 20.7328 152.312C20.6855 152.265 20.648 152.209 20.6224 152.147C20.5968 152.085 20.5836 152.019 20.5836 151.952V129.265C20.585 129.131 20.6393 129.003 20.7348 128.908C20.8302 128.814 20.959 128.761 21.0932 128.761H25.8223C25.956 128.761 26.0843 128.814 26.1788 128.909C26.2734 129.003 26.3265 129.131 26.3265 129.265V132.367L35.3956 137.359C35.4773 137.412 35.5724 137.44 35.6696 137.44C35.7669 137.44 35.862 137.412 35.9436 137.359L44.7114 131.463C44.7683 131.424 44.8326 131.397 44.9002 131.384C44.9679 131.371 45.0375 131.372 45.1047 131.387C45.172 131.402 45.2355 131.43 45.2913 131.47C45.3472 131.511 45.3941 131.562 45.4293 131.622L53.5121 145.14C53.5608 145.22 53.6307 145.285 53.714 145.328C53.7973 145.371 53.8908 145.39 53.9842 145.383C54.0777 145.377 54.1674 145.344 54.2437 145.29C54.3199 145.235 54.3796 145.161 54.4163 145.075L59.381 132.986V129.26C59.3825 129.126 59.4368 128.997 59.5322 128.903C59.6276 128.809 59.7564 128.756 59.8906 128.756H61.1236L61.6716 127.479C61.6971 127.418 61.7345 127.362 61.7815 127.315C61.8285 127.269 61.8843 127.232 61.9456 127.206C62.0069 127.181 62.0726 127.168 62.1389 127.169C62.2051 127.169 62.2707 127.182 62.3319 127.208C62.3931 127.233 62.4486 127.27 62.4954 127.317C62.5421 127.364 62.5791 127.42 62.6043 127.481C62.6295 127.543 62.6423 127.608 62.6422 127.675C62.642 127.741 62.6287 127.807 62.6032 127.868L62.2415 128.756H64.6417C64.7754 128.756 64.9036 128.809 64.9982 128.903C65.0927 128.998 65.1458 129.126 65.1458 129.26L65.1239 151.946Z" stroke="#263238" stroke-linecap="round" stroke-linejoin="round"/>
<path d="M35.9381 140.384H31.2035C30.9251 140.384 30.6994 140.61 30.6994 140.888V151.952C30.6994 152.23 30.9251 152.456 31.2035 152.456H35.9381C36.2166 152.456 36.4423 152.23 36.4423 151.952V140.888C36.4423 140.61 36.2166 140.384 35.9381 140.384Z" stroke="#263238" stroke-linecap="round" stroke-linejoin="round"/>
<path d="M45.8841 136.57H41.1495C40.8711 136.57 40.6454 136.796 40.6454 137.074V151.952C40.6454 152.23 40.8711 152.456 41.1495 152.456H45.8841C46.1625 152.456 46.3883 152.23 46.3883 151.952V137.074C46.3883 136.796 46.1625 136.57 45.8841 136.57Z" stroke="#263238" stroke-linecap="round" stroke-linejoin="round"/>
<path d="M55.2437 149.661H50.5091C50.2307 149.661 50.005 149.887 50.005 150.165V151.952C50.005 152.23 50.2307 152.456 50.5091 152.456H55.2437C55.5221 152.456 55.7479 152.23 55.7479 151.952V150.165C55.7479 149.887 55.5221 149.661 55.2437 149.661Z" stroke="#263238" stroke-linecap="round" stroke-linejoin="round"/>
<path d="M20.7809 129.999V129.939C20.8104 129.876 20.8527 129.82 20.9049 129.774C20.9571 129.728 21.0182 129.693 21.0845 129.671C21.1507 129.65 21.2207 129.642 21.2901 129.648C21.3594 129.655 21.4267 129.676 21.4878 129.709L26.3046 132.361V129.26C26.3046 129.194 26.2915 129.128 26.2662 129.067C26.2409 129.006 26.2037 128.95 26.1569 128.903C26.1101 128.856 26.0545 128.819 25.9933 128.794C25.9322 128.769 25.8666 128.756 25.8004 128.756H21.0932C20.959 128.756 20.8302 128.809 20.7348 128.903C20.6394 128.997 20.585 129.126 20.5836 129.26V151.946C20.5836 152.013 20.5968 152.08 20.6224 152.141C20.648 152.203 20.6855 152.259 20.7329 152.307C20.7802 152.354 20.8364 152.392 20.8982 152.417C20.96 152.443 21.0263 152.456 21.0932 152.456H25.8223C25.9565 152.455 26.0848 152.4 26.1792 152.305C26.2736 152.209 26.3265 152.081 26.3265 151.946V133.589L20.9946 130.652C20.8832 130.59 20.7993 130.488 20.7596 130.368C20.72 130.247 20.7276 130.115 20.7809 129.999V129.999Z" stroke="#263238" stroke-linecap="round" stroke-linejoin="round"/>
<path d="M64.5978 128.75H62.1977L59.3591 135.644V151.941C59.3591 152.076 59.4128 152.206 59.5084 152.301C59.6039 152.397 59.7336 152.45 59.8687 152.45H64.5978C64.732 152.449 64.8603 152.395 64.9547 152.299C65.049 152.204 65.102 152.075 65.102 151.941V129.254C65.102 129.121 65.0489 128.992 64.9543 128.898C64.8598 128.803 64.7315 128.75 64.5978 128.75Z" stroke="#263238" stroke-linecap="round" stroke-linejoin="round"/>
<path d="M59.8687 128.75C59.7345 128.75 59.6057 128.803 59.5103 128.897C59.4149 128.992 59.3605 129.12 59.3591 129.254V132.981L61.1017 128.75H59.8687Z" stroke="#263238" stroke-linecap="round" stroke-linejoin="round"/>
<path d="M45.8841 136.57H41.1495C40.8711 136.57 40.6454 136.796 40.6454 137.074V151.952C40.6454 152.23 40.8711 152.456 41.1495 152.456H45.8841C46.1625 152.456 46.3883 152.23 46.3883 151.952V137.074C46.3883 136.796 46.1625 136.57 45.8841 136.57Z" stroke="#263238" stroke-linecap="round" stroke-linejoin="round"/>
<path d="M35.9381 140.384H31.2035C30.9251 140.384 30.6994 140.61 30.6994 140.888V151.952C30.6994 152.23 30.9251 152.456 31.2035 152.456H35.9381C36.2166 152.456 36.4423 152.23 36.4423 151.952V140.888C36.4423 140.61 36.2166 140.384 35.9381 140.384Z" stroke="#263238" stroke-linecap="round" stroke-linejoin="round"/>
<path d="M55.2437 149.661H50.5091C50.2307 149.661 50.005 149.887 50.005 150.165V151.952C50.005 152.23 50.2307 152.456 50.5091 152.456H55.2437C55.5221 152.456 55.7479 152.23 55.7479 151.952V150.165C55.7479 149.887 55.5221 149.661 55.2437 149.661Z" stroke="#263238" stroke-linecap="round" stroke-linejoin="round"/>
<path d="M158.325 144.094L149.733 152.697C154.678 158.494 157.666 165.705 158.271 173.301H170.414C169.776 162.485 165.518 152.197 158.325 144.094V144.094Z" fill="#272727"/>
<path opacity="0.2" d="M158.325 144.094L149.733 152.697C154.678 158.494 157.666 165.705 158.271 173.301H170.414C169.776 162.485 165.518 152.197 158.325 144.094V144.094Z" fill="white"/>
<path d="M94.3754 199.764C88.7903 193.194 85.7236 184.853 85.7236 176.23C85.7236 167.608 88.7903 159.266 94.3754 152.697L85.7885 144.094C77.9402 152.955 73.6071 164.382 73.6071 176.219C73.6071 188.056 77.9402 199.484 85.7885 208.345L94.3754 199.764Z" fill="#272727"/>
<g opacity="0.4">
<path opacity="0.4" d="M94.3754 199.764C88.7903 193.194 85.7236 184.853 85.7236 176.23C85.7236 167.608 88.7903 159.266 94.3754 152.697L85.7885 144.094C77.9402 152.955 73.6071 164.382 73.6071 176.219C73.6071 188.056 77.9402 199.484 85.7885 208.345L94.3754 199.764Z" fill="white"/>
</g>
<path d="M98.5182 148.549C105.089 142.964 113.431 139.898 122.054 139.898C130.677 139.898 139.02 142.964 145.59 148.549L154.177 139.962C145.317 132.116 133.892 127.784 122.057 127.784C110.222 127.784 98.7966 132.116 89.9367 139.962L98.5182 148.549Z" fill="#272727"/>
<path opacity="0.2" d="M98.5182 148.549C105.089 142.964 113.431 139.898 122.054 139.898C130.677 139.898 139.02 142.964 145.59 148.549L154.177 139.962C145.317 132.116 133.892 127.784 122.057 127.784C110.222 127.784 98.7966 132.116 89.9367 139.962L98.5182 148.549Z" fill="black"/>
<path d="M170.414 179.165H158.271C157.734 185.829 155.367 192.216 151.433 197.621C147.499 203.026 142.149 207.241 135.972 209.801C129.796 212.36 123.033 213.165 116.428 212.127C109.823 211.089 103.634 208.248 98.5401 203.917L89.9477 212.504C96.7469 218.525 105.102 222.512 114.058 224.013C123.015 225.513 132.213 224.465 140.603 220.989C148.993 217.513 156.237 211.748 161.508 204.353C166.779 196.958 169.865 188.23 170.414 179.165V179.165Z" fill="#272727"/>
<path d="M197.282 117.637H56.8C55.2972 117.637 53.856 117.04 52.7934 115.977C51.7308 114.915 51.1338 113.474 51.1338 111.971V20.8516C51.1338 20.1078 51.2804 19.3712 51.5652 18.6841C51.8501 17.9969 52.2675 17.3727 52.7937 16.8469C53.32 16.3212 53.9446 15.9044 54.6321 15.6202C55.3195 15.3361 56.0562 15.1902 56.8 15.1909H197.282C198.026 15.1902 198.762 15.3361 199.45 15.6202C200.137 15.9044 200.762 16.3212 201.288 16.8469C201.814 17.3727 202.232 17.9969 202.517 18.6841C202.801 19.3712 202.948 20.1078 202.948 20.8516V111.971C202.948 113.474 202.351 114.915 201.288 115.977C200.226 117.04 198.785 117.637 197.282 117.637V117.637Z" fill="#263238"/>
<path d="M197.282 114.36H56.8C55.2972 114.36 53.856 113.763 52.7934 112.7C51.7308 111.638 51.1338 110.197 51.1338 108.694V17.5746C51.1353 16.0728 51.7329 14.633 52.7953 13.5716C53.8578 12.5102 55.2982 11.9139 56.8 11.9139H197.282C198.784 11.9139 200.224 12.5102 201.286 13.5716C202.349 14.633 202.947 16.0728 202.948 17.5746V108.694C202.948 110.197 202.351 111.638 201.288 112.7C200.226 113.763 198.785 114.36 197.282 114.36V114.36Z" fill="#272727"/>
<path d="M203.178 20.5612V17.2732C203.178 16.5294 203.032 15.7929 202.747 15.1057C202.462 14.4186 202.044 13.7943 201.518 13.2686C200.992 12.7429 200.367 12.326 199.68 12.0419C198.992 11.7577 198.256 11.6118 197.512 11.6126H57.0137C56.2699 11.6118 55.5332 11.7577 54.8458 12.0419C54.1584 12.326 53.5337 12.7429 53.0075 13.2686C52.4812 13.7943 52.0638 14.4186 51.779 15.1057C51.4941 15.7929 51.3475 16.5294 51.3475 17.2732V108.403V111.691C51.3475 113.194 51.9445 114.635 53.0071 115.698C54.0697 116.761 55.5109 117.357 57.0137 117.357H197.512C199.015 117.357 200.456 116.761 201.519 115.698C202.581 114.635 203.178 113.194 203.178 111.691V20.5612V20.5612Z" stroke="#263238" stroke-miterlimit="10"/>
<path d="M60.1646 20.9557V104.732H193.325V20.9557H60.1646ZM191.846 37.3953H176.858V22.4408H191.846V37.3953ZM94.5562 55.3528H109.544V70.3402H94.5562V55.3528ZM93.0822 70.3402H78.1002V55.3528H93.0822V70.3402ZM142.467 53.9007H127.49V38.8803H142.472L142.467 53.9007ZM143.93 38.8803H158.912V53.8678H143.93V38.8803ZM127.49 55.3199H142.478V70.3074H127.49V55.3199ZM126.016 70.3074H111.018V55.3528H126.005L126.016 70.3074ZM126.016 53.8678H111.018V38.8803H126.005L126.016 53.8678ZM109.577 53.8678H94.5562V38.8803H109.544L109.577 53.8678ZM109.577 71.8034V86.7853H94.5562V71.8143L109.577 71.8034ZM111.051 71.8034H126.038V86.7853H111.018L111.051 71.8034ZM127.49 71.8034H142.478V86.7853H127.49V71.8034ZM143.93 71.8034H158.912V86.7853H143.93V71.8034ZM143.93 70.3293V55.3528H158.912V70.3402L143.93 70.3293ZM160.369 55.3419H175.384V70.3293H160.397L160.369 55.3419ZM160.369 53.8678V38.8803H175.384V53.8678H160.369ZM160.369 37.4282V22.4408H175.384V37.4172L160.369 37.4282ZM158.895 37.4282H143.93V22.4408H158.912L158.895 37.4282ZM142.456 37.4282H127.49V22.4408H142.472L142.456 37.4282ZM126.016 37.4282H111.018V22.4408H126.005L126.016 37.4282ZM109.577 37.4282H94.5562V22.4408H109.544L109.577 37.4282ZM93.137 37.4282H78.1002V22.4408H93.0822L93.137 37.4282ZM93.137 38.9023V53.8897H78.1002V38.8803L93.137 38.9023ZM76.6974 53.8897H61.6387V38.8803H76.6261L76.6974 53.8897ZM76.6974 55.3638V70.3512H61.6387V55.3528L76.6974 55.3638ZM76.6974 71.8034V86.7853H61.6387V71.8143L76.6974 71.8034ZM78.1715 71.8034H93.1534V86.7853H78.1002L78.1715 71.8034ZM93.1534 88.243V103.23H78.1002V88.2704L93.1534 88.243ZM94.6275 88.243H109.615V103.23H94.5562L94.6275 88.243ZM111.067 88.243H126.054V103.23H111.018L111.067 88.243ZM127.507 88.243H142.494V103.23H127.49L127.507 88.243ZM143.946 88.243H158.928V103.23H143.93L143.946 88.243ZM160.386 88.243H175.384V103.23H160.397L160.386 88.243ZM160.386 86.7689V71.8143H175.384V86.7963L160.386 86.7689ZM176.825 71.7869H191.813V86.7689H176.858L176.825 71.7869ZM176.825 70.3128V55.3528H191.813V70.3402L176.825 70.3128ZM176.825 53.8733V38.8803H191.813V53.8678L176.825 53.8733ZM76.6261 22.4408V37.4172H61.6387V22.4408H76.6261ZM61.6387 88.2704H76.6261V103.258H61.6387V88.2704ZM176.858 103.258V88.2704H191.846V103.258H176.858Z" fill="white"/>
<path opacity="0.8" d="M60.1646 20.9557V104.732H193.325V20.9557H60.1646ZM191.846 37.3953H176.858V22.4408H191.846V37.3953ZM94.5562 55.3528H109.544V70.3402H94.5562V55.3528ZM93.0822 70.3402H78.1002V55.3528H93.0822V70.3402ZM142.467 53.9007H127.49V38.8803H142.472L142.467 53.9007ZM143.93 38.8803H158.912V53.8678H143.93V38.8803ZM127.49 55.3199H142.478V70.3074H127.49V55.3199ZM126.016 70.3074H111.018V55.3528H126.005L126.016 70.3074ZM126.016 53.8678H111.018V38.8803H126.005L126.016 53.8678ZM109.577 53.8678H94.5562V38.8803H109.544L109.577 53.8678ZM109.577 71.8034V86.7853H94.5562V71.8143L109.577 71.8034ZM111.051 71.8034H126.038V86.7853H111.018L111.051 71.8034ZM127.49 71.8034H142.478V86.7853H127.49V71.8034ZM143.93 71.8034H158.912V86.7853H143.93V71.8034ZM143.93 70.3293V55.3528H158.912V70.3402L143.93 70.3293ZM160.369 55.3419H175.384V70.3293H160.397L160.369 55.3419ZM160.369 53.8678V38.8803H175.384V53.8678H160.369ZM160.369 37.4282V22.4408H175.384V37.4172L160.369 37.4282ZM158.895 37.4282H143.93V22.4408H158.912L158.895 37.4282ZM142.456 37.4282H127.49V22.4408H142.472L142.456 37.4282ZM126.016 37.4282H111.018V22.4408H126.005L126.016 37.4282ZM109.577 37.4282H94.5562V22.4408H109.544L109.577 37.4282ZM93.137 37.4282H78.1002V22.4408H93.0822L93.137 37.4282ZM93.137 38.9023V53.8897H78.1002V38.8803L93.137 38.9023ZM76.6974 53.8897H61.6387V38.8803H76.6261L76.6974 53.8897ZM76.6974 55.3638V70.3512H61.6387V55.3528L76.6974 55.3638ZM76.6974 71.8034V86.7853H61.6387V71.8143L76.6974 71.8034ZM78.1715 71.8034H93.1534V86.7853H78.1002L78.1715 71.8034ZM93.1534 88.243V103.23H78.1002V88.2704L93.1534 88.243ZM94.6275 88.243H109.615V103.23H94.5562L94.6275 88.243ZM111.067 88.243H126.054V103.23H111.018L111.067 88.243ZM127.507 88.243H142.494V103.23H127.49L127.507 88.243ZM143.946 88.243H158.928V103.23H143.93L143.946 88.243ZM160.386 88.243H175.384V103.23H160.397L160.386 88.243ZM160.386 86.7689V71.8143H175.384V86.7963L160.386 86.7689ZM176.825 71.7869H191.813V86.7689H176.858L176.825 71.7869ZM176.825 70.3128V55.3528H191.813V70.3402L176.825 70.3128ZM176.825 53.8733V38.8803H191.813V53.8678L176.825 53.8733ZM76.6261 22.4408V37.4172H61.6387V22.4408H76.6261ZM61.6387 88.2704H76.6261V103.258H61.6387V88.2704ZM176.858 103.258V88.2704H191.846V103.258H176.858Z" fill="white"/>
<path d="M127.408 71.5951L126.219 70.554L127.408 69.5128L128.597 70.554L127.408 71.5951Z" fill="#263238"/>
<path d="M130.97 68.4716L129.781 67.4304L132.159 65.3481L133.343 66.3893L130.97 68.4716ZM135.721 64.3069L134.532 63.2603L136.905 61.1779L138.094 62.2191L135.721 64.3069ZM140.467 60.1367L139.277 59.0956L141.656 57.0132L142.834 58.0599L140.467 60.1367ZM145.218 55.972L144.028 54.9309L145.075 54.0102L146.999 53.1663L147.749 54.487L146.072 55.2213L145.218 55.972ZM150.752 53.1663L150.001 51.8512L153.004 50.5305L153.755 51.8512L150.752 53.1663ZM156.78 50.536L155.986 49.2154L158.988 47.8947L159.739 49.2154L156.78 50.536ZM162.808 47.9002L162.013 46.5796L163.838 45.7795L164.578 45.1329L165.767 46.174L164.835 46.9905L162.808 47.9002ZM168.184 44.0917L166.995 43.0505L169.373 40.9627L170.556 42.0093L168.184 44.0917ZM172.935 39.9215L171.702 38.8803L174.069 36.798L175.258 37.8392L172.935 39.9215ZM177.68 35.7568L176.491 34.7157L178.869 32.6333L180.053 33.6745L177.68 35.7568ZM182.431 31.5921L181.193 30.551L183.566 28.4686L184.755 29.5098L182.431 31.5921ZM187.177 27.4274L185.988 26.3808L188.366 24.2984L189.555 25.3396L187.177 27.4274Z" fill="#263238"/>
<path d="M193.32 27.1096H191.637V22.4298H186.311V20.9612H193.32V27.1096Z" fill="#263238"/>
<g opacity="0.5">
<path opacity="0.5" d="M171.51 60.2518L170.469 59.2106L172.524 57.1557L173.565 58.1969L171.51 60.2518ZM175.62 56.1419L174.579 55.1007L176.634 53.0458L177.675 54.087L175.62 56.1419ZM179.73 52.032L178.689 50.9908L180.744 48.9359L181.785 49.9771L179.73 52.032ZM183.84 47.9221L182.798 46.8809L184.853 44.826L185.895 45.8672L183.84 47.9221ZM187.95 43.8122L186.908 42.771L188.963 40.7161L190.004 41.7573L187.95 43.8122Z" fill="black"/>
<path opacity="0.5" d="M168.195 63.5836H166.419V62.1095H167.586L168.414 61.282L169.455 62.3232L168.195 63.5836Z" fill="black"/>
<path opacity="0.5" d="M143.508 71.8143H142.083V70.3402H142.894L143.853 69.3813L144.894 70.4224L143.508 71.8143ZM139.31 71.8143H136.537V70.3402H139.31V71.8143ZM133.765 71.8143H130.986V70.3402H133.765V71.8143ZM146.856 68.4716L145.815 67.4304L147.766 65.4577L148.807 66.4988L146.856 68.4716ZM150.78 64.5535L149.738 63.5068L151.125 62.1204H152.544V63.5945H151.739L150.78 64.5535ZM163.657 63.5836H160.885V62.1095H163.657V63.5836ZM158.112 63.5836H155.339V62.1095H158.112V63.5836Z" fill="black"/>
<path opacity="0.5" d="M128.214 70.3402H126.739V71.8143H128.214V70.3402Z" fill="black"/>
<path opacity="0.5" d="M193.32 43.5656H191.846V38.8913H187.166L187.171 37.4172H193.32V43.5656Z" fill="black"/>
<g opacity="0.2">
<path opacity="0.2" d="M171.51 60.2518L170.469 59.2106L172.524 57.1557L173.565 58.1969L171.51 60.2518ZM175.62 56.1419L174.579 55.1007L176.634 53.0458L177.675 54.087L175.62 56.1419ZM179.73 52.032L178.689 50.9908L180.744 48.9359L181.785 49.9771L179.73 52.032ZM183.84 47.9221L182.798 46.8809L184.853 44.826L185.895 45.8672L183.84 47.9221ZM187.95 43.8122L186.908 42.771L188.963 40.7161L190.004 41.7573L187.95 43.8122Z" fill="black"/>
<path opacity="0.2" d="M168.195 63.5836H166.419V62.1095H167.586L168.414 61.282L169.455 62.3232L168.195 63.5836Z" fill="black"/>
<path opacity="0.2" d="M143.508 71.8143H142.083V70.3402H142.894L143.853 69.3813L144.894 70.4224L143.508 71.8143ZM139.31 71.8143H136.537V70.3402H139.31V71.8143ZM133.765 71.8143H130.986V70.3402H133.765V71.8143ZM146.856 68.4716L145.815 67.4304L147.766 65.4577L148.807 66.4988L146.856 68.4716ZM150.78 64.5535L149.738 63.5068L151.125 62.1204H152.544V63.5945H151.739L150.78 64.5535ZM163.657 63.5836H160.885V62.1095H163.657V63.5836ZM158.112 63.5836H155.339V62.1095H158.112V63.5836Z" fill="black"/>
<path opacity="0.2" d="M128.214 70.3402H126.739V71.8143H128.214V70.3402Z" fill="black"/>
<path opacity="0.2" d="M193.32 43.5656H191.846V38.8913H187.166L187.171 37.4172H193.32V43.5656Z" fill="black"/>
</g>
</g>
<g opacity="0.3">
<path opacity="0.3" d="M127.265 70.5583L126.222 71.6006L127.265 72.6429L128.307 71.6006L127.265 70.5583Z" fill="black"/>
<path opacity="0.3" d="M149.295 80.0451H146.231V78.571H149.289L149.295 80.0451ZM143.174 80.0451H140.094V78.571H143.157L143.174 80.0451ZM137.053 80.0451H134.663L133.754 79.1299L134.8 78.0888L135.277 78.571H137.053V80.0451ZM152.604 79.1738L151.563 78.1326L153.728 75.9681L154.769 77.0092L152.604 79.1738ZM131.589 76.9818L129.397 74.8228L130.444 73.7761L132.608 75.9407L131.589 76.9818ZM156.934 74.8611L155.892 73.82L158.057 71.628L159.098 72.6747L156.934 74.8611ZM176.425 71.8308H173.433V70.3567H175.817L175.866 70.3019L175.916 70.3567H176.119V70.5594L176.908 71.3485L176.425 71.8308ZM170.398 71.8308H167.334V70.3567H170.398V71.8308ZM164.277 71.8308H161.191V70.3567H164.255L164.277 71.8308ZM179.072 69.184L178.031 68.1373L180.196 65.9783L181.237 67.0194L179.072 69.184ZM183.401 64.8549L182.36 63.8137L184.525 61.6492L185.566 62.6904L183.401 64.8549ZM187.73 60.5258L186.689 59.4846L188.881 57.3201L189.922 58.3613L187.73 60.5258Z" fill="black"/>
<path opacity="0.3" d="M193.32 60.0271H191.846V55.3528H187.166V53.8787H193.32V60.0271Z" fill="black"/>
<g opacity="0.3">
<path opacity="0.3" d="M127.265 70.5583L126.222 71.6006L127.265 72.6429L128.307 71.6006L127.265 70.5583Z" fill="black"/>
<path opacity="0.3" d="M149.295 80.0451H146.231V78.571H149.289L149.295 80.0451ZM143.174 80.0451H140.094V78.571H143.157L143.174 80.0451ZM137.053 80.0451H134.663L133.754 79.1299L134.8 78.0888L135.277 78.571H137.053V80.0451ZM152.604 79.1738L151.563 78.1326L153.728 75.9681L154.769 77.0092L152.604 79.1738ZM131.589 76.9818L129.397 74.8228L130.444 73.7761L132.608 75.9407L131.589 76.9818ZM156.934 74.8611L155.892 73.82L158.057 71.628L159.098 72.6747L156.934 74.8611ZM176.425 71.8308H173.433V70.3567H175.817L175.866 70.3019L175.916 70.3567H176.119V70.5594L176.908 71.3485L176.425 71.8308ZM170.398 71.8308H167.334V70.3567H170.398V71.8308ZM164.277 71.8308H161.191V70.3567H164.255L164.277 71.8308ZM179.072 69.184L178.031 68.1373L180.196 65.9783L181.237 67.0194L179.072 69.184ZM183.401 64.8549L182.36 63.8137L184.525 61.6492L185.566 62.6904L183.401 64.8549ZM187.73 60.5258L186.689 59.4846L188.881 57.3201L189.922 58.3613L187.73 60.5258Z" fill="black"/>
<path opacity="0.3" d="M193.32 60.0271H191.846V55.3528H187.166V53.8787H193.32V60.0271Z" fill="black"/>
</g>
</g>
<path d="M69.59 104.732H60.9044V103.258H68.6749L76.7577 87.0977L85.2843 78.571H101.746L109.977 70.3402H126.739V71.8143H110.585L102.354 80.0451H85.8981L77.9687 87.9744L69.59 104.732Z" fill="#272727"/>
<g opacity="0.3">
<path opacity="0.3" d="M69.59 104.732H60.9044V103.258H68.6749L76.7577 87.0977L85.2843 78.571H101.746L109.977 70.3402H126.739V71.8143H110.585L102.354 80.0451H85.8981L77.9687 87.9744L69.59 104.732Z" fill="#263238"/>
</g>
<path d="M91.356 91.1966H82.6156C81.1781 91.1966 80.0127 92.362 80.0127 93.7995V102.54C80.0127 103.977 81.1781 105.143 82.6156 105.143H91.356C92.7936 105.143 93.9589 103.977 93.9589 102.54V93.7995C93.9589 92.362 92.7936 91.1966 91.356 91.1966Z" fill="#272727"/>
<path opacity="0.3" d="M91.356 91.1966H82.6156C81.1781 91.1966 80.0127 92.362 80.0127 93.7995V102.54C80.0127 103.977 81.1781 105.143 82.6156 105.143H91.356C92.7936 105.143 93.9589 103.977 93.9589 102.54V93.7995C93.9589 92.362 92.7936 91.1966 91.356 91.1966Z" fill="black"/>
<path d="M91.356 90.2212H82.6156C81.1781 90.2212 80.0127 91.3866 80.0127 92.8241V101.564C80.0127 103.002 81.1781 104.167 82.6156 104.167H91.356C92.7936 104.167 93.9589 103.002 93.9589 101.564V92.8241C93.9589 91.3866 92.7936 90.2212 91.356 90.2212Z" fill="#272727"/>
<path opacity="0.8" d="M91.356 90.2212H82.6156C81.1781 90.2212 80.0127 91.3866 80.0127 92.8241V101.564C80.0127 103.002 81.1781 104.167 82.6156 104.167H91.356C92.7936 104.167 93.9589 103.002 93.9589 101.564V92.8241C93.9589 91.3866 92.7936 90.2212 91.356 90.2212Z" fill="white"/>
<path d="M83.2897 95.0982C83.2548 94.5936 83.4202 94.0955 83.75 93.7118C84.1158 93.3971 84.5825 93.224 85.0651 93.224C85.5478 93.224 86.0144 93.3971 86.3803 93.7118C86.7101 94.0955 86.8755 94.5936 86.8406 95.0982V98.9342C86.8525 99.2944 86.7753 99.652 86.6159 99.9753C86.6238 100.004 86.6377 100.03 86.6566 100.053C86.6755 100.076 86.699 100.094 86.7255 100.107C86.7967 100.127 86.8707 100.137 86.9447 100.134H87.0488V101.175H86.8899C86.6687 101.184 86.4486 101.139 86.2488 101.044C86.088 100.962 85.9589 100.829 85.8816 100.666C85.7572 100.711 85.6288 100.744 85.498 100.764C85.3554 100.792 85.2104 100.805 85.0651 100.803C84.8243 100.82 84.5826 100.786 84.3559 100.703C84.1292 100.619 83.9227 100.489 83.75 100.321C83.4212 99.9363 83.256 99.4387 83.2897 98.9342V95.0982ZM84.4569 99.0383C84.4401 99.2352 84.4989 99.4311 84.6213 99.5863C84.7438 99.6923 84.9004 99.7507 85.0624 99.7507C85.2244 99.7507 85.381 99.6923 85.5035 99.5863C85.6259 99.4311 85.6847 99.2352 85.6679 99.0383V95.0215C85.6831 94.8248 85.6245 94.6295 85.5035 94.4735C85.381 94.3675 85.2244 94.3091 85.0624 94.3091C84.9004 94.3091 84.7438 94.3675 84.6213 94.4735C84.5003 94.6295 84.4417 94.8248 84.4569 95.0215V99.0383Z" fill="black"/>
<path d="M88.3147 94.227C88.4999 94.2315 88.6848 94.2075 88.8627 94.1557C88.9943 94.114 89.1157 94.0449 89.2189 93.953C89.3081 93.8674 89.3822 93.7673 89.4381 93.6571C89.4981 93.5405 89.5494 93.4196 89.5915 93.2954H90.3751V100.748H89.2079V95.0763H88.3037L88.3147 94.227Z" fill="black"/>
<path d="M140.823 91.7446H132.082C130.645 91.7446 129.479 92.91 129.479 94.3475V103.088C129.479 104.525 130.645 105.691 132.082 105.691H140.823C142.26 105.691 143.426 104.525 143.426 103.088V94.3475C143.426 92.91 142.26 91.7446 140.823 91.7446Z" fill="#272727"/>
<path opacity="0.3" d="M140.823 91.7446H132.082C130.645 91.7446 129.479 92.91 129.479 94.3475V103.088C129.479 104.525 130.645 105.691 132.082 105.691H140.823C142.26 105.691 143.426 104.525 143.426 103.088V94.3475C143.426 92.91 142.26 91.7446 140.823 91.7446Z" fill="black"/>
<path d="M140.823 90.7692H132.082C130.645 90.7692 129.479 91.9345 129.479 93.3721V102.112C129.479 103.55 130.645 104.715 132.082 104.715H140.823C142.26 104.715 143.426 103.55 143.426 102.112V93.3721C143.426 91.9345 142.26 90.7692 140.823 90.7692Z" fill="#272727"/>
<path opacity="0.8" d="M140.823 90.7692H132.082C130.645 90.7692 129.479 91.9345 129.479 93.3721V102.112C129.479 103.55 130.645 104.715 132.082 104.715H140.823C142.26 104.715 143.426 103.55 143.426 102.112V93.3721C143.426 91.9345 142.26 90.7692 140.823 90.7692Z" fill="white"/>
<path d="M132.91 95.7449C132.875 95.2411 133.038 94.7435 133.365 94.3585C133.733 94.0475 134.2 93.8769 134.683 93.8769C135.165 93.8769 135.632 94.0475 136 94.3585C136.325 94.7447 136.488 95.2414 136.455 95.7449V99.5808C136.467 99.941 136.39 100.299 136.231 100.622C136.239 100.651 136.254 100.679 136.274 100.702C136.294 100.726 136.318 100.745 136.346 100.759C136.416 100.77 136.489 100.77 136.559 100.759H136.669V101.8H136.51C136.289 101.809 136.069 101.764 135.869 101.669C135.707 101.588 135.578 101.455 135.502 101.291C135.377 101.334 135.248 101.369 135.118 101.395C134.973 101.419 134.827 101.432 134.68 101.433C134.439 101.448 134.197 101.413 133.97 101.329C133.744 101.245 133.538 101.114 133.365 100.945C133.037 100.561 132.873 100.063 132.91 99.5589V95.7449ZM134.066 99.7068C134.051 99.9036 134.11 100.099 134.23 100.255C134.353 100.361 134.51 100.419 134.672 100.419C134.834 100.419 134.99 100.361 135.113 100.255C135.234 100.099 135.292 99.9036 135.277 99.7068V95.6901C135.294 95.4932 135.235 95.2973 135.113 95.1421C134.99 95.0361 134.834 94.9777 134.672 94.9777C134.51 94.9777 134.353 95.0361 134.23 95.1421C134.108 95.2973 134.049 95.4932 134.066 95.6901V99.7068Z" fill="black"/>
<path d="M139.546 95.7887C139.573 95.5516 139.515 95.3127 139.382 95.1147C139.326 95.0546 139.258 95.0077 139.182 94.9774C139.106 94.947 139.025 94.934 138.943 94.9393C138.862 94.9351 138.781 94.9474 138.704 94.9757C138.628 95.004 138.558 95.0475 138.499 95.1037C138.377 95.2589 138.318 95.4548 138.335 95.6517V96.4518H137.239V95.7284C137.204 95.2274 137.36 94.7318 137.677 94.342C138.039 94.0304 138.501 93.8589 138.979 93.8589C139.456 93.8589 139.918 94.0304 140.28 94.342C140.597 94.7318 140.754 95.2274 140.719 95.7284C140.725 96.1017 140.664 96.473 140.538 96.8244C140.418 97.1376 140.262 97.4356 140.072 97.7122C139.894 97.9736 139.696 98.2209 139.48 98.4519C139.266 98.6766 139.075 98.8903 138.905 99.0876C138.728 99.2746 138.576 99.4826 138.45 99.7068C138.351 99.8992 138.319 100.119 138.357 100.332H140.549V101.395H137.173V100.479C137.166 100.154 137.224 99.8293 137.343 99.526C137.453 99.255 137.596 98.999 137.77 98.7643C137.94 98.538 138.123 98.322 138.318 98.1177C138.513 97.914 138.695 97.7 138.866 97.4765C139.042 97.2464 139.185 96.9939 139.294 96.7258C139.441 96.4338 139.527 96.115 139.546 95.7887V95.7887Z" fill="black"/>
<path d="M190.459 91.1966H181.719C180.281 91.1966 179.116 92.362 179.116 93.7995V102.54C179.116 103.977 180.281 105.143 181.719 105.143H190.459C191.897 105.143 193.062 103.977 193.062 102.54V93.7995C193.062 92.362 191.897 91.1966 190.459 91.1966Z" fill="#272727"/>
<path opacity="0.3" d="M190.459 91.1966H181.719C180.281 91.1966 179.116 92.362 179.116 93.7995V102.54C179.116 103.977 180.281 105.143 181.719 105.143H190.459C191.897 105.143 193.062 103.977 193.062 102.54V93.7995C193.062 92.362 191.897 91.1966 190.459 91.1966Z" fill="black"/>
<path d="M190.459 90.2212H181.719C180.281 90.2212 179.116 91.3866 179.116 92.8241V101.564C179.116 103.002 180.281 104.167 181.719 104.167H190.459C191.897 104.167 193.062 103.002 193.062 101.564V92.8241C193.062 91.3866 191.897 90.2212 190.459 90.2212Z" fill="#272727"/>
<path opacity="0.8" d="M190.459 90.2212H181.719C180.281 90.2212 179.116 91.3866 179.116 92.8241V101.564C179.116 103.002 180.281 104.167 181.719 104.167H190.459C191.897 104.167 193.062 103.002 193.062 101.564V92.8241C193.062 91.3866 191.897 90.2212 190.459 90.2212Z" fill="white"/>
<path d="M182.552 95.1969C182.519 94.6934 182.682 94.1967 183.007 93.8105C183.375 93.4995 183.842 93.3289 184.325 93.3289C184.807 93.3289 185.274 93.4995 185.643 93.8105C185.967 94.1967 186.13 94.6934 186.097 95.1969V99.0328C186.113 99.3934 186.035 99.7518 185.873 100.074C185.893 100.132 185.934 100.181 185.988 100.211C186.06 100.222 186.134 100.222 186.207 100.211H186.311V101.252H186.152C185.931 101.261 185.711 101.216 185.511 101.121C185.349 101.04 185.22 100.907 185.144 100.743C185.019 100.786 184.89 100.821 184.76 100.847C184.615 100.871 184.469 100.884 184.322 100.885C184.081 100.9 183.839 100.865 183.613 100.781C183.386 100.697 183.18 100.566 183.007 100.397C182.681 100.012 182.518 99.5145 182.552 99.0109V95.1969ZM183.719 99.1369C183.704 99.3337 183.763 99.529 183.883 99.6849C184.006 99.7909 184.163 99.8493 184.325 99.8493C184.487 99.8493 184.643 99.7909 184.766 99.6849C184.887 99.529 184.945 99.3337 184.93 99.1369V95.1202C184.947 94.9233 184.888 94.7274 184.766 94.5722C184.643 94.4662 184.487 94.4078 184.325 94.4078C184.163 94.4078 184.006 94.4662 183.883 94.5722C183.761 94.7274 183.702 94.9233 183.719 95.1202V99.1369Z" fill="black"/>
<path d="M189.106 95.2407C189.133 95.0037 189.075 94.7647 188.941 94.5667C188.885 94.5059 188.816 94.4585 188.74 94.4282C188.663 94.3978 188.58 94.3852 188.498 94.3914C188.417 94.3878 188.337 94.4006 188.262 94.4288C188.186 94.4571 188.117 94.5002 188.059 94.5558C187.937 94.7109 187.878 94.9068 187.895 95.1037V95.586H186.799V95.1805C186.765 94.6787 186.924 94.183 187.243 93.7941C187.604 93.4828 188.065 93.3116 188.541 93.3116C189.018 93.3116 189.479 93.4828 189.84 93.7941C190.159 94.183 190.318 94.6787 190.284 95.1805V95.3722C190.284 96.1613 190.01 96.6765 189.467 96.9011C189.744 97.0106 189.969 97.2199 190.098 97.4875C190.231 97.795 190.294 98.128 190.284 98.4629V99.0438C190.319 99.5456 190.16 100.042 189.84 100.43C189.481 100.745 189.019 100.918 188.541 100.918C188.064 100.918 187.602 100.745 187.243 100.43C186.923 100.042 186.764 99.5456 186.799 99.0438V98.4464H187.895V99.1588C187.88 99.3556 187.938 99.5509 188.059 99.7068C188.117 99.7623 188.186 99.8055 188.262 99.8338C188.337 99.862 188.417 99.8748 188.498 99.8712C188.579 99.8745 188.661 99.8611 188.737 99.8319C188.813 99.8027 188.883 99.7583 188.941 99.7013C189.074 99.5051 189.132 99.2681 189.106 99.0328V98.4464C189.13 98.1883 189.066 97.9296 188.925 97.7121C188.845 97.6352 188.749 97.5774 188.644 97.5432C188.538 97.5091 188.426 97.4994 188.317 97.5149H187.922V96.4189H188.382C188.569 96.4279 188.753 96.3674 188.898 96.249C188.968 96.1634 189.021 96.0646 189.053 95.9582C189.085 95.8519 189.096 95.7402 189.084 95.6298L189.106 95.2407Z" fill="black"/>
<path d="M141.628 168.6L142.554 176.6C142.554 198.136 141.798 199.736 139.995 207.216C139.365 209.825 138.592 212.729 137.694 215.332C137.409 216.16 137.206 217.013 137.085 217.88V217.918C136.979 218.622 136.924 219.333 136.921 220.045C136.905 222.805 136.484 225.549 135.672 228.188C134.713 231.476 133.48 235.213 132.104 239.175C119.135 242.721 105.664 244.069 92.2492 243.164L105.072 219.502C106.406 217.042 106.862 214.201 106.365 211.447C104.721 202.345 102.639 188.579 102.244 175.132C101.631 154.171 103.028 157.963 103.658 148.078C103.731 146.891 104.045 145.731 104.58 144.67C105.115 143.608 105.86 142.666 106.771 141.902L107.538 141.266L115.308 125.155C115.812 124.11 116.53 123.182 117.416 122.432C118.301 121.682 119.334 121.126 120.448 120.801C121.562 120.476 122.731 120.388 123.881 120.543C125.031 120.698 126.136 121.094 127.123 121.703L134.877 126.487C135.046 126.591 135.188 126.732 135.295 126.899C135.401 127.066 135.468 127.255 135.491 127.451L136.532 136.356C136.532 136.356 142.176 144.85 142.56 148.138C142.68 149.234 141.519 152.341 141.519 152.341L141.628 168.6Z" fill="white"/>
<path d="M104.327 221.047C116.766 209.973 113.763 198.07 108.903 191.127C105.012 185.576 107.363 178.715 107.313 172.529C107.22 168.011 106.76 163.508 105.938 159.065C105.554 156.84 105.116 154.621 104.672 152.407C104.497 151.546 104.513 150.702 104.36 149.864C104.206 149.026 103.658 148.28 103.768 147.425C103.768 147.425 102.124 160.27 102.124 161.377C102.08 164.117 102.124 167.646 102.124 170.397C102.173 176.222 102.513 180.173 102.88 185.982C103.543 196.426 105.9 207.825 106.579 212.685C106.902 214.981 105.231 219.042 104.327 221.047Z" fill="#272727"/>
<g opacity="0.2">
<path opacity="0.2" d="M104.327 221.047C116.766 209.973 113.763 198.07 108.903 191.127C105.012 185.576 107.363 178.715 107.313 172.529C107.22 168.011 106.76 163.508 105.938 159.065C105.554 156.84 105.116 154.621 104.672 152.407C104.497 151.546 104.513 150.702 104.36 149.864C104.206 149.026 103.658 148.28 103.768 147.425C103.768 147.425 102.124 160.27 102.124 161.377C102.08 164.117 102.124 167.646 102.124 170.397C102.173 176.222 102.513 180.173 102.88 185.982C103.543 196.426 105.9 207.825 106.579 212.685C106.902 214.981 105.231 219.042 104.327 221.047Z" fill="white"/>
</g>
<path d="M123.852 125.977C123.26 124.613 121.062 124.788 120.147 125.977C119.232 127.166 119.221 128.767 119.27 130.252C119.32 131.737 119.353 133.353 118.476 134.559C117.928 135.299 117.1 135.808 116.662 136.614C115.078 139.562 119.879 143.491 117.758 146.094C116.772 147.31 114.602 147.491 114.223 149.015C113.796 150.702 115.944 151.716 117.254 152.851C119.446 154.752 119.369 158.637 117.133 160.473C120.608 162.035 121.282 167.909 120.69 175.51C123.03 172.222 123.61 162.544 123.353 158.522C123.095 154.5 122.142 150.544 121.797 146.527C121.265 140.208 122.257 133.855 124.69 127.999L123.852 125.977Z" fill="#272727"/>
<g opacity="0.2">
<path opacity="0.2" d="M123.852 125.977C123.26 124.613 121.062 124.788 120.147 125.977C119.232 127.166 119.221 128.767 119.27 130.252C119.32 131.737 119.353 133.353 118.476 134.559C117.928 135.299 117.1 135.808 116.662 136.614C115.078 139.562 119.879 143.491 117.758 146.094C116.772 147.31 114.602 147.491 114.223 149.015C113.796 150.702 115.944 151.716 117.254 152.851C119.446 154.752 119.369 158.637 117.133 160.473C120.608 162.035 121.282 167.909 120.69 175.51C123.03 172.222 123.61 162.544 123.353 158.522C123.095 154.5 122.142 150.544 121.797 146.527C121.265 140.208 122.257 133.855 124.69 127.999L123.852 125.977Z" fill="white"/>
</g>
<path d="M136.285 155.854C136.033 157.497 136.57 159.185 137.102 160.785C138.768 165.783 140.43 170.782 142.089 175.784C142.176 169.422 142.357 163.054 142.357 156.697C142.357 154.999 142.85 151.99 140.664 151.503C138.647 151.053 136.527 154.297 136.285 155.854Z" fill="#272727"/>
<path opacity="0.2" d="M136.285 155.854C136.033 157.497 136.57 159.185 137.102 160.785C138.768 165.783 140.43 170.782 142.089 175.784C142.176 169.422 142.357 163.054 142.357 156.697C142.357 154.999 142.85 151.99 140.664 151.503C138.647 151.053 136.527 154.297 136.285 155.854Z" fill="white"/>
<path d="M166.737 65.7591C166.737 66.1591 166.737 66.5591 166.737 66.9646C166.74 70.4166 166.274 73.8529 165.351 77.1791C164.465 80.3938 163.157 83.4767 161.46 86.3469H161.586C161.197 87.0155 160.786 87.6676 160.358 88.3087H160.227C155.006 96.0535 147.134 101.623 138.094 103.97L137.343 104.151L136.916 104.25C134.159 104.873 131.341 105.185 128.515 105.181C126.535 105.183 124.558 105.031 122.602 104.726C121.368 104.537 120.145 104.284 118.936 103.97C118.01 103.729 117.1 103.461 116.196 103.154V103.236C115.495 103.002 114.804 102.744 114.125 102.463C107.771 99.8626 102.233 95.6023 98.0908 90.128C97.5921 89.4814 97.1263 88.8183 96.6824 88.1388C96.3865 87.695 96.1016 87.2401 95.8276 86.7798C95.3892 86.0565 94.9727 85.3222 94.5836 84.5879C94.3809 84.1988 94.1891 83.8097 94.0028 83.4152C93.8987 83.2124 93.8055 83.0042 93.7123 82.796C93.5753 82.4946 93.4438 82.1932 93.3123 81.8863C91.3513 77.2003 90.3435 72.1705 90.3477 67.0907C90.3477 66.3564 90.3477 65.6276 90.408 64.8987C90.4573 64.0658 90.5285 63.2548 90.6327 62.4164C91.2527 57.3525 92.8814 52.4643 95.4227 48.0406C97.9639 43.6169 101.366 39.7475 105.428 36.661C108.001 34.6995 110.81 33.0701 113.791 31.8113C114.618 31.4661 115.462 31.1428 116.317 30.8578C124.506 28.0944 133.388 28.1774 141.524 31.0935C142.35 31.3894 143.164 31.7145 143.968 32.0689C145.269 32.6383 146.537 33.2804 147.766 33.9923H147.831C148.204 34.206 148.577 34.4307 148.927 34.6718C149.278 34.9129 149.667 35.1431 150.023 35.3897L150.095 35.5102C150.865 36.0363 151.616 36.5843 152.347 37.1542C154.835 39.1348 157.07 41.4153 158.999 43.9437C159.372 44.4315 159.728 44.9301 160.095 45.4343L160.276 45.7028C160.572 46.1466 160.868 46.585 161.148 47.0399C161.493 47.5879 161.827 48.1742 162.145 48.7551L162.172 48.8099C162.278 48.9875 162.375 49.1704 162.463 49.3578C162.512 49.4565 162.561 49.5606 162.616 49.6592C162.77 49.9606 162.918 50.2675 163.06 50.5744C163.062 50.5889 163.062 50.6037 163.06 50.6182V50.6511L163.093 50.7169L163.12 50.7716L163.159 50.8593C163.161 50.8739 163.161 50.8886 163.159 50.9032L163.318 51.2484C164.857 54.6129 165.893 58.1857 166.392 61.8519L166.49 63.0137C166.529 63.4027 166.562 63.7973 166.595 64.1864C166.627 64.5754 166.638 64.8987 166.655 65.2823C166.655 65.3152 166.655 65.3481 166.655 65.381C166.732 65.4906 166.737 65.6276 166.737 65.7591Z" fill="#263238"/>
<path d="M166.737 65.7591C166.737 66.1591 166.737 66.5591 166.737 66.9646C166.74 70.4166 166.274 73.8529 165.351 77.1791C164.465 80.3938 163.157 83.4767 161.46 86.3469H161.586C161.197 87.0155 160.786 87.6676 160.358 88.3087H160.227C155.006 96.0535 147.134 101.623 138.094 103.97L137.343 104.151L136.916 104.25C134.159 104.873 131.341 105.185 128.515 105.181C126.535 105.183 124.558 105.031 122.602 104.726C121.368 104.537 120.145 104.284 118.936 103.97C118.01 103.729 117.1 103.461 116.196 103.154V103.236C115.495 103.002 114.804 102.744 114.125 102.463C107.771 99.8626 102.233 95.6023 98.0908 90.128C97.5921 89.4814 97.1263 88.8183 96.6824 88.1388C96.3865 87.695 96.1016 87.2401 95.8276 86.7798C95.3892 86.0565 94.9727 85.3222 94.5836 84.5879C94.3809 84.1988 94.1891 83.8097 94.0028 83.4152C93.8987 83.2124 93.8055 83.0042 93.7123 82.796C93.5753 82.4946 93.4438 82.1932 93.3123 81.8863C91.3513 77.2003 90.3435 72.1705 90.3477 67.0907C90.3477 66.3564 90.3477 65.6276 90.408 64.8987C90.4573 64.0658 90.5285 63.2548 90.6327 62.4164C91.2527 57.3525 92.8814 52.4643 95.4227 48.0406C97.9639 43.6169 101.366 39.7475 105.428 36.661C108.001 34.6995 110.81 33.0701 113.791 31.8113C114.618 31.4661 115.462 31.1428 116.317 30.8578C124.506 28.0944 133.388 28.1774 141.524 31.0935C142.35 31.3894 143.164 31.7145 143.968 32.0689C145.269 32.6383 146.537 33.2804 147.766 33.9923H147.831C148.204 34.206 148.577 34.4307 148.927 34.6718C149.278 34.9129 149.667 35.1431 150.023 35.3897L150.095 35.5102C150.865 36.0363 151.616 36.5843 152.347 37.1542C154.835 39.1348 157.07 41.4153 158.999 43.9437C159.372 44.4315 159.728 44.9301 160.095 45.4343L160.276 45.7028C160.572 46.1466 160.868 46.585 161.148 47.0399C161.493 47.5879 161.827 48.1742 162.145 48.7551L162.172 48.8099L163.066 50.5744C163.067 50.5889 163.067 50.6037 163.066 50.6182V50.6511L163.098 50.7169L163.126 50.7716L163.164 50.8593C163.166 50.8739 163.166 50.8886 163.164 50.9032L163.323 51.2484C164.863 54.6129 165.899 58.1857 166.397 61.8519L166.496 63.0137C166.534 63.4027 166.567 63.7973 166.6 64.1864C166.633 64.5754 166.644 64.8987 166.66 65.2823C166.66 65.3152 166.66 65.3481 166.66 65.381C166.732 65.4906 166.737 65.6276 166.737 65.7591Z" fill="#272727"/>
<path d="M134.356 62.4712H133.584H131.995H127.238H122.443H117.868H117.626C117.626 62.7835 117.626 63.1013 117.626 63.4137C117.626 63.7699 117.626 64.1261 117.626 64.4768L117.774 64.6193C117.725 64.6741 117.676 64.7179 117.626 64.7672V64.9809C119.227 64.9809 120.832 64.9809 122.427 64.9809H122.838H127.222L131.962 64.9426L136.647 64.8878L141.267 64.822C141.294 63.9946 141.321 63.1781 141.343 62.3342H141.968L134.356 62.4712ZM166.726 65.359C166.726 65.5125 166.699 65.6659 166.688 65.8194C166.381 69.7429 165.942 73.5624 165.373 77.1791C166.296 73.8529 166.762 70.4166 166.759 66.9646C166.759 66.5591 166.759 66.1591 166.759 65.7591C166.737 65.6276 166.732 65.4906 166.726 65.359V65.359ZM134.356 62.4712H133.584H131.995H127.238H122.443H117.868H117.626C117.626 62.7835 117.626 63.1013 117.626 63.4137C117.626 63.7699 117.626 64.1261 117.626 64.4768L117.774 64.6193C117.725 64.6741 117.676 64.7179 117.626 64.7672V64.9809C119.227 64.9809 120.832 64.9809 122.427 64.9809H122.838H127.222L131.962 64.9426L136.647 64.8878L141.267 64.822C141.294 63.9946 141.321 63.1781 141.343 62.3342H141.968L134.356 62.4712ZM134.356 62.4712H133.584H131.995H127.238H122.443H117.868H117.626C117.626 62.7835 117.626 63.1013 117.626 63.4137C117.626 63.7699 117.626 64.1261 117.626 64.4768L117.774 64.6193C117.725 64.6741 117.676 64.7179 117.626 64.7672V64.9809C119.227 64.9809 120.832 64.9809 122.427 64.9809H122.838H127.222L131.962 64.9426L136.647 64.8878L141.267 64.822C141.294 63.9946 141.321 63.1781 141.343 62.3342H141.968L134.356 62.4712ZM134.356 62.4712H133.584H131.995H127.238H122.443H117.868H117.626C117.626 62.7835 117.626 63.1013 117.626 63.4137C117.626 63.7699 117.626 64.1261 117.626 64.4768L117.774 64.6193C117.725 64.6741 117.676 64.7179 117.626 64.7672V64.9809C119.227 64.9809 120.832 64.9809 122.427 64.9809H122.838H127.222L131.962 64.9426L136.647 64.8878L141.267 64.822C141.294 63.9946 141.321 63.1781 141.343 62.3342H141.968L134.356 62.4712ZM134.356 62.4712H133.584H131.995H127.238H122.443H117.868H117.626C117.626 62.7835 117.626 63.1013 117.626 63.4137C117.626 63.7699 117.626 64.1261 117.626 64.4768L117.774 64.6193C117.725 64.6741 117.676 64.7179 117.626 64.7672V64.9809C119.227 64.9809 120.832 64.9809 122.427 64.9809H122.838H127.222L131.962 64.9426L136.647 64.8878L141.267 64.822C141.294 63.9946 141.321 63.1781 141.343 62.3342H141.968L134.356 62.4712ZM134.356 62.4712H133.584H131.995H127.238H122.443H117.868H117.626C117.626 62.7835 117.626 63.1013 117.626 63.4137C117.626 63.7699 117.626 64.1261 117.626 64.4768L117.774 64.6193C117.725 64.6741 117.676 64.7179 117.626 64.7672V64.9809C119.227 64.9809 120.832 64.9809 122.427 64.9809H122.838H127.222L131.962 64.9426L136.647 64.8878L141.267 64.822C141.294 63.9946 141.321 63.1781 141.343 62.3342H141.968L134.356 62.4712ZM134.356 62.4712H133.584H131.995H127.238H122.443H117.868H117.626C117.626 62.7835 117.626 63.1013 117.626 63.4137C117.626 63.7699 117.626 64.1261 117.626 64.4768L117.774 64.6193C117.725 64.6741 117.676 64.7179 117.626 64.7672V64.9809C119.227 64.9809 120.832 64.9809 122.427 64.9809H122.838H127.222L131.962 64.9426L136.647 64.8878L141.267 64.822C141.294 63.9946 141.321 63.1781 141.343 62.3342H141.968L134.356 62.4712ZM134.356 62.4712H133.584H131.995H127.238H122.443H117.868H117.626C117.626 62.7835 117.626 63.1013 117.626 63.4137C117.626 63.7699 117.626 64.1261 117.626 64.4768L117.774 64.6193C117.725 64.6741 117.676 64.7179 117.626 64.7672V64.9809C119.227 64.9809 120.832 64.9809 122.427 64.9809H122.838H127.222L131.962 64.9426L136.647 64.8878L141.267 64.822C141.294 63.9946 141.321 63.1781 141.343 62.3342H141.968L134.356 62.4712ZM134.356 62.4712H133.584H131.995H127.238H122.443H117.868H117.626C117.626 62.7835 117.626 63.1013 117.626 63.4137C117.626 63.7699 117.626 64.1261 117.626 64.4768L117.774 64.6193L117.621 64.7672V64.9864C119.221 64.9864 120.827 64.9864 122.421 64.9864H122.832H127.216L131.956 64.9481L136.642 64.8933L141.261 64.8275C141.289 64 141.316 63.1835 141.338 62.3396H141.963L134.356 62.4712ZM134.356 62.4712H133.584H131.995H127.238H122.443H117.868H117.626C117.626 62.7835 117.626 63.1013 117.626 63.4137C117.626 63.7699 117.626 64.1261 117.626 64.4768L117.774 64.6193L117.621 64.7672V64.9864C119.221 64.9864 120.827 64.9864 122.421 64.9864H122.832H127.216L131.956 64.9481L136.642 64.8933L141.261 64.8275C141.289 64 141.316 63.1835 141.338 62.3396H141.963L134.356 62.4712ZM141.327 62.3944H141.952L134.356 62.4821H133.584H131.995H127.238H122.443H117.868H117.626C117.626 62.7945 117.626 63.1123 117.626 63.4246C117.626 63.7808 117.626 64.137 117.626 64.4877L117.774 64.6302L117.621 64.7782V64.9974H116.344V66.0331C116.344 74.1816 116.344 81.8973 116.3 88.3964C124.356 88.3964 132.406 88.2046 140.088 87.8484C140.483 84.829 140.828 81.552 141.108 78.0888C141.168 77.3325 141.228 76.5708 141.283 75.7982C141.541 72.2637 141.738 68.5702 141.875 64.7891H141.25C141.278 64.0548 141.305 63.2274 141.327 62.3944V62.3944ZM141.984 41.9381C141.984 41.5655 141.984 41.1928 141.957 40.8421C141.913 39.5051 141.869 38.1844 141.815 36.8747C133.595 36.6994 124.98 36.6062 116.339 36.6007C116.339 44.5739 116.339 53.0403 116.339 61.2601V62.5862H116.569C116.671 62.5917 116.774 62.5917 116.876 62.5862H117.117H121.693H126.487H131.244H132.833H133.606L141.201 62.4986C142.149 55.6323 142.16 48.6729 141.984 41.9381V41.9381ZM134.356 62.4712H133.584H131.995H127.238H122.443H117.868H117.626C117.626 62.7835 117.626 63.1013 117.626 63.4137C117.626 63.7699 117.626 64.1261 117.626 64.4768L117.774 64.6193L117.621 64.7672V64.9864C119.221 64.9864 120.827 64.9864 122.421 64.9864H122.832H127.216L131.956 64.9481L136.642 64.8933L141.261 64.8275C141.289 64 141.316 63.1835 141.338 62.3396H141.963L134.356 62.4712ZM134.356 62.4712H133.584H131.995H127.238H122.443H117.868H117.626C117.626 62.7835 117.626 63.1013 117.626 63.4137C117.626 63.7699 117.626 64.1261 117.626 64.4768L117.774 64.6193L117.621 64.7672V64.9864C119.221 64.9864 120.827 64.9864 122.421 64.9864H122.832H127.216L131.956 64.9481L136.642 64.8933L141.261 64.8275C141.289 64 141.316 63.1835 141.338 62.3396H141.963L134.356 62.4712ZM134.356 62.4712H133.584H131.995H127.238H122.443H117.868H117.626C117.626 62.7835 117.626 63.1013 117.626 63.4137C117.626 63.7699 117.626 64.1261 117.626 64.4768L117.774 64.6193L117.621 64.7672V64.9864C119.221 64.9864 120.827 64.9864 122.421 64.9864H122.832H127.216L131.956 64.9481L136.642 64.8933L141.261 64.8275C141.289 64 141.316 63.1835 141.338 62.3396H141.963L134.356 62.4712ZM134.356 62.4712H133.584H131.995H127.238H122.443H117.868H117.626C117.626 62.7835 117.626 63.1013 117.626 63.4137C117.626 63.7699 117.626 64.1261 117.626 64.4768L117.774 64.6193C117.725 64.6741 117.676 64.7179 117.626 64.7672V64.9809C119.227 64.9809 120.832 64.9809 122.427 64.9809H122.838H127.222L131.962 64.9426L136.647 64.8878L141.267 64.822C141.294 63.9946 141.321 63.1781 141.343 62.3342H141.968L134.356 62.4712ZM134.356 62.4712H133.584H131.995H127.238H122.443H117.868H117.626C117.626 62.7835 117.626 63.1013 117.626 63.4137C117.626 63.7699 117.626 64.1261 117.626 64.4768L117.774 64.6193C117.725 64.6741 117.676 64.7179 117.626 64.7672V64.9809C119.227 64.9809 120.832 64.9809 122.427 64.9809H122.838H127.222L131.962 64.9426L136.647 64.8878L141.267 64.822C141.294 63.9946 141.321 63.1781 141.343 62.3342H141.968L134.356 62.4712ZM134.356 62.4712H133.584H131.995H127.238H122.443H117.868H117.626C117.626 62.7835 117.626 63.1013 117.626 63.4137C117.626 63.7699 117.626 64.1261 117.626 64.4768L117.774 64.6193C117.725 64.6741 117.676 64.7179 117.626 64.7672V64.9809C119.227 64.9809 120.832 64.9809 122.427 64.9809H122.838H127.222L131.962 64.9426L136.647 64.8878L141.267 64.822C141.294 63.9946 141.321 63.1781 141.343 62.3342H141.968L134.356 62.4712ZM134.356 62.4712H133.584H131.995H127.238H122.443H117.868H117.626C117.626 62.7835 117.626 63.1013 117.626 63.4137C117.626 63.7699 117.626 64.1261 117.626 64.4768L117.774 64.6193C117.725 64.6741 117.676 64.7179 117.626 64.7672V64.9809C119.227 64.9809 120.832 64.9809 122.427 64.9809H122.838H127.222L131.962 64.9426L136.647 64.8878L141.267 64.822C141.294 63.9946 141.321 63.1781 141.343 62.3342H141.968L134.356 62.4712ZM134.356 62.4712H133.584H131.995H127.238H122.443H117.868H117.626C117.626 62.7835 117.626 63.1013 117.626 63.4137C117.626 63.7699 117.626 64.1261 117.626 64.4768L117.774 64.6193C117.725 64.6741 117.676 64.7179 117.626 64.7672V64.9809C119.227 64.9809 120.832 64.9809 122.427 64.9809H122.838H127.222L131.962 64.9426L136.647 64.8878L141.267 64.822C141.294 63.9946 141.321 63.1781 141.343 62.3342H141.968L134.356 62.4712ZM134.356 62.4712H133.584H131.995H127.238H122.443H117.868H117.626C117.626 62.7835 117.626 63.1013 117.626 63.4137C117.626 63.7699 117.626 64.1261 117.626 64.4768L117.774 64.6193C117.725 64.6741 117.676 64.7179 117.626 64.7672V64.9809C119.227 64.9809 120.832 64.9809 122.427 64.9809H122.838H127.222L131.962 64.9426L136.647 64.8878L141.267 64.822C141.294 63.9946 141.321 63.1781 141.343 62.3342H141.968L134.356 62.4712ZM134.356 62.4712H133.584H131.995H127.238H122.443H117.868H117.626C117.626 62.7835 117.626 63.1013 117.626 63.4137C117.626 63.7699 117.626 64.1261 117.626 64.4768L117.774 64.6193C117.725 64.6741 117.676 64.7179 117.626 64.7672V64.9809C119.227 64.9809 120.832 64.9809 122.427 64.9809H122.838H127.222L131.962 64.9426L136.647 64.8878L141.267 64.822C141.294 63.9946 141.321 63.1781 141.343 62.3342H141.968L134.356 62.4712ZM166.556 63.0191L166.458 61.8574H166.397C160.161 62.0656 153.174 62.23 145.771 62.3451H144.352C144.352 61.8574 144.385 61.3642 144.396 60.871C144.615 52.8924 144.549 44.6726 144.198 36.9076H145.124L147.399 36.9679L152.33 37.1158C151.6 36.535 150.849 35.987 150.078 35.4719L150.007 35.3513C149.64 35.1047 149.273 34.8636 148.911 34.6335H148.801L146.396 34.5567L144.105 34.4965C144.061 33.68 144.017 32.8525 143.968 32.0689C143.168 31.7036 142.353 31.3784 141.524 31.0935C141.59 32.1894 141.65 33.3037 141.705 34.4362C133.535 34.2334 124.942 34.1293 116.339 34.1238C116.339 33.0279 116.339 31.9319 116.339 30.8359C115.484 31.1209 114.64 31.4442 113.812 31.7894C113.812 32.5566 113.812 33.3238 113.812 34.1019H109.187C107.908 34.8555 106.675 35.6844 105.494 36.5843C108.234 36.5843 111.029 36.5514 113.807 36.5459C113.78 44.9466 113.774 53.9006 113.807 62.5095C106.201 62.5095 98.6278 62.4547 91.3396 62.3616H90.6655C90.5614 63.1781 90.4902 64.0055 90.4409 64.8439C90.7642 64.8439 91.093 64.8439 91.4218 64.8439C95.5591 64.9097 99.795 64.959 104.086 64.9864H105.565H108.075H110.546H113.791C113.791 73.5186 113.862 81.6123 113.928 88.3799C108.135 88.3799 102.354 88.2484 96.7263 88.0457C97.1701 88.7252 97.6359 89.3882 98.1346 90.0349C103.319 90.2212 108.623 90.3198 113.933 90.3363C113.988 95.2681 114.059 99.3726 114.141 102.282V102.447C114.821 102.728 115.511 102.986 116.213 103.219V103.137C116.246 100.205 116.267 95.7997 116.284 90.4185C124.246 90.4185 132.203 90.2212 139.803 89.8705C139.61 91.1966 139.402 92.4588 139.179 93.6571C139.113 94.0406 139.042 94.4133 138.971 94.7804C138.17 98.8903 137.211 102.162 136.099 104.25C131.682 104.491 127.161 104.655 122.613 104.726C124.569 105.031 126.546 105.183 128.526 105.181C131.352 105.185 134.17 104.873 136.927 104.25L137.354 104.151L138.105 103.97C139.716 101.066 141.031 96.0572 142.039 89.7499C148.462 89.3992 154.599 88.917 160.238 88.3087H160.369C160.797 87.6676 161.208 87.0155 161.597 86.3469H161.471C155.575 86.9771 149.114 87.4429 142.33 87.821C143.363 80.1866 144.012 72.5051 144.275 64.8056C151.837 64.6631 158.983 64.4658 165.378 64.2083H165.86L166.649 64.1754C166.627 63.7863 166.595 63.3918 166.556 62.9917V63.0191Z" fill="#272727"/>
<path opacity="0.8" d="M134.356 62.4712H133.584H131.995H127.238H122.443H117.868H117.626C117.626 62.7835 117.626 63.1013 117.626 63.4137C117.626 63.7699 117.626 64.1261 117.626 64.4768L117.774 64.6193C117.725 64.6741 117.676 64.7179 117.626 64.7672V64.9809C119.227 64.9809 120.832 64.9809 122.427 64.9809H122.838H127.222L131.962 64.9426L136.647 64.8878L141.267 64.822C141.294 63.9946 141.321 63.1781 141.343 62.3342H141.968L134.356 62.4712ZM166.737 65.7591C166.737 65.6276 166.737 65.4906 166.737 65.359C166.737 65.5125 166.71 65.6659 166.699 65.8194C166.392 69.7429 165.953 73.5624 165.383 77.1791C166.307 73.8529 166.773 70.4166 166.77 66.9646C166.759 66.5591 166.753 66.1591 166.737 65.7591ZM134.356 62.4712H133.584H131.995H127.238H122.443H117.868H117.626C117.626 62.7835 117.626 63.1013 117.626 63.4137C117.626 63.7699 117.626 64.1261 117.626 64.4768L117.774 64.6193C117.725 64.6741 117.676 64.7179 117.626 64.7672V64.9809C119.227 64.9809 120.832 64.9809 122.427 64.9809H122.838H127.222L131.962 64.9426L136.647 64.8878L141.267 64.822C141.294 63.9946 141.321 63.1781 141.343 62.3342H141.968L134.356 62.4712ZM134.356 62.4712H133.584H131.995H127.238H122.443H117.868H117.626C117.626 62.7835 117.626 63.1013 117.626 63.4137C117.626 63.7699 117.626 64.1261 117.626 64.4768L117.774 64.6193C117.725 64.6741 117.676 64.7179 117.626 64.7672V64.9809C119.227 64.9809 120.832 64.9809 122.427 64.9809H122.838H127.222L131.962 64.9426L136.647 64.8878L141.267 64.822C141.294 63.9946 141.321 63.1781 141.343 62.3342H141.968L134.356 62.4712ZM134.356 62.4712H133.584H131.995H127.238H122.443H117.868H117.626C117.626 62.7835 117.626 63.1013 117.626 63.4137C117.626 63.7699 117.626 64.1261 117.626 64.4768L117.774 64.6193C117.725 64.6741 117.676 64.7179 117.626 64.7672V64.9809C119.227 64.9809 120.832 64.9809 122.427 64.9809H122.838H127.222L131.962 64.9426L136.647 64.8878L141.267 64.822C141.294 63.9946 141.321 63.1781 141.343 62.3342H141.968L134.356 62.4712ZM134.356 62.4712H133.584H131.995H127.238H122.443H117.868H117.626C117.626 62.7835 117.626 63.1013 117.626 63.4137C117.626 63.7699 117.626 64.1261 117.626 64.4768L117.774 64.6193C117.725 64.6741 117.676 64.7179 117.626 64.7672V64.9809C119.227 64.9809 120.832 64.9809 122.427 64.9809H122.838H127.222L131.962 64.9426L136.647 64.8878L141.267 64.822C141.294 63.9946 141.321 63.1781 141.343 62.3342H141.968L134.356 62.4712ZM134.356 62.4712H133.584H131.995H127.238H122.443H117.868H117.626C117.626 62.7835 117.626 63.1013 117.626 63.4137C117.626 63.7699 117.626 64.1261 117.626 64.4768L117.774 64.6193C117.725 64.6741 117.676 64.7179 117.626 64.7672V64.9809C119.227 64.9809 120.832 64.9809 122.427 64.9809H122.838H127.222L131.962 64.9426L136.647 64.8878L141.267 64.822C141.294 63.9946 141.321 63.1781 141.343 62.3342H141.968L134.356 62.4712ZM134.356 62.4712H133.584H131.995H127.238H122.443H117.868H117.626C117.626 62.7835 117.626 63.1013 117.626 63.4137C117.626 63.7699 117.626 64.1261 117.626 64.4768L117.774 64.6193C117.725 64.6741 117.676 64.7179 117.626 64.7672V64.9809C119.227 64.9809 120.832 64.9809 122.427 64.9809H122.838H127.222L131.962 64.9426L136.647 64.8878L141.267 64.822C141.294 63.9946 141.321 63.1781 141.343 62.3342H141.968L134.356 62.4712ZM134.356 62.4712H133.584H131.995H127.238H122.443H117.868H117.626C117.626 62.7835 117.626 63.1013 117.626 63.4137C117.626 63.7699 117.626 64.1261 117.626 64.4768L117.774 64.6193C117.725 64.6741 117.676 64.7179 117.626 64.7672V64.9809C119.227 64.9809 120.832 64.9809 122.427 64.9809H122.838H127.222L131.962 64.9426L136.647 64.8878L141.267 64.822C141.294 63.9946 141.321 63.1781 141.343 62.3342H141.968L134.356 62.4712ZM134.356 62.4712H133.584H131.995H127.238H122.443H117.868H117.626C117.626 62.7835 117.626 63.1013 117.626 63.4137C117.626 63.7699 117.626 64.1261 117.626 64.4768L117.774 64.6193L117.621 64.7672V64.9864C119.221 64.9864 120.827 64.9864 122.421 64.9864H122.832H127.216L131.956 64.9481L136.642 64.8933L141.261 64.8275C141.289 64 141.316 63.1835 141.338 62.3396H141.963L134.356 62.4712ZM134.356 62.4712H133.584H131.995H127.238H122.443H117.868H117.626C117.626 62.7835 117.626 63.1013 117.626 63.4137C117.626 63.7699 117.626 64.1261 117.626 64.4768L117.774 64.6193L117.621 64.7672V64.9864C119.221 64.9864 120.827 64.9864 122.421 64.9864H122.832H127.216L131.956 64.9481L136.642 64.8933L141.261 64.8275C141.289 64 141.316 63.1835 141.338 62.3396H141.963L134.356 62.4712ZM134.356 62.4712H133.584H131.995H127.238H122.443H117.868H117.626C117.626 62.7835 117.626 63.1013 117.626 63.4137C117.626 63.7699 117.626 64.1261 117.626 64.4768L117.774 64.6193L117.621 64.7672V64.9864C119.221 64.9864 120.827 64.9864 122.421 64.9864H122.832H127.216L131.956 64.9481L136.642 64.8933L141.261 64.8275C141.289 64 141.316 63.1835 141.338 62.3396H141.963L134.356 62.4712ZM134.356 62.4712H133.584H131.995H127.238H122.443H117.868H117.626C117.626 62.7835 117.626 63.1013 117.626 63.4137C117.626 63.7699 117.626 64.1261 117.626 64.4768L117.774 64.6193L117.621 64.7672V64.9864C119.221 64.9864 120.827 64.9864 122.421 64.9864H122.832H127.216L131.956 64.9481L136.642 64.8933L141.261 64.8275C141.289 64 141.316 63.1835 141.338 62.3396H141.963L134.356 62.4712ZM134.356 62.4712H133.584H131.995H127.238H122.443H117.868H117.626C117.626 62.7835 117.626 63.1013 117.626 63.4137C117.626 63.7699 117.626 64.1261 117.626 64.4768L117.774 64.6193L117.621 64.7672V64.9864C119.221 64.9864 120.827 64.9864 122.421 64.9864H122.832H127.216L131.956 64.9481L136.642 64.8933L141.261 64.8275C141.289 64 141.316 63.1835 141.338 62.3396H141.963L134.356 62.4712ZM134.356 62.4712H133.584H131.995H127.238H122.443H117.868H117.626C117.626 62.7835 117.626 63.1013 117.626 63.4137C117.626 63.7699 117.626 64.1261 117.626 64.4768L117.774 64.6193L117.621 64.7672V64.9864C119.221 64.9864 120.827 64.9864 122.421 64.9864H122.832H127.216L131.956 64.9481L136.642 64.8933L141.261 64.8275C141.289 64 141.316 63.1835 141.338 62.3396H141.963L134.356 62.4712ZM134.356 62.4712H133.584H131.995H127.238H122.443H117.868H117.626C117.626 62.7835 117.626 63.1013 117.626 63.4137C117.626 63.7699 117.626 64.1261 117.626 64.4768L117.774 64.6193C117.725 64.6741 117.676 64.7179 117.626 64.7672V64.9809C119.227 64.9809 120.832 64.9809 122.427 64.9809H122.838H127.222L131.962 64.9426L136.647 64.8878L141.267 64.822C141.294 63.9946 141.321 63.1781 141.343 62.3342H141.968L134.356 62.4712ZM134.356 62.4712H133.584H131.995H127.238H122.443H117.868H117.626C117.626 62.7835 117.626 63.1013 117.626 63.4137C117.626 63.7699 117.626 64.1261 117.626 64.4768L117.774 64.6193C117.725 64.6741 117.676 64.7179 117.626 64.7672V64.9809C119.227 64.9809 120.832 64.9809 122.427 64.9809H122.838H127.222L131.962 64.9426L136.647 64.8878L141.267 64.822C141.294 63.9946 141.321 63.1781 141.343 62.3342H141.968L134.356 62.4712ZM134.356 62.4712H133.584H131.995H127.238H122.443H117.868H117.626C117.626 62.7835 117.626 63.1013 117.626 63.4137C117.626 63.7699 117.626 64.1261 117.626 64.4768L117.774 64.6193C117.725 64.6741 117.676 64.7179 117.626 64.7672V64.9809C119.227 64.9809 120.832 64.9809 122.427 64.9809H122.838H127.222L131.962 64.9426L136.647 64.8878L141.267 64.822C141.294 63.9946 141.321 63.1781 141.343 62.3342H141.968L134.356 62.4712ZM134.356 62.4712H133.584H131.995H127.238H122.443H117.868H117.626C117.626 62.7835 117.626 63.1013 117.626 63.4137C117.626 63.7699 117.626 64.1261 117.626 64.4768L117.774 64.6193C117.725 64.6741 117.676 64.7179 117.626 64.7672V64.9809C119.227 64.9809 120.832 64.9809 122.427 64.9809H122.838H127.222L131.962 64.9426L136.647 64.8878L141.267 64.822C141.294 63.9946 141.321 63.1781 141.343 62.3342H141.968L134.356 62.4712ZM134.356 62.4712H133.584H131.995H127.238H122.443H117.868H117.626C117.626 62.7835 117.626 63.1013 117.626 63.4137C117.626 63.7699 117.626 64.1261 117.626 64.4768L117.774 64.6193C117.725 64.6741 117.676 64.7179 117.626 64.7672V64.9809C119.227 64.9809 120.832 64.9809 122.427 64.9809H122.838H127.222L131.962 64.9426L136.647 64.8878L141.267 64.822C141.294 63.9946 141.321 63.1781 141.343 62.3342H141.968L134.356 62.4712ZM134.356 62.4712H133.584H131.995H127.238H122.443H117.868H117.626C117.626 62.7835 117.626 63.1013 117.626 63.4137C117.626 63.7699 117.626 64.1261 117.626 64.4768L117.774 64.6193C117.725 64.6741 117.676 64.7179 117.626 64.7672V64.9809C119.227 64.9809 120.832 64.9809 122.427 64.9809H122.838H127.222L131.962 64.9426L136.647 64.8878L141.267 64.822C141.294 63.9946 141.321 63.1781 141.343 62.3342H141.968L134.356 62.4712ZM134.356 62.4712H133.584H131.995H127.238H122.443H117.868H117.626C117.626 62.7835 117.626 63.1013 117.626 63.4137C117.626 63.7699 117.626 64.1261 117.626 64.4768L117.774 64.6193C117.725 64.6741 117.676 64.7179 117.626 64.7672V64.9809C119.227 64.9809 120.832 64.9809 122.427 64.9809H122.838H127.222L131.962 64.9426L136.647 64.8878L141.267 64.822C141.294 63.9946 141.321 63.1781 141.343 62.3342H141.968L134.356 62.4712ZM166.556 63.0191L166.458 61.8574H166.397C160.161 62.0656 153.174 62.23 145.771 62.3451H144.352C144.352 61.8574 144.385 61.3642 144.396 60.871C144.615 52.8924 144.549 44.6726 144.198 36.9076H145.124L147.399 36.9679L152.33 37.1158C151.6 36.535 150.849 35.987 150.078 35.4719L150.007 35.3513C149.64 35.1047 149.273 34.8636 148.911 34.6335H148.801L146.396 34.5567L144.105 34.4965C144.061 33.68 144.017 32.8525 143.968 32.0689C143.168 31.7036 142.353 31.3784 141.524 31.0935C141.59 32.1894 141.65 33.3037 141.705 34.4362C133.535 34.2334 124.942 34.1293 116.339 34.1238C116.339 33.0279 116.339 31.9319 116.339 30.8359C115.484 31.1209 114.64 31.4442 113.812 31.7894C113.812 32.5566 113.812 33.3238 113.812 34.1019H109.187C107.908 34.8555 106.675 35.6844 105.494 36.5843C108.234 36.5843 111.029 36.5514 113.807 36.5459C113.78 44.9466 113.774 53.9006 113.807 62.5095C106.201 62.5095 98.6278 62.4547 91.3396 62.3616H90.6655C90.5614 63.1781 90.4902 64.0055 90.4409 64.8439C90.7642 64.8439 91.093 64.8439 91.4218 64.8439C95.5591 64.9097 99.795 64.959 104.086 64.9864H105.565H108.075H110.546H113.791C113.791 73.5186 113.862 81.6123 113.928 88.3799C108.135 88.3799 102.354 88.2484 96.7263 88.0457C97.1701 88.7252 97.6359 89.3882 98.1346 90.0349C103.319 90.2212 108.623 90.3198 113.933 90.3363C113.988 95.2681 114.059 99.3726 114.141 102.282V102.447C114.821 102.728 115.511 102.986 116.213 103.219V103.137C116.246 100.205 116.267 95.7997 116.284 90.4185C124.246 90.4185 132.203 90.2212 139.803 89.8705C139.61 91.1966 139.402 92.4588 139.179 93.6571C139.113 94.0406 139.042 94.4133 138.971 94.7804C138.17 98.8903 137.211 102.162 136.099 104.25C131.682 104.491 127.161 104.655 122.613 104.726C124.569 105.031 126.546 105.183 128.526 105.181C131.352 105.185 134.17 104.873 136.927 104.25L137.354 104.151L138.105 103.97C139.716 101.066 141.031 96.0572 142.039 89.7499C148.462 89.3992 154.599 88.917 160.238 88.3087H160.369C160.797 87.6676 161.208 87.0155 161.597 86.3469H161.471C155.575 86.9771 149.114 87.4429 142.33 87.821C143.363 80.1866 144.012 72.5051 144.275 64.8056C151.837 64.6631 158.983 64.4658 165.378 64.2083H165.86L166.649 64.1754C166.627 63.7863 166.595 63.3918 166.556 62.9917V63.0191ZM141.283 75.8968C141.228 76.6695 141.168 77.4312 141.108 78.1874C140.828 81.6507 140.483 84.9276 140.088 87.947C132.417 88.3087 124.356 88.495 116.3 88.495C116.3 81.9959 116.333 74.2803 116.344 66.1317V65.096H117.626C119.227 65.096 120.832 65.096 122.427 65.096H122.838H127.222L131.962 65.0577L136.647 65.0029L141.267 64.9371H141.891C141.738 68.6524 141.541 72.3459 141.283 75.8804V75.8968ZM141.952 62.3999L134.356 62.4876H133.584H131.995H127.238H122.443H117.868H117.626C117.524 62.4931 117.422 62.4931 117.32 62.4876H117.078V61.1615C117.078 52.9417 117.078 44.4917 117.078 36.5021C125.72 36.5021 134.351 36.6007 142.554 36.7761C142.609 38.0858 142.653 39.4064 142.697 40.7435C142.697 41.1107 142.697 41.4833 142.724 41.8395C142.16 48.6729 142.149 55.6323 141.952 62.3835V62.3999Z" fill="white"/>
<path d="M141.875 64.8713C141.738 68.6524 141.541 72.3459 141.283 75.8804C141.228 76.653 141.168 77.4147 141.108 78.171C140.828 81.6342 140.483 84.9112 140.088 87.9306C132.417 88.2923 124.356 88.4786 116.3 88.4786C116.3 81.9795 116.333 74.2638 116.344 66.1153V65.0796H117.626C119.227 65.0796 120.832 65.0796 122.427 65.0796H122.838H127.222L131.962 65.0412L136.647 64.9864L141.267 64.9207L141.875 64.8713Z" fill="#272727"/>
<path d="M141.952 62.3835L134.356 62.4712H133.584H131.995H127.238H122.443H117.868H117.626C117.524 62.4766 117.422 62.4766 117.32 62.4712H117.078V61.145C117.078 52.9252 117.078 44.4753 117.078 36.4857C125.72 36.4857 134.351 36.5843 142.554 36.7596C142.609 38.0693 142.653 39.39 142.697 40.7271C142.697 41.0942 142.697 41.4669 142.724 41.823C142.16 48.6729 142.149 55.6323 141.952 62.3835Z" fill="#272727"/>
<path d="M116.218 64.7124L114.152 62.926L116.218 61.1286L118.284 62.926L116.218 64.7124Z" fill="#263238"/>
<path d="M150.117 35.4828L150.045 35.3623C149.678 35.1157 149.311 34.8746 148.949 34.6444C148.588 34.4143 148.21 34.1786 147.853 33.9649H147.788L146.451 34.5129L145.979 34.7156L144.363 36.1733L145.174 36.8857L146.363 37.9378L147.459 36.946L147.689 36.7377L150.27 35.6417L150.117 35.4828ZM141.957 40.8257L140.576 39.6037C139.305 40.7508 138.01 41.9089 136.691 43.0779L138.724 44.9082L141.984 41.9655L142.593 41.4175L141.957 40.8257ZM132.702 46.6289L128.636 50.2346L130.685 52.0485C132.051 50.8429 133.405 49.641 134.746 48.4427L132.702 46.6289ZM124.515 53.8678L120.366 57.5119L122.427 59.3202L126.57 55.6871L124.515 53.8678Z" fill="#263238"/>
<g opacity="0.5">
<path opacity="0.5" d="M158.084 48.4208H155.931L153.794 50.7114L155.399 52.4649C155.892 51.9169 156.38 51.369 156.862 50.8648H158.084C158.101 50.0538 158.095 49.2373 158.084 48.4208ZM150.725 54.0212C149.68 55.1172 148.619 56.2333 147.541 57.3694C148.096 57.9539 148.644 58.5366 149.185 59.1175C150.259 57.9996 151.317 56.8854 152.358 55.7748C151.81 55.1939 151.273 54.6076 150.725 54.0212ZM122.443 62.5424C122.443 63.3863 122.443 64.2302 122.443 65.0686H122.854H127.238C127.238 64.2357 127.238 63.3918 127.271 62.5479L122.443 62.5424ZM134.356 62.4712H133.584H131.995C131.995 63.3151 131.962 64.148 131.945 64.9809L136.631 64.9261C136.658 64.0987 136.68 63.2822 136.696 62.4273L134.356 62.4712ZM145.793 62.3287L144.418 60.8765L144.281 60.734C143.733 61.282 143.185 61.83 142.664 62.378H141.952H141.327C141.327 63.2109 141.278 64.022 141.25 64.8659H141.875L143.579 64.8385L145.924 62.4657L145.793 62.3287Z" fill="black"/>
<path opacity="0.5" d="M117.626 65.0851H115.067V62.5534H117.626C117.626 63.4027 117.626 64.2412 117.626 65.0851Z" fill="black"/>
<g opacity="0.2">
<path opacity="0.2" d="M158.084 48.4208H155.931L153.794 50.7114L155.399 52.4649C155.892 51.9169 156.38 51.369 156.862 50.8648H158.084C158.101 50.0538 158.095 49.2373 158.084 48.4208ZM150.725 54.0212C149.68 55.1172 148.619 56.2333 147.541 57.3694C148.096 57.9539 148.644 58.5366 149.185 59.1175C150.259 57.9996 151.317 56.8854 152.358 55.7748C151.81 55.1939 151.273 54.6076 150.725 54.0212ZM122.443 62.5424C122.443 63.3863 122.443 64.2302 122.443 65.0686H122.854H127.238C127.238 64.2357 127.238 63.3918 127.271 62.5479L122.443 62.5424ZM134.356 62.4712H133.584H131.995C131.995 63.3151 131.962 64.148 131.945 64.9809L136.631 64.9261C136.658 64.0987 136.68 63.2822 136.696 62.4273L134.356 62.4712ZM145.793 62.3287L144.418 60.8765L144.281 60.734C143.733 61.282 143.185 61.83 142.664 62.378H141.952H141.327C141.327 63.2109 141.278 64.022 141.25 64.8659H141.875L143.579 64.8385L145.924 62.4657L145.793 62.3287Z" fill="black"/>
<path opacity="0.2" d="M117.626 65.0851H115.067V62.5534H117.626C117.626 63.4027 117.626 64.2412 117.626 65.0851Z" fill="black"/>
</g>
</g>
<g opacity="0.3">
<path opacity="0.3" d="M115.983 66.4934L114.174 64.7124L115.983 62.926L117.791 64.7124L115.983 66.4934Z" fill="black"/>
<path opacity="0.3" d="M166.726 65.3591C166.726 65.3262 166.726 65.2933 166.726 65.2604L165.849 64.2083C165.778 64.1206 165.707 64.0275 165.63 63.9398L165.367 64.2302C164.386 65.3262 163.378 66.4222 162.359 67.5181C162.808 68.0661 163.246 68.5648 163.679 69.0854C164.693 67.9894 165.696 66.8934 166.666 65.7974C166.685 65.7802 166.702 65.7598 166.715 65.7372C166.737 65.6276 166.732 65.4906 166.726 65.3591ZM121.495 68.373L119.687 70.1265C120.914 71.3212 122.131 72.5011 123.336 73.6665L125.145 71.9513C123.939 70.775 122.723 69.5822 121.495 68.373ZM158.978 71.0746C157.823 72.2619 156.643 73.44 155.438 74.6091C155.898 75.1132 156.347 75.6174 156.791 76.116C157.975 74.9543 159.142 73.7871 160.293 72.6144L158.978 71.0746ZM129.474 76.1434L128.701 75.3927L126.898 77.075L128.362 78.4724L132.312 78.4011C132.351 77.6394 132.389 76.8668 132.428 76.0886L129.474 76.1434ZM141.283 75.8585C140.023 75.9023 138.746 75.9407 137.447 75.9736C137.398 76.7462 137.348 77.5134 137.294 78.2696C138.569 78.2367 139.833 78.1966 141.086 78.1491L142.215 78.1107C142.28 77.3545 142.341 76.5928 142.401 75.8256C142.045 75.8585 141.667 75.8749 141.283 75.8804V75.8585ZM147.267 75.6448C147.201 76.4119 147.13 77.1682 147.053 77.9134C148.637 77.8477 150.204 77.771 151.744 77.6888C151.826 76.9435 151.908 76.1928 151.985 75.4365C150.434 75.5352 148.862 75.5954 147.267 75.6667V75.6448Z" fill="black"/>
<g opacity="0.3">
<path opacity="0.3" d="M115.983 66.4934L114.174 64.7124L115.983 62.926L117.791 64.7124L115.983 66.4934Z" fill="black"/>
<path opacity="0.3" d="M166.726 65.3591C166.726 65.3262 166.726 65.2933 166.726 65.2604L165.849 64.2083C165.778 64.1206 165.707 64.0275 165.63 63.9398L165.367 64.2302C164.386 65.3262 163.378 66.4222 162.359 67.5181C162.808 68.0661 163.246 68.5648 163.679 69.0854C164.693 67.9894 165.696 66.8934 166.666 65.7974C166.685 65.7802 166.702 65.7598 166.715 65.7372C166.737 65.6276 166.732 65.4906 166.726 65.3591ZM121.495 68.373L119.687 70.1265C120.914 71.3212 122.131 72.5011 123.336 73.6665L125.145 71.9513C123.939 70.775 122.723 69.5822 121.495 68.373ZM158.978 71.0746C157.823 72.2619 156.643 73.44 155.438 74.6091C155.898 75.1132 156.347 75.6174 156.791 76.116C157.975 74.9543 159.142 73.7871 160.293 72.6144L158.978 71.0746ZM129.474 76.1434L128.701 75.3927L126.898 77.075L128.362 78.4724L132.312 78.4011C132.351 77.6394 132.389 76.8668 132.428 76.0886L129.474 76.1434ZM141.283 75.8585C140.023 75.9023 138.746 75.9407 137.447 75.9736C137.398 76.7462 137.348 77.5134 137.294 78.2696C138.569 78.2367 139.833 78.1966 141.086 78.1491L142.215 78.1107C142.28 77.3545 142.341 76.5928 142.401 75.8256C142.045 75.8585 141.667 75.8749 141.283 75.8804V75.8585ZM147.267 75.6448C147.201 76.4119 147.13 77.1682 147.053 77.9134C148.637 77.8477 150.204 77.771 151.744 77.6888C151.826 76.9435 151.908 76.1928 151.985 75.4365C150.434 75.5352 148.862 75.5954 147.267 75.6667V75.6448Z" fill="black"/>
</g>
</g>
<path d="M139.908 96.8956C139.787 97.4162 139.656 97.9094 139.524 98.3917V98.4958L139.392 98.9725C139.228 99.5534 139.064 100.107 138.888 100.616C138.855 100.693 138.834 100.77 138.806 100.847L138.708 101.132C138.68 101.225 138.642 101.318 138.609 101.411C138.566 101.545 138.517 101.677 138.461 101.806C138.231 102.414 137.995 102.967 137.749 103.45C137.65 103.658 137.546 103.855 137.442 104.047L137.392 104.118L136.965 104.217C134.208 104.84 131.39 105.152 128.564 105.148C126.585 105.15 124.608 104.998 122.652 104.694C121.417 104.504 120.194 104.251 118.985 103.937C118.985 103.751 118.985 103.559 119.024 103.356C119.062 103.154 119.057 102.841 119.073 102.567C119.09 102.293 119.106 102.019 119.122 101.712C119.139 101.406 119.155 101.11 119.166 100.792C119.166 100.633 119.166 100.474 119.166 100.31C119.205 99.4548 119.243 98.5286 119.281 97.5368C119.325 96.0353 121.166 94.6489 123.391 94.616C127.879 94.5393 132.323 94.4023 136.674 94.1996C137.484 94.1328 138.294 94.3247 138.987 94.7475C139.357 94.9527 139.648 95.2752 139.815 95.664C139.982 96.0529 140.014 96.4862 139.908 96.8956V96.8956Z" fill="#272727"/>
<g opacity="0.3">
<path opacity="0.3" d="M139.908 96.8956C139.787 97.4162 139.656 97.9094 139.524 98.3917V98.4958L139.392 98.9725C139.228 99.5534 139.064 100.107 138.888 100.616C138.855 100.693 138.834 100.77 138.806 100.847L138.708 101.132C138.68 101.225 138.642 101.318 138.609 101.411C138.566 101.545 138.517 101.677 138.461 101.806C138.231 102.414 137.995 102.967 137.749 103.45C137.65 103.658 137.546 103.855 137.442 104.047L137.392 104.118L136.965 104.217C134.208 104.84 131.39 105.152 128.564 105.148C126.585 105.15 124.608 104.998 122.652 104.694C121.417 104.504 120.194 104.251 118.985 103.937C118.985 103.751 118.985 103.559 119.024 103.356C119.062 103.154 119.057 102.841 119.073 102.567C119.09 102.293 119.106 102.019 119.122 101.712C119.139 101.406 119.155 101.11 119.166 100.792C119.166 100.633 119.166 100.474 119.166 100.31C119.205 99.4548 119.243 98.5286 119.281 97.5368C119.325 96.0353 121.166 94.6489 123.391 94.616C127.879 94.5393 132.323 94.4023 136.674 94.1996C137.484 94.1328 138.294 94.3247 138.987 94.7475C139.357 94.9527 139.648 95.2752 139.815 95.664C139.982 96.0529 140.014 96.4862 139.908 96.8956V96.8956Z" fill="black"/>
</g>
<path d="M140.149 95.8709C140.072 96.2216 139.99 96.5669 139.908 96.9011C139.787 97.4217 139.656 97.9149 139.524 98.3971V98.5013L139.392 98.978C139.228 99.5589 139.064 100.112 138.888 100.622C138.828 100.797 138.773 100.967 138.708 101.137C138.642 101.307 138.642 101.323 138.609 101.417C138.566 101.55 138.517 101.682 138.461 101.811C138.231 102.419 137.995 102.973 137.749 103.455C137.563 103.778 137.292 104.043 136.965 104.222C134.208 104.845 131.39 105.158 128.564 105.154C126.585 105.155 124.608 105.003 122.652 104.699C121.417 104.509 120.194 104.257 118.985 103.943C118.985 103.756 118.985 103.565 119.024 103.362C119.062 103.159 119.057 102.847 119.073 102.573C119.09 102.299 119.106 102.025 119.122 101.718C119.139 101.411 119.155 101.115 119.166 100.797C119.166 100.638 119.166 100.479 119.166 100.315C119.205 99.4602 119.243 98.5341 119.281 97.5423C119.281 97.2025 119.292 96.8573 119.314 96.5066C119.358 94.9448 121.216 93.5091 123.463 93.4762C127.983 93.3995 132.471 93.2625 136.861 93.0597C137.677 92.9925 138.494 93.1842 139.195 93.6077V93.6077C139.579 93.8301 139.879 94.1713 140.051 94.5796C140.223 94.988 140.257 95.4413 140.149 95.8709Z" fill="#272727"/>
<g opacity="0.8">
<path opacity="0.8" d="M140.149 95.8709C140.072 96.2216 139.99 96.5669 139.908 96.9011C139.787 97.4217 139.656 97.9149 139.524 98.3971V98.5013L139.392 98.978C139.228 99.5589 139.064 100.112 138.888 100.622C138.828 100.797 138.773 100.967 138.708 101.137C138.642 101.307 138.642 101.323 138.609 101.417C138.566 101.55 138.517 101.682 138.461 101.811C138.231 102.419 137.995 102.973 137.749 103.455C137.563 103.778 137.292 104.043 136.965 104.222C134.208 104.845 131.39 105.158 128.564 105.154C126.585 105.155 124.608 105.003 122.652 104.699C121.417 104.509 120.194 104.257 118.985 103.943C118.985 103.756 118.985 103.565 119.024 103.362C119.062 103.159 119.057 102.847 119.073 102.573C119.09 102.299 119.106 102.025 119.122 101.718C119.139 101.411 119.155 101.115 119.166 100.797C119.166 100.638 119.166 100.479 119.166 100.315C119.205 99.4602 119.243 98.5341 119.281 97.5423C119.281 97.2025 119.292 96.8573 119.314 96.5066C119.358 94.9448 121.216 93.5091 123.463 93.4762C127.983 93.3995 132.471 93.2625 136.861 93.0597C137.677 92.9925 138.494 93.1842 139.195 93.6077V93.6077C139.579 93.8301 139.879 94.1713 140.051 94.5796C140.223 94.988 140.257 95.4413 140.149 95.8709Z" fill="white"/>
</g>
<path d="M128.877 102.156C129.096 101.159 129.31 100.025 129.507 98.7698C129.567 98.5194 129.555 98.257 129.472 98.0134C129.388 97.7698 129.237 97.555 129.036 97.3943C128.473 97.0284 127.801 96.8677 127.134 96.9395C126.421 96.9187 125.717 97.1093 125.112 97.4875C124.879 97.6472 124.685 97.857 124.543 98.1017C124.402 98.3464 124.317 98.6196 124.295 98.9013C124.171 100.158 124.04 101.285 123.901 102.282C123.858 102.478 123.881 102.682 123.968 102.863C124.054 103.044 124.198 103.19 124.378 103.28C124.924 103.523 125.525 103.621 126.12 103.565C126.334 103.565 126.537 103.565 126.723 103.526C126.909 103.488 127.09 103.477 127.271 103.444C127.388 103.567 127.542 103.648 127.709 103.674C127.989 103.733 128.274 103.753 128.559 103.735H128.773C128.838 103.51 128.904 103.274 128.964 103.028H128.822C128.723 103.034 128.624 103.034 128.526 103.028C128.498 103.023 128.472 103.013 128.449 102.997C128.426 102.98 128.408 102.959 128.394 102.934C128.639 102.737 128.809 102.463 128.877 102.156ZM127.808 98.7479C127.627 100.058 127.435 101.236 127.233 102.266C127.219 102.358 127.183 102.446 127.127 102.522C127.072 102.597 126.999 102.658 126.915 102.699C126.716 102.792 126.499 102.839 126.279 102.836C126.076 102.856 125.871 102.82 125.687 102.732C125.618 102.689 125.565 102.624 125.537 102.547C125.509 102.471 125.508 102.387 125.534 102.31C125.709 101.285 125.874 100.118 126.027 98.7972C126.034 98.6887 126.065 98.5832 126.118 98.4884C126.172 98.3936 126.245 98.3119 126.334 98.2492C126.537 98.1264 126.771 98.0637 127.008 98.0683C127.229 98.044 127.451 98.0963 127.638 98.2163C127.711 98.2816 127.766 98.3653 127.796 98.4588C127.826 98.5523 127.83 98.6522 127.808 98.7479Z" fill="black"/>
<path d="M135.31 97.1477C134.777 96.7869 134.128 96.6365 133.491 96.7258C132.779 96.7177 132.08 96.9218 131.485 97.3121C131.251 97.4774 131.052 97.6883 130.902 97.9322C130.751 98.1761 130.651 98.4479 130.608 98.7314C130.57 98.967 130.526 99.1972 130.488 99.4219L132.082 99.3616C132.132 99.1095 132.181 98.8574 132.23 98.5944C132.247 98.485 132.286 98.3801 132.345 98.286C132.403 98.1918 132.48 98.1104 132.57 98.0464C132.775 97.9212 133.01 97.8549 133.25 97.8546C133.463 97.8294 133.679 97.882 133.858 98.0026C133.995 98.1122 134.028 98.3368 133.962 98.6602C133.894 98.9936 133.743 99.3046 133.524 99.5643C133.299 99.8298 133.041 100.065 132.756 100.266C132.461 100.482 132.154 100.681 131.836 100.863C131.523 101.039 131.219 101.232 130.926 101.438C130.655 101.62 130.405 101.831 130.181 102.069C129.98 102.269 129.835 102.518 129.759 102.792C129.704 103.017 129.644 103.23 129.584 103.433C131.118 103.378 132.641 103.313 134.154 103.236C134.247 103 134.335 102.748 134.422 102.485C133.419 102.534 132.411 102.584 131.397 102.622C131.405 102.529 131.432 102.438 131.478 102.355C131.523 102.273 131.585 102.202 131.66 102.145C131.876 101.961 132.107 101.796 132.351 101.652C132.628 101.477 132.941 101.294 133.288 101.104C133.637 100.902 133.972 100.677 134.291 100.43C134.605 100.189 134.89 99.9108 135.14 99.6027C135.392 99.2983 135.567 98.9373 135.65 98.5506C135.737 98.3093 135.752 98.0474 135.692 97.7979C135.631 97.5483 135.498 97.3221 135.31 97.1477V97.1477Z" fill="black"/>
<path d="M115.062 62.5534V65.0851H113.791H110.546H108.075H105.565H104.086C99.795 65.0577 95.5591 65.0083 91.4218 64.9426C91.093 64.9426 90.7642 64.9426 90.4409 64.9426C90.4902 64.1096 90.5614 63.2986 90.6655 62.4602H91.3231C98.5894 62.5534 106.163 62.5972 113.791 62.6082L115.062 62.5534Z" fill="#263238"/>
<path d="M115.062 66.5591C116.548 66.5591 117.752 65.3545 117.752 63.8685C117.752 62.3825 116.548 61.1779 115.062 61.1779C113.576 61.1779 112.371 62.3825 112.371 63.8685C112.371 65.3545 113.576 66.5591 115.062 66.5591Z" fill="#263238"/>
<path opacity="0.2" d="M166.808 67.0085C166.8 76.318 163.385 85.3026 157.208 92.2678C151.031 99.2329 142.519 103.697 133.277 104.819C124.036 105.94 114.703 103.641 107.039 98.3555C99.376 93.0699 93.9114 85.1628 91.6764 76.1255C89.4414 67.0883 90.5904 57.5455 94.9067 49.2971C99.223 41.0487 106.408 34.6647 115.107 31.3492C123.807 28.0337 133.418 28.0158 142.13 31.2989C150.841 34.582 158.05 40.9392 162.397 49.1715C165.296 54.67 166.81 60.7926 166.808 67.0085V67.0085Z" fill="white"/>
<path opacity="0.2" d="M166.808 67.0085C166.808 77.1456 162.781 86.8675 155.613 94.0355C148.445 101.204 138.723 105.231 128.586 105.231L166.808 67.0085Z" fill="white"/>
<path opacity="0.2" d="M91.4272 75.9681C89.866 69.4566 90.041 62.6494 91.9347 56.2268C93.8284 49.8041 97.3745 43.9909 102.219 39.3681C107.063 34.7453 113.035 31.4747 119.539 29.8832C126.044 28.2917 132.851 28.435 139.283 30.2989L91.4272 75.9681Z" fill="white"/>
<path opacity="0.2" d="M162.397 49.1715L109.724 100.255C106.551 98.4483 103.652 96.197 101.116 93.5694L155.766 40.1407C158.41 42.8077 160.644 45.8509 162.397 49.1715V49.1715Z" fill="white"/>
<path d="M150.544 105.631L135.129 116.919H122.043L106.634 105.631H150.544Z" fill="#C9CCCD" stroke="#263238" stroke-linecap="round" stroke-linejoin="round"/>
<path d="M128.586 22.5887C118.781 22.5889 109.252 25.8328 101.483 31.815C93.7141 37.7971 88.1427 46.1813 85.6369 55.6608C83.1311 65.1402 83.8318 75.1824 87.6298 84.222C91.4278 93.2616 98.1096 100.791 106.634 105.636V105.636C112.547 108.997 119.153 110.956 125.943 111.36C132.732 111.765 139.524 110.606 145.795 107.971C152.066 105.336 157.648 101.297 162.111 96.1645C166.574 91.0319 169.799 84.943 171.537 78.3672C173.275 71.7913 173.48 64.9042 172.136 58.2366C170.793 51.569 167.936 45.299 163.786 39.9099C159.636 34.5207 154.304 30.1564 148.202 27.1534C142.099 24.1503 135.388 22.5886 128.586 22.5887V22.5887ZM128.586 105.231C121.027 105.231 113.637 102.989 107.351 98.789C101.066 94.5891 96.1666 88.6196 93.2736 81.6354C90.3807 74.6513 89.6238 66.9661 91.0986 59.5517C92.5734 52.1374 96.2137 45.3269 101.559 39.9814C106.905 34.636 113.715 30.9957 121.129 29.5209C128.544 28.0461 136.229 28.803 143.213 31.6959C150.197 34.5889 156.167 39.4879 160.367 45.7735C164.567 52.059 166.808 59.4489 166.808 67.0085C166.809 72.0281 165.821 76.9986 163.9 81.6363C161.98 86.2739 159.164 90.4878 155.615 94.0372C152.065 97.5865 147.852 100.402 143.214 102.323C138.576 104.243 133.606 105.231 128.586 105.231V105.231Z" fill="#C9CCCD" stroke="#263238" stroke-linecap="round" stroke-linejoin="round"/>
<path d="M134.543 116.919H122.043V194.766H134.543V116.919Z" fill="#263238"/>
<path d="M120.191 34.1293C122.829 33.4933 125.533 33.1733 128.246 33.1758" stroke="#263238" stroke-miterlimit="10"/>
<path d="M94.1124 67.3044C94.1115 60.744 96.0012 54.3224 99.5553 48.8081C103.109 43.2938 108.177 38.9205 114.152 36.2117" stroke="#263238" stroke-miterlimit="10"/>
<path d="M141.19 170.677C135.343 154.555 135.37 151.941 135.031 142.181C134.921 139.134 134.981 136.049 134.258 133.085C133.535 130.12 131.721 126.24 128.701 125.791C126.482 125.457 124.29 126.887 123.106 128.799C121.923 130.712 121.561 133.002 121.347 135.238C120.646 142.377 121.193 149.582 122.964 156.533C120.81 161.492 121.632 165.202 120.279 172.759V204.542H139.749C139.749 204.542 144.966 181.154 141.19 170.677Z" fill="white"/>
<path d="M140.675 204.504C140.675 204.504 144.966 181.154 141.162 170.677C135.315 154.555 135.343 151.941 135.003 142.181C134.894 139.134 134.954 136.049 134.23 133.085C133.507 130.12 131.693 126.24 128.674 125.791C126.455 125.457 124.263 126.887 123.079 128.799C121.895 130.712 121.534 133.002 121.32 135.238C120.619 142.377 121.166 149.582 122.936 156.533C120.783 161.492 121.605 165.202 120.251 172.759" stroke="#263238" stroke-linecap="round" stroke-linejoin="round"/>
<path d="M136.532 136.422C136.756 137.324 136.738 138.269 136.481 139.162C136.223 140.055 135.734 140.864 135.063 141.507" fill="white"/>
<path d="M136.532 136.422C136.756 137.324 136.738 138.269 136.481 139.162C136.223 140.055 135.734 140.864 135.063 141.507" stroke="#263238" stroke-linecap="round" stroke-linejoin="round"/>
<path d="M131.255 129.019C131.46 130.568 131.46 132.138 131.255 133.687C128.877 134.497 126.313 134.587 123.884 133.945C123.475 132.567 123.422 131.108 123.731 129.704" fill="white"/>
<path d="M131.255 129.019C131.46 130.568 131.46 132.138 131.255 133.687C128.877 134.497 126.313 134.587 123.884 133.945C123.475 132.567 123.422 131.108 123.731 129.704" stroke="#263238" stroke-linecap="round" stroke-linejoin="round"/>
<path d="M124.4 162.314C124.63 163.229 124.772 163.794 124.948 164.451Z" fill="white"/>
<path d="M124.4 162.314C124.63 163.229 124.772 163.794 124.948 164.451" stroke="#263238" stroke-linecap="round" stroke-linejoin="round"/>
<path d="M122.558 155.053C122.739 155.793 123.49 158.758 124.147 161.394Z" fill="white"/>
<path d="M122.558 155.053C122.739 155.793 123.49 158.758 124.147 161.394" stroke="#263238" stroke-linecap="round" stroke-linejoin="round"/>
<path d="M135.546 162.205C135.546 163.361 135.606 164.397 135.683 165.301Z" fill="white"/>
<path d="M135.546 162.205C135.546 163.361 135.606 164.397 135.683 165.301" stroke="#263238" stroke-linecap="round" stroke-linejoin="round"/>
<path d="M135.272 147.689C135.595 151.716 135.458 156.117 135.513 160.352Z" fill="white"/>
<path d="M135.272 147.689C135.595 151.716 135.458 156.117 135.513 160.352" stroke="#263238" stroke-linecap="round" stroke-linejoin="round"/>
<path d="M141.612 151.546C140.105 153.544 138.488 155.456 136.768 157.273Z" fill="white"/>
<path d="M141.612 151.546C140.105 153.544 138.488 155.456 136.768 157.273" stroke="#263238" stroke-linecap="round" stroke-linejoin="round"/>
<path d="M138.817 163.629C139.828 162.919 140.696 162.025 141.376 160.994Z" fill="white"/>
<path d="M138.817 163.629C139.828 162.919 140.696 162.025 141.376 160.994" stroke="#263238" stroke-linecap="round" stroke-linejoin="round"/>
<path d="M104.502 161.18C105.478 165.016 103.247 169.054 103.686 173.011" stroke="#263238" stroke-linecap="round" stroke-linejoin="round"/>
<path d="M103.379 152.314C103.614 154.588 103.79 156.325 104.025 158.599" stroke="#263238" stroke-linecap="round" stroke-linejoin="round"/>
<path d="M112.147 196.454C112.574 197.1 113.001 197.731 113.434 198.339" stroke="#263238" stroke-linecap="round" stroke-linejoin="round"/>
<path d="M104.113 177.521C104.245 181.938 107.248 188.552 110.875 194.437" stroke="#263238" stroke-linecap="round" stroke-linejoin="round"/>
<path d="M124.706 137.162L130.806 136.696" stroke="#263238" stroke-linecap="round" stroke-linejoin="round"/>
<path d="M122.619 140.45C120.936 141.321 129.249 138.433 129.622 138.4" stroke="#263238" stroke-linecap="round" stroke-linejoin="round"/>
<path d="M124.202 142.691C123.589 143.014 130.197 141.513 131.578 141.891" stroke="#263238" stroke-linecap="round" stroke-linejoin="round"/>
<path d="M124.005 147.65C126.706 147.917 129.426 147.375 131.819 146.094" stroke="#263238" stroke-linecap="round" stroke-linejoin="round"/>
<path d="M120.914 124.487C121.758 125.977 122.904 127.008 122.936 128.717" stroke="#263238" stroke-linecap="round" stroke-linejoin="round"/>
<path d="M117.583 133.611C118.739 134.528 119.827 135.528 120.838 136.603" stroke="#263238" stroke-linecap="round" stroke-linejoin="round"/>
<path d="M135.272 147.014C135.904 146.718 136.597 146.577 137.295 146.602C137.993 146.628 138.674 146.82 139.283 147.162" fill="white"/>
<path d="M135.272 147.014C135.904 146.718 136.597 146.577 137.295 146.602C137.993 146.628 138.674 146.82 139.283 147.162" stroke="#263238" stroke-linecap="round" stroke-linejoin="round"/>
<path d="M115.736 147.689C117.38 148.236 119.353 149.502 121.687 150.319" stroke="#263238" stroke-linecap="round" stroke-linejoin="round"/>
<path d="M121.358 154.895L117.566 157.793" stroke="#263238" stroke-linecap="round" stroke-linejoin="round"/>
<path d="M128.948 239.991C132.47 232.948 135.199 225.536 137.085 217.891Z" fill="white"/>
<path d="M128.948 239.991C132.47 232.948 135.199 225.536 137.085 217.891" stroke="#263238" stroke-linecap="round" stroke-linejoin="round"/>
<path d="M138.724 211.77C137.886 214.439 135.666 223.102 135.37 223.508C135.451 219.84 135.752 216.18 136.274 212.548C136.58 210.351 137.164 208.203 138.012 206.153C139.135 203.413 140.971 198.794 142.691 193.654C142.691 193.648 141.31 203.556 138.724 211.77Z" fill="#263238"/>
<path d="M132.099 239.175C133.48 235.213 134.707 231.459 135.666 228.188C136.478 225.549 136.899 222.805 136.916 220.045C136.918 219.333 136.973 218.622 137.08 217.918V217.88C137.2 217.013 137.404 216.16 137.688 215.332C138.587 212.729 139.36 209.825 139.99 207.216C141.793 199.736 142.543 198.136 142.549 176.6L141.623 168.6L141.508 152.363C141.508 152.363 142.669 149.234 142.549 148.16C142.171 144.872 136.521 136.378 136.521 136.378L135.48 127.473C135.457 127.277 135.39 127.088 135.284 126.921C135.177 126.754 135.035 126.613 134.866 126.509L127.112 121.725C126.125 121.115 125.02 120.719 123.87 120.563C122.72 120.407 121.55 120.495 120.436 120.82C119.322 121.146 118.289 121.702 117.404 122.453C116.518 123.203 115.801 124.131 115.298 125.177L107.527 141.288L106.76 141.924C105.851 142.685 105.106 143.623 104.57 144.681C104.034 145.739 103.718 146.894 103.642 148.078C103.012 157.941 101.614 154.171 102.228 175.132C102.623 188.579 104.694 202.345 106.349 211.447C106.846 214.201 106.39 217.042 105.056 219.502L92.2328 243.164" stroke="#263238" stroke-linecap="round" stroke-linejoin="round"/>
</svg>
