<svg width="569" height="429" viewBox="0 0 569 429" fill="none" xmlns="http://www.w3.org/2000/svg">
<path d="M538.51 269.552C538.17 257.062 539.14 235.762 528.19 226.992C518.57 219.292 511.09 229.742 508.39 238.172C501.85 258.622 504.92 281.172 504.94 302.282C504.94 302.602 504.94 302.922 504.94 303.282C504.43 318.822 502.56 335.632 504.26 351.142C504.26 351.142 502.59 335.603 490.39 342.263C478.19 348.923 496.49 383.872 496.49 383.872C496.49 383.872 482.07 373.332 475.41 382.212C468.75 391.092 483.73 401.072 483.73 401.072C483.73 401.072 469.86 397.192 469.86 401.072C469.86 404.952 474.3 408.282 487.06 409.952H555.84C555.84 409.952 566.94 403.842 564.72 397.192C562.5 390.542 550.84 394.372 550.84 394.372C550.84 394.372 568.6 372.732 567.49 363.302C566.38 353.872 543.63 364.972 543.63 364.972C543.63 364.972 561.38 320.032 558.05 300.062C555.43 284.332 543.22 295.062 536.57 301.142C538.135 290.689 538.784 280.119 538.51 269.552Z" fill="#5B5B5B" stroke="white" stroke-linecap="round" stroke-linejoin="round"/>
<path opacity="0.5" d="M538.51 269.552C538.17 257.062 539.14 235.762 528.19 226.992C518.57 219.292 511.09 229.742 508.39 238.172C501.85 258.622 504.92 281.172 504.94 302.282C504.94 302.602 504.94 302.922 504.94 303.282C504.43 318.822 502.56 335.632 504.26 351.142C504.26 351.142 502.59 335.603 490.39 342.263C478.19 348.923 496.49 383.872 496.49 383.872C496.49 383.872 482.07 373.332 475.41 382.212C468.75 391.092 483.73 401.072 483.73 401.072C483.73 401.072 469.86 397.192 469.86 401.072C469.86 404.952 474.3 408.282 487.06 409.952H555.84C555.84 409.952 566.94 403.842 564.72 397.192C562.5 390.542 550.84 394.372 550.84 394.372C550.84 394.372 568.6 372.732 567.49 363.302C566.38 353.872 543.63 364.972 543.63 364.972C543.63 364.972 561.38 320.032 558.05 300.062C555.43 284.332 543.22 295.062 536.57 301.142C538.135 290.689 538.784 280.119 538.51 269.552Z" fill="white"/>
<path d="M516.44 409.352L521.44 256.782" stroke="white" stroke-linecap="round" stroke-linejoin="round"/>
<path d="M519.22 345.552L545.29 321.142" stroke="white" stroke-linecap="round" stroke-linejoin="round"/>
<path d="M531.42 334.452L536.97 318.922" stroke="white" stroke-linecap="round" stroke-linejoin="round"/>
<path d="M497.58 364.412L517.55 386.052" stroke="white" stroke-linecap="round" stroke-linejoin="round"/>
<path d="M550.84 376.622L517.55 393.822" stroke="white" stroke-linecap="round" stroke-linejoin="round"/>
<path d="M533.09 386.602L545.29 386.052" stroke="white" stroke-linecap="round" stroke-linejoin="round"/>
<path d="M516.44 409.352L521.44 256.782" stroke="#5B5B5B" stroke-linecap="round" stroke-linejoin="round"/>
<path d="M519.22 345.552L545.29 321.142" stroke="#5B5B5B" stroke-linecap="round" stroke-linejoin="round"/>
<path d="M531.42 334.452L536.97 318.922" stroke="#5B5B5B" stroke-linecap="round" stroke-linejoin="round"/>
<path d="M497.58 364.412L517.55 386.052" stroke="#5B5B5B" stroke-linecap="round" stroke-linejoin="round"/>
<path d="M550.84 376.622L517.55 393.822" stroke="#5B5B5B" stroke-linecap="round" stroke-linejoin="round"/>
<path d="M533.09 386.602L545.29 386.052" stroke="#5B5B5B" stroke-linecap="round" stroke-linejoin="round"/>
<g opacity="0.8">
<path opacity="0.8" d="M516.44 409.352L521.44 256.782" stroke="white" stroke-linecap="round" stroke-linejoin="round"/>
<path opacity="0.8" d="M519.22 345.552L545.29 321.142" stroke="white" stroke-linecap="round" stroke-linejoin="round"/>
<path opacity="0.8" d="M531.42 334.452L536.97 318.922" stroke="white" stroke-linecap="round" stroke-linejoin="round"/>
<path opacity="0.8" d="M497.58 364.412L517.55 386.052" stroke="white" stroke-linecap="round" stroke-linejoin="round"/>
<path opacity="0.8" d="M550.84 376.622L517.55 393.822" stroke="white" stroke-linecap="round" stroke-linejoin="round"/>
<path opacity="0.8" d="M533.09 386.602L545.29 386.052" stroke="white" stroke-linecap="round" stroke-linejoin="round"/>
</g>
<path d="M421.14 378.522C421.14 394.032 433.43 406.612 433.43 406.612C433.43 406.612 445.72 394.032 445.72 378.522C445.72 363.012 433.43 350.432 433.43 350.432C433.43 350.432 421.14 363.002 421.14 378.522Z" fill="#5B5B5B"/>
<path d="M412.62 402.452C418.62 409.182 428.76 409.912 428.76 409.912C428.76 409.912 429.25 399.722 423.29 392.992C417.33 386.262 407.15 385.532 407.15 385.532C407.15 385.532 406.65 395.722 412.62 402.452Z" fill="#5B5B5B"/>
<path d="M443.94 392.762C437.67 399.212 437.71 409.412 437.71 409.412C437.71 409.412 447.9 409.142 454.16 402.682C460.42 396.222 460.4 386.032 460.4 386.032C460.4 386.032 450.2 386.302 443.94 392.762Z" fill="#5B5B5B"/>
<g opacity="0.5">
<path opacity="0.5" d="M421.14 378.522C421.14 394.032 433.43 406.612 433.43 406.612C433.43 406.612 445.72 394.032 445.72 378.522C445.72 363.012 433.43 350.432 433.43 350.432C433.43 350.432 421.14 363.002 421.14 378.522Z" fill="white"/>
<path opacity="0.5" d="M433.43 406.612V350.432" stroke="white" stroke-linecap="round" stroke-linejoin="round"/>
<path opacity="0.5" d="M433.43 370.402L426.55 364.392" stroke="white" stroke-linecap="round" stroke-linejoin="round"/>
<path opacity="0.5" d="M433.54 379.682L442.06 367.342" stroke="white" stroke-linecap="round" stroke-linejoin="round"/>
<path opacity="0.5" d="M433.43 385.032L423.27 375.972" stroke="white" stroke-linecap="round" stroke-linejoin="round"/>
<path opacity="0.5" d="M433.54 392.242L443.59 383.292" stroke="white" stroke-linecap="round" stroke-linejoin="round"/>
<path opacity="0.5" d="M433.54 398.472L425.67 392.242" stroke="white" stroke-linecap="round" stroke-linejoin="round"/>
<path opacity="0.5" d="M412.62 402.452C418.62 409.182 428.76 409.912 428.76 409.912C428.76 409.912 429.25 399.722 423.29 392.992C417.33 386.262 407.15 385.532 407.15 385.532C407.15 385.532 406.65 395.722 412.62 402.452Z" fill="white"/>
<path opacity="0.5" d="M428.76 409.912L407.15 385.532" stroke="white" stroke-linecap="round" stroke-linejoin="round"/>
<path opacity="0.5" d="M414.83 394.202L409.53 394.242" stroke="white" stroke-linecap="round" stroke-linejoin="round"/>
<path opacity="0.5" d="M418.45 398.182L417.4 389.552" stroke="white" stroke-linecap="round" stroke-linejoin="round"/>
<path opacity="0.5" d="M420.46 400.552L412.57 400.522" stroke="white" stroke-linecap="round" stroke-linejoin="round"/>
<path opacity="0.5" d="M423.28 403.632L424.19 395.882" stroke="white" stroke-linecap="round" stroke-linejoin="round"/>
<path opacity="0.5" d="M425.68 406.332L419.87 406.662" stroke="white" stroke-linecap="round" stroke-linejoin="round"/>
<path opacity="0.5" d="M443.94 392.762C437.67 399.212 437.71 409.412 437.71 409.412C437.71 409.412 447.9 409.142 454.16 402.682C460.42 396.222 460.4 386.032 460.4 386.032C460.4 386.032 450.2 386.302 443.94 392.762Z" fill="white"/>
<path opacity="0.5" d="M437.71 409.412L460.4 386.032" stroke="white" stroke-linecap="round" stroke-linejoin="round"/>
<path opacity="0.5" d="M452.33 394.342L451.9 389.062" stroke="white" stroke-linecap="round" stroke-linejoin="round"/>
<path opacity="0.5" d="M448.63 398.252L457.16 396.552" stroke="white" stroke-linecap="round" stroke-linejoin="round"/>
<path opacity="0.5" d="M446.42 400.432L445.86 392.562" stroke="white" stroke-linecap="round" stroke-linejoin="round"/>
<path opacity="0.5" d="M443.55 403.472L451.35 403.812" stroke="white" stroke-linecap="round" stroke-linejoin="round"/>
<path opacity="0.5" d="M441.04 406.062L440.28 400.302" stroke="white" stroke-linecap="round" stroke-linejoin="round"/>
</g>
<path d="M433.43 406.612V350.432" stroke="#5B5B5B" stroke-linecap="round" stroke-linejoin="round"/>
<path d="M433.43 370.402L426.55 364.392" stroke="#5B5B5B" stroke-linecap="round" stroke-linejoin="round"/>
<path d="M433.54 379.682L442.06 367.342" stroke="#5B5B5B" stroke-linecap="round" stroke-linejoin="round"/>
<path d="M433.43 385.032L423.27 375.972" stroke="#5B5B5B" stroke-linecap="round" stroke-linejoin="round"/>
<path d="M433.54 392.242L443.59 383.292" stroke="#5B5B5B" stroke-linecap="round" stroke-linejoin="round"/>
<path d="M433.54 398.472L425.67 392.242" stroke="#5B5B5B" stroke-linecap="round" stroke-linejoin="round"/>
<g opacity="0.7">
<path opacity="0.7" d="M433.43 406.612V350.432" stroke="white" stroke-linecap="round" stroke-linejoin="round"/>
<path opacity="0.7" d="M433.43 370.402L426.55 364.392" stroke="white" stroke-linecap="round" stroke-linejoin="round"/>
<path opacity="0.7" d="M433.54 379.682L442.06 367.342" stroke="white" stroke-linecap="round" stroke-linejoin="round"/>
<path opacity="0.7" d="M433.43 385.032L423.27 375.972" stroke="white" stroke-linecap="round" stroke-linejoin="round"/>
<path opacity="0.7" d="M433.54 392.242L443.59 383.292" stroke="white" stroke-linecap="round" stroke-linejoin="round"/>
<path opacity="0.7" d="M433.54 398.472L425.67 392.242" stroke="white" stroke-linecap="round" stroke-linejoin="round"/>
</g>
<path d="M428.76 409.912L407.15 385.532" stroke="#5B5B5B" stroke-linecap="round" stroke-linejoin="round"/>
<path d="M414.83 394.202L409.53 394.242" stroke="#5B5B5B" stroke-linecap="round" stroke-linejoin="round"/>
<path d="M418.45 398.182L417.4 389.552" stroke="#5B5B5B" stroke-linecap="round" stroke-linejoin="round"/>
<path d="M420.46 400.552L412.57 400.522" stroke="#5B5B5B" stroke-linecap="round" stroke-linejoin="round"/>
<path d="M423.28 403.632L424.19 395.882" stroke="#5B5B5B" stroke-linecap="round" stroke-linejoin="round"/>
<path d="M425.68 406.332L419.87 406.662" stroke="#5B5B5B" stroke-linecap="round" stroke-linejoin="round"/>
<g opacity="0.7">
<path opacity="0.7" d="M428.76 409.912L407.15 385.532" stroke="white" stroke-linecap="round" stroke-linejoin="round"/>
<path opacity="0.7" d="M414.83 394.202L409.53 394.242" stroke="white" stroke-linecap="round" stroke-linejoin="round"/>
<path opacity="0.7" d="M418.45 398.182L417.4 389.552" stroke="white" stroke-linecap="round" stroke-linejoin="round"/>
<path opacity="0.7" d="M420.46 400.552L412.57 400.522" stroke="white" stroke-linecap="round" stroke-linejoin="round"/>
<path opacity="0.7" d="M423.28 403.632L424.19 395.882" stroke="white" stroke-linecap="round" stroke-linejoin="round"/>
<path opacity="0.7" d="M425.68 406.332L419.87 406.662" stroke="white" stroke-linecap="round" stroke-linejoin="round"/>
</g>
<path d="M437.71 409.412L460.4 386.032" stroke="#5B5B5B" stroke-linecap="round" stroke-linejoin="round"/>
<path d="M452.33 394.342L451.9 389.062" stroke="#5B5B5B" stroke-linecap="round" stroke-linejoin="round"/>
<path d="M448.63 398.252L457.16 396.552" stroke="#5B5B5B" stroke-linecap="round" stroke-linejoin="round"/>
<path d="M446.42 400.432L445.86 392.562" stroke="#5B5B5B" stroke-linecap="round" stroke-linejoin="round"/>
<path d="M443.55 403.472L451.35 403.812" stroke="#5B5B5B" stroke-linecap="round" stroke-linejoin="round"/>
<path d="M441.04 406.062L440.28 400.302" stroke="#5B5B5B" stroke-linecap="round" stroke-linejoin="round"/>
<g opacity="0.7">
<path opacity="0.7" d="M437.71 409.412L460.4 386.032" stroke="white" stroke-linecap="round" stroke-linejoin="round"/>
<path opacity="0.7" d="M452.33 394.342L451.9 389.062" stroke="white" stroke-linecap="round" stroke-linejoin="round"/>
<path opacity="0.7" d="M448.63 398.252L457.16 396.552" stroke="white" stroke-linecap="round" stroke-linejoin="round"/>
<path opacity="0.7" d="M446.42 400.432L445.86 392.562" stroke="white" stroke-linecap="round" stroke-linejoin="round"/>
<path opacity="0.7" d="M443.55 403.472L451.35 403.812" stroke="white" stroke-linecap="round" stroke-linejoin="round"/>
<path opacity="0.7" d="M441.04 406.062L440.28 400.302" stroke="white" stroke-linecap="round" stroke-linejoin="round"/>
</g>
<path d="M30.03 269.552C30.36 257.062 29.4 235.762 40.35 226.992C49.97 219.292 57.45 229.742 60.14 238.172C66.69 258.622 63.61 281.172 63.6 302.282C63.6 302.602 63.6 302.922 63.6 303.282C64.12 318.822 65.98 335.632 64.29 351.142C64.29 351.142 65.95 335.603 78.16 342.263C90.37 348.923 72.05 383.872 72.05 383.872C72.05 383.872 86.48 373.332 93.14 382.212C99.8 391.092 84.84 401.032 84.84 401.032C84.84 401.032 98.71 397.152 98.71 401.032C98.71 404.912 94.27 408.242 81.51 409.912H12.7C12.7 409.912 1.59998 403.802 3.81998 397.152C6.03998 390.502 17.69 394.372 17.69 394.372C17.69 394.372 -0.0600281 372.732 1.04997 363.302C2.15997 353.872 24.91 364.972 24.91 364.972C24.91 364.972 7.14997 320.032 10.48 300.092C13.1 284.362 25.32 295.092 31.96 301.172C30.3962 290.709 29.7504 280.129 30.03 269.552V269.552Z" fill="#5B5B5B" stroke="white" stroke-linecap="round" stroke-linejoin="round"/>
<path opacity="0.5" d="M30.03 269.552C30.36 257.062 29.4 235.762 40.35 226.992C49.97 219.292 57.45 229.742 60.14 238.172C66.69 258.622 63.61 281.172 63.6 302.282C63.6 302.602 63.6 302.922 63.6 303.282C64.12 318.822 65.98 335.632 64.29 351.142C64.29 351.142 65.95 335.603 78.16 342.263C90.37 348.923 72.05 383.872 72.05 383.872C72.05 383.872 86.48 373.332 93.14 382.212C99.8 391.092 84.84 401.032 84.84 401.032C84.84 401.032 98.71 397.152 98.71 401.032C98.71 404.912 94.27 408.242 81.51 409.912H12.7C12.7 409.912 1.59998 403.802 3.81998 397.152C6.03998 390.502 17.69 394.372 17.69 394.372C17.69 394.372 -0.0600281 372.732 1.04997 363.302C2.15997 353.872 24.91 364.972 24.91 364.972C24.91 364.972 7.14997 320.032 10.48 300.092C13.1 284.362 25.32 295.092 31.96 301.172C30.3962 290.709 29.7504 280.129 30.03 269.552V269.552Z" fill="white"/>
<path d="M52.09 409.352L47.1 256.782" stroke="white" stroke-linecap="round" stroke-linejoin="round"/>
<path d="M49.32 345.552L23.24 321.142" stroke="white" stroke-linecap="round" stroke-linejoin="round"/>
<path d="M37.11 334.452L31.56 318.922" stroke="white" stroke-linecap="round" stroke-linejoin="round"/>
<path d="M70.95 364.412L50.98 386.052" stroke="white" stroke-linecap="round" stroke-linejoin="round"/>
<path d="M17.69 376.622L50.98 393.822" stroke="white" stroke-linecap="round" stroke-linejoin="round"/>
<path d="M35.45 386.602L23.24 386.052" stroke="white" stroke-linecap="round" stroke-linejoin="round"/>
<path d="M52.09 409.352L47.1 256.782" stroke="#5B5B5B" stroke-linecap="round" stroke-linejoin="round"/>
<path d="M49.32 345.552L23.24 321.142" stroke="#5B5B5B" stroke-linecap="round" stroke-linejoin="round"/>
<path d="M37.11 334.452L31.56 318.922" stroke="#5B5B5B" stroke-linecap="round" stroke-linejoin="round"/>
<path d="M70.95 364.412L50.98 386.052" stroke="#5B5B5B" stroke-linecap="round" stroke-linejoin="round"/>
<path d="M17.69 376.622L50.98 393.822" stroke="#5B5B5B" stroke-linecap="round" stroke-linejoin="round"/>
<path d="M35.45 386.602L23.24 386.052" stroke="#5B5B5B" stroke-linecap="round" stroke-linejoin="round"/>
<g opacity="0.8">
<path opacity="0.8" d="M52.09 409.352L47.1 256.782" stroke="white" stroke-linecap="round" stroke-linejoin="round"/>
<path opacity="0.8" d="M49.32 345.552L23.24 321.142" stroke="white" stroke-linecap="round" stroke-linejoin="round"/>
<path opacity="0.8" d="M37.11 334.452L31.56 318.922" stroke="white" stroke-linecap="round" stroke-linejoin="round"/>
<path opacity="0.8" d="M70.95 364.412L50.98 386.052" stroke="white" stroke-linecap="round" stroke-linejoin="round"/>
<path opacity="0.8" d="M17.69 376.622L50.98 393.822" stroke="white" stroke-linecap="round" stroke-linejoin="round"/>
<path opacity="0.8" d="M35.45 386.602L23.24 386.052" stroke="white" stroke-linecap="round" stroke-linejoin="round"/>
</g>
<path d="M149.4 378.522C149.4 394.032 137.11 406.612 137.11 406.612C137.11 406.612 124.84 394.032 124.84 378.522C124.84 363.012 137.13 350.432 137.13 350.432C137.13 350.432 149.4 363.002 149.4 378.522Z" fill="#5B5B5B"/>
<path d="M157.91 402.452C151.91 409.182 141.77 409.912 141.77 409.912C141.77 409.912 141.28 399.722 147.25 392.992C153.22 386.262 163.39 385.532 163.39 385.532C163.39 385.532 163.84 395.722 157.91 402.452Z" fill="#5B5B5B"/>
<path d="M126.6 392.762C132.86 399.212 132.83 409.412 132.83 409.412C132.83 409.412 122.64 409.142 116.37 402.682C110.1 396.222 110.14 386.032 110.14 386.032C110.14 386.032 120.33 386.302 126.6 392.762Z" fill="#5B5B5B"/>
<g opacity="0.5">
<path opacity="0.5" d="M149.4 378.522C149.4 394.032 137.11 406.612 137.11 406.612C137.11 406.612 124.84 394.032 124.84 378.522C124.84 363.012 137.13 350.432 137.13 350.432C137.13 350.432 149.4 363.002 149.4 378.522Z" fill="white"/>
<path opacity="0.5" d="M137.11 406.612V350.432" stroke="white" stroke-linecap="round" stroke-linejoin="round"/>
<path opacity="0.5" d="M137.11 370.402L143.99 364.392" stroke="white" stroke-linecap="round" stroke-linejoin="round"/>
<path opacity="0.5" d="M137 379.682L128.48 367.342" stroke="white" stroke-linecap="round" stroke-linejoin="round"/>
<path opacity="0.5" d="M137.11 385.032L147.27 375.972" stroke="white" stroke-linecap="round" stroke-linejoin="round"/>
<path opacity="0.5" d="M137 392.242L126.95 383.292" stroke="white" stroke-linecap="round" stroke-linejoin="round"/>
<path opacity="0.5" d="M137 398.472L144.86 392.242" stroke="white" stroke-linecap="round" stroke-linejoin="round"/>
<path opacity="0.5" d="M157.91 402.452C151.91 409.182 141.77 409.912 141.77 409.912C141.77 409.912 141.28 399.722 147.25 392.992C153.22 386.262 163.39 385.532 163.39 385.532C163.39 385.532 163.84 395.722 157.91 402.452Z" fill="white"/>
<path opacity="0.5" d="M141.77 409.912L163.39 385.532" stroke="white" stroke-linecap="round" stroke-linejoin="round"/>
<path opacity="0.5" d="M155.71 394.202L161 394.242" stroke="white" stroke-linecap="round" stroke-linejoin="round"/>
<path opacity="0.5" d="M152.09 398.182L153.14 389.552" stroke="white" stroke-linecap="round" stroke-linejoin="round"/>
<path opacity="0.5" d="M150.07 400.552L157.97 400.522" stroke="white" stroke-linecap="round" stroke-linejoin="round"/>
<path opacity="0.5" d="M147.25 403.632L146.34 395.882" stroke="white" stroke-linecap="round" stroke-linejoin="round"/>
<path opacity="0.5" d="M144.86 406.332L150.67 406.662" stroke="white" stroke-linecap="round" stroke-linejoin="round"/>
<path opacity="0.5" d="M126.6 392.762C132.86 399.212 132.83 409.412 132.83 409.412C132.83 409.412 122.64 409.142 116.37 402.682C110.1 396.222 110.14 386.032 110.14 386.032C110.14 386.032 120.33 386.302 126.6 392.762Z" fill="white"/>
<path opacity="0.5" d="M132.83 409.412L110.14 386.032" stroke="white" stroke-linecap="round" stroke-linejoin="round"/>
<path opacity="0.5" d="M118.2 394.342L118.64 389.062" stroke="white" stroke-linecap="round" stroke-linejoin="round"/>
<path opacity="0.5" d="M121.91 398.252L113.38 396.552" stroke="white" stroke-linecap="round" stroke-linejoin="round"/>
<path opacity="0.5" d="M124.11 400.432L124.68 392.562" stroke="white" stroke-linecap="round" stroke-linejoin="round"/>
<path opacity="0.5" d="M126.98 403.472L119.18 403.812" stroke="white" stroke-linecap="round" stroke-linejoin="round"/>
<path opacity="0.5" d="M129.5 406.062L130.25 400.302" stroke="white" stroke-linecap="round" stroke-linejoin="round"/>
</g>
<path d="M137.11 406.612V350.432" stroke="#5B5B5B" stroke-linecap="round" stroke-linejoin="round"/>
<path d="M137.11 370.402L143.99 364.392" stroke="#5B5B5B" stroke-linecap="round" stroke-linejoin="round"/>
<path d="M137 379.682L128.48 367.342" stroke="#5B5B5B" stroke-linecap="round" stroke-linejoin="round"/>
<path d="M137.11 385.032L147.27 375.972" stroke="#5B5B5B" stroke-linecap="round" stroke-linejoin="round"/>
<path d="M137 392.242L126.95 383.292" stroke="#5B5B5B" stroke-linecap="round" stroke-linejoin="round"/>
<path d="M137 398.472L144.86 392.242" stroke="#5B5B5B" stroke-linecap="round" stroke-linejoin="round"/>
<g opacity="0.7">
<path opacity="0.7" d="M137.11 406.612V350.432" stroke="white" stroke-linecap="round" stroke-linejoin="round"/>
<path opacity="0.7" d="M137.11 370.402L143.99 364.392" stroke="white" stroke-linecap="round" stroke-linejoin="round"/>
<path opacity="0.7" d="M137 379.682L128.48 367.342" stroke="white" stroke-linecap="round" stroke-linejoin="round"/>
<path opacity="0.7" d="M137.11 385.032L147.27 375.972" stroke="white" stroke-linecap="round" stroke-linejoin="round"/>
<path opacity="0.7" d="M137 392.242L126.95 383.292" stroke="white" stroke-linecap="round" stroke-linejoin="round"/>
<path opacity="0.7" d="M137 398.472L144.86 392.242" stroke="white" stroke-linecap="round" stroke-linejoin="round"/>
</g>
<path d="M141.77 409.912L163.39 385.532" stroke="#5B5B5B" stroke-linecap="round" stroke-linejoin="round"/>
<path d="M155.71 394.202L161 394.242" stroke="#5B5B5B" stroke-linecap="round" stroke-linejoin="round"/>
<path d="M152.09 398.182L153.14 389.552" stroke="#5B5B5B" stroke-linecap="round" stroke-linejoin="round"/>
<path d="M150.07 400.552L157.97 400.522" stroke="#5B5B5B" stroke-linecap="round" stroke-linejoin="round"/>
<path d="M147.25 403.632L146.34 395.882" stroke="#5B5B5B" stroke-linecap="round" stroke-linejoin="round"/>
<path d="M144.86 406.332L150.67 406.662" stroke="#5B5B5B" stroke-linecap="round" stroke-linejoin="round"/>
<g opacity="0.7">
<path opacity="0.7" d="M141.77 409.912L163.39 385.532" stroke="white" stroke-linecap="round" stroke-linejoin="round"/>
<path opacity="0.7" d="M155.71 394.202L161 394.242" stroke="white" stroke-linecap="round" stroke-linejoin="round"/>
<path opacity="0.7" d="M152.09 398.182L153.14 389.552" stroke="white" stroke-linecap="round" stroke-linejoin="round"/>
<path opacity="0.7" d="M150.07 400.552L157.97 400.522" stroke="white" stroke-linecap="round" stroke-linejoin="round"/>
<path opacity="0.7" d="M147.25 403.632L146.34 395.882" stroke="white" stroke-linecap="round" stroke-linejoin="round"/>
<path opacity="0.7" d="M144.86 406.332L150.67 406.662" stroke="white" stroke-linecap="round" stroke-linejoin="round"/>
</g>
<path d="M132.83 409.412L110.14 386.032" stroke="#5B5B5B" stroke-linecap="round" stroke-linejoin="round"/>
<path d="M118.2 394.342L118.64 389.062" stroke="#5B5B5B" stroke-linecap="round" stroke-linejoin="round"/>
<path d="M121.91 398.252L113.38 396.552" stroke="#5B5B5B" stroke-linecap="round" stroke-linejoin="round"/>
<path d="M124.11 400.432L124.68 392.562" stroke="#5B5B5B" stroke-linecap="round" stroke-linejoin="round"/>
<path d="M126.98 403.472L119.18 403.812" stroke="#5B5B5B" stroke-linecap="round" stroke-linejoin="round"/>
<path d="M129.5 406.062L130.25 400.302" stroke="#5B5B5B" stroke-linecap="round" stroke-linejoin="round"/>
<g opacity="0.7">
<path opacity="0.7" d="M132.83 409.412L110.14 386.032" stroke="white" stroke-linecap="round" stroke-linejoin="round"/>
<path opacity="0.7" d="M118.2 394.342L118.64 389.062" stroke="white" stroke-linecap="round" stroke-linejoin="round"/>
<path opacity="0.7" d="M121.91 398.252L113.38 396.552" stroke="white" stroke-linecap="round" stroke-linejoin="round"/>
<path opacity="0.7" d="M124.11 400.432L124.68 392.562" stroke="white" stroke-linecap="round" stroke-linejoin="round"/>
<path opacity="0.7" d="M126.98 403.472L119.18 403.812" stroke="white" stroke-linecap="round" stroke-linejoin="round"/>
<path opacity="0.7" d="M129.5 406.062L130.25 400.302" stroke="white" stroke-linecap="round" stroke-linejoin="round"/>
</g>
<path d="M426.22 112.712H155.89C155.809 112.714 155.729 112.699 155.653 112.669C155.578 112.639 155.51 112.594 155.452 112.537C155.394 112.481 155.349 112.413 155.317 112.338C155.286 112.264 155.27 112.183 155.27 112.102C155.27 111.938 155.335 111.78 155.452 111.664C155.568 111.548 155.726 111.482 155.89 111.482H426.22C426.301 111.482 426.381 111.499 426.456 111.53C426.53 111.561 426.598 111.607 426.655 111.665C426.712 111.722 426.756 111.791 426.786 111.866C426.817 111.941 426.831 112.022 426.83 112.102C426.83 112.264 426.766 112.419 426.651 112.534C426.537 112.648 426.382 112.712 426.22 112.712Z" fill="#5B5B5B"/>
<g opacity="0.3">
<path opacity="0.3" d="M426.22 112.712H155.89C155.809 112.714 155.729 112.699 155.653 112.669C155.578 112.639 155.51 112.594 155.452 112.537C155.394 112.481 155.349 112.413 155.317 112.338C155.286 112.264 155.27 112.183 155.27 112.102C155.27 111.938 155.335 111.78 155.452 111.664C155.568 111.548 155.726 111.482 155.89 111.482H426.22C426.301 111.482 426.381 111.499 426.456 111.53C426.53 111.561 426.598 111.607 426.655 111.665C426.712 111.722 426.756 111.791 426.786 111.866C426.817 111.941 426.831 112.022 426.83 112.102C426.83 112.264 426.766 112.419 426.651 112.534C426.537 112.648 426.382 112.712 426.22 112.712Z" fill="white"/>
</g>
<path d="M425.68 219.932H155.35C155.269 219.934 155.189 219.919 155.113 219.889C155.038 219.859 154.97 219.814 154.912 219.757C154.854 219.701 154.809 219.633 154.777 219.558C154.746 219.484 154.73 219.403 154.73 219.322C154.73 219.158 154.795 219 154.912 218.884C155.028 218.768 155.186 218.702 155.35 218.702H425.68C425.761 218.702 425.841 218.719 425.916 218.75C425.99 218.781 426.058 218.827 426.115 218.885C426.172 218.942 426.216 219.011 426.246 219.086C426.277 219.161 426.291 219.242 426.29 219.322C426.29 219.403 426.274 219.482 426.244 219.556C426.213 219.63 426.168 219.697 426.111 219.754C426.055 219.81 425.987 219.855 425.913 219.886C425.839 219.917 425.76 219.932 425.68 219.932V219.932Z" fill="#5B5B5B"/>
<g opacity="0.3">
<path opacity="0.3" d="M425.68 219.932H155.35C155.269 219.934 155.189 219.919 155.113 219.889C155.038 219.859 154.97 219.814 154.912 219.757C154.854 219.701 154.809 219.633 154.777 219.558C154.746 219.484 154.73 219.403 154.73 219.322C154.73 219.158 154.795 219 154.912 218.884C155.028 218.768 155.186 218.702 155.35 218.702H425.68C425.761 218.702 425.841 218.719 425.916 218.75C425.99 218.781 426.058 218.827 426.115 218.885C426.172 218.942 426.216 219.011 426.246 219.086C426.277 219.161 426.291 219.242 426.29 219.322C426.29 219.403 426.274 219.482 426.244 219.556C426.213 219.63 426.168 219.697 426.111 219.754C426.055 219.81 425.987 219.855 425.913 219.886C425.839 219.917 425.76 219.932 425.68 219.932V219.932Z" fill="white"/>
</g>
<path d="M425.68 307.582H155.35C155.186 307.582 155.028 307.517 154.912 307.401C154.795 307.285 154.73 307.127 154.73 306.962C154.73 306.882 154.746 306.801 154.777 306.727C154.809 306.652 154.854 306.584 154.912 306.528C154.97 306.471 155.038 306.426 155.113 306.396C155.189 306.366 155.269 306.351 155.35 306.352H425.68C425.76 306.352 425.839 306.368 425.913 306.399C425.987 306.43 426.055 306.474 426.111 306.531C426.168 306.588 426.213 306.655 426.244 306.729C426.274 306.803 426.29 306.882 426.29 306.962C426.291 307.043 426.277 307.124 426.246 307.199C426.216 307.274 426.172 307.343 426.115 307.4C426.058 307.458 425.99 307.504 425.916 307.535C425.841 307.566 425.761 307.582 425.68 307.582Z" fill="#5B5B5B"/>
<g opacity="0.3">
<path opacity="0.3" d="M425.68 307.582H155.35C155.186 307.582 155.028 307.517 154.912 307.401C154.795 307.285 154.73 307.127 154.73 306.962C154.73 306.882 154.746 306.801 154.777 306.727C154.809 306.652 154.854 306.584 154.912 306.528C154.97 306.471 155.038 306.426 155.113 306.396C155.189 306.366 155.269 306.351 155.35 306.352H425.68C425.76 306.352 425.839 306.368 425.913 306.399C425.987 306.43 426.055 306.474 426.111 306.531C426.168 306.588 426.213 306.655 426.244 306.729C426.274 306.803 426.29 306.882 426.29 306.962C426.291 307.043 426.277 307.124 426.246 307.199C426.216 307.274 426.172 307.343 426.115 307.4C426.058 307.458 425.99 307.504 425.916 307.535C425.841 307.566 425.761 307.582 425.68 307.582Z" fill="white"/>
</g>
<path d="M212.82 322.412V413.632" stroke="#263238" stroke-width="0.265171" stroke-miterlimit="10"/>
<path d="M225.85 322.412V413.632" stroke="#263238" stroke-width="0.265171" stroke-miterlimit="10"/>
<path d="M238.88 322.412V413.632" stroke="#263238" stroke-width="0.265171" stroke-miterlimit="10"/>
<path d="M251.91 322.412V413.632" stroke="#263238" stroke-width="0.265171" stroke-miterlimit="10"/>
<path d="M264.94 322.412V413.632" stroke="#263238" stroke-width="0.265171" stroke-miterlimit="10"/>
<path d="M277.97 322.412V413.632" stroke="#263238" stroke-width="0.265171" stroke-miterlimit="10"/>
<path d="M291 322.412V413.632" stroke="#263238" stroke-width="0.265171" stroke-miterlimit="10"/>
<path d="M304.03 322.412V413.632" stroke="#263238" stroke-width="0.265171" stroke-miterlimit="10"/>
<path d="M317.06 322.412V413.632" stroke="#263238" stroke-width="0.265171" stroke-miterlimit="10"/>
<path d="M330.09 322.412V413.632" stroke="#263238" stroke-width="0.265171" stroke-miterlimit="10"/>
<path d="M343.12 322.412V413.632" stroke="#263238" stroke-width="0.265171" stroke-miterlimit="10"/>
<path d="M356.15 322.412V413.632" stroke="#263238" stroke-width="0.265171" stroke-miterlimit="10"/>
<path d="M213.47 330.882H355.5" stroke="#263238" stroke-width="0.265171" stroke-miterlimit="10"/>
<path d="M213.47 343.262H355.5" stroke="#263238" stroke-width="0.265171" stroke-miterlimit="10"/>
<path d="M213.47 355.642H355.5" stroke="#263238" stroke-width="0.265171" stroke-miterlimit="10"/>
<path d="M213.47 368.022H355.5" stroke="#263238" stroke-width="0.265171" stroke-miterlimit="10"/>
<path d="M213.47 380.402H355.5" stroke="#263238" stroke-width="0.265171" stroke-miterlimit="10"/>
<path d="M213.47 392.782H355.5" stroke="#263238" stroke-width="0.265171" stroke-miterlimit="10"/>
<path d="M213.47 405.162H355.5" stroke="#263238" stroke-width="0.265171" stroke-miterlimit="10"/>
<path d="M243.31 354.412L224.25 413.172H264.17L245.1 354.412C245.039 354.223 244.92 354.058 244.759 353.94C244.598 353.823 244.404 353.76 244.205 353.76C244.006 353.76 243.812 353.823 243.651 353.94C243.49 354.058 243.371 354.223 243.31 354.412V354.412Z" fill="#5B5B5B" stroke="#263238" stroke-width="1.06068" stroke-miterlimit="10"/>
<path d="M279.65 334.952L254.28 413.172H306.84L281.44 334.952C281.379 334.763 281.26 334.598 281.099 334.48C280.938 334.363 280.744 334.3 280.545 334.3C280.346 334.3 280.152 334.363 279.991 334.48C279.83 334.598 279.711 334.763 279.65 334.952V334.952Z" fill="#263238" stroke="#263238" stroke-width="1.06068" stroke-miterlimit="10"/>
<path d="M313.09 367.852L298.38 413.172H329.58L314.84 367.852C314.771 367.677 314.651 367.526 314.494 367.419C314.338 367.313 314.154 367.256 313.965 367.256C313.776 367.256 313.592 367.313 313.435 367.419C313.279 367.526 313.159 367.677 313.09 367.852V367.852Z" fill="#5B5B5B" stroke="#263238" stroke-width="1.06068" stroke-miterlimit="10"/>
<path d="M333.24 383.412L323.59 413.172H344.68L335.03 383.412C334.969 383.223 334.85 383.058 334.689 382.94C334.528 382.823 334.334 382.76 334.135 382.76C333.936 382.76 333.742 382.823 333.581 382.94C333.42 383.058 333.301 383.223 333.24 383.412V383.412Z" fill="#263238" stroke="#263238" stroke-width="1.06068" stroke-miterlimit="10"/>
<path d="M211.1 293.582C205.382 293.582 199.793 291.887 195.038 288.71C190.284 285.534 186.579 281.018 184.391 275.736C182.202 270.453 181.63 264.64 182.745 259.032C183.861 253.424 186.614 248.273 190.658 244.23C194.701 240.187 199.852 237.433 205.46 236.318C211.068 235.202 216.881 235.775 222.163 237.963C227.446 240.151 231.961 243.857 235.138 248.611C238.314 253.365 240.01 258.955 240.01 264.672C240.002 272.337 236.954 279.686 231.534 285.106C226.114 290.526 218.765 293.575 211.1 293.582V293.582ZM211.1 244.252C207.062 244.254 203.115 245.454 199.758 247.699C196.401 249.944 193.786 253.134 192.242 256.865C190.697 260.596 190.295 264.702 191.084 268.662C191.873 272.623 193.818 276.26 196.674 279.115C199.531 281.97 203.169 283.914 207.13 284.701C211.091 285.488 215.196 285.083 218.927 283.537C222.657 281.991 225.846 279.374 228.089 276.016C230.333 272.658 231.53 268.711 231.53 264.672C231.525 259.257 229.37 254.064 225.54 250.236C221.709 246.407 216.516 244.255 211.1 244.252Z" fill="#263238" stroke="#263238" stroke-width="1.06068" stroke-miterlimit="10"/>
<path d="M211.1 293.582C207.198 293.595 203.335 292.811 199.747 291.279C196.158 289.747 192.92 287.499 190.23 284.672L196.36 278.802C198.259 280.799 200.546 282.387 203.081 283.469C205.616 284.55 208.344 285.103 211.1 285.092C213.782 285.092 216.437 284.564 218.914 283.538C221.392 282.512 223.643 281.008 225.539 279.112C227.435 277.215 228.939 274.964 229.966 272.487C230.992 270.009 231.52 267.354 231.52 264.672C231.52 261.991 230.992 259.336 229.966 256.858C228.939 254.381 227.435 252.13 225.539 250.233C223.643 248.337 221.392 246.833 218.914 245.807C216.437 244.781 213.782 244.252 211.1 244.252V235.762C214.897 235.762 218.656 236.51 222.163 237.963C225.671 239.416 228.858 241.545 231.542 244.23C234.227 246.915 236.356 250.102 237.809 253.609C239.262 257.117 240.01 260.876 240.01 264.672C240.01 268.469 239.262 272.228 237.809 275.736C236.356 279.243 234.227 282.43 231.542 285.115C228.858 287.799 225.671 289.929 222.163 291.382C218.656 292.835 214.897 293.582 211.1 293.582V293.582Z" fill="#5B5B5B" stroke="#263238" stroke-width="1.06068" stroke-miterlimit="10"/>
<path d="M282.4 293.582C276.682 293.584 271.091 291.891 266.336 288.715C261.58 285.54 257.873 281.025 255.683 275.743C253.494 270.46 252.92 264.647 254.034 259.039C255.149 253.43 257.901 248.278 261.944 244.234C265.987 240.189 271.138 237.435 276.746 236.319C282.354 235.202 288.168 235.774 293.451 237.962C298.734 240.15 303.25 243.855 306.427 248.61C309.604 253.364 311.3 258.954 311.3 264.672C311.292 272.336 308.245 279.683 302.827 285.103C297.409 290.522 290.063 293.572 282.4 293.582V293.582ZM282.4 244.252C278.362 244.256 274.416 245.457 271.061 247.704C267.705 249.95 265.091 253.14 263.549 256.872C262.006 260.604 261.605 264.709 262.395 268.668C263.185 272.628 265.131 276.265 267.988 279.119C270.845 281.972 274.483 283.915 278.444 284.702C282.404 285.488 286.509 285.082 290.239 283.536C293.969 281.99 297.157 279.373 299.4 276.015C301.643 272.658 302.84 268.71 302.84 264.672C302.832 259.256 300.675 254.063 296.843 250.235C293.011 246.407 287.817 244.255 282.4 244.252V244.252Z" fill="#263238" stroke="#263238" stroke-width="1.06068" stroke-miterlimit="10"/>
<path d="M293.65 291.302L290.35 283.492C294.687 281.654 298.255 278.374 300.451 274.207C302.647 270.04 303.335 265.242 302.4 260.626C301.465 256.009 298.963 251.858 295.319 248.874C291.674 245.89 287.11 244.258 282.4 244.252V235.762C289.071 235.763 295.536 238.071 300.699 242.294C305.863 246.517 309.407 252.395 310.731 258.933C312.056 265.471 311.078 272.266 307.965 278.165C304.852 284.065 299.794 288.706 293.65 291.302V291.302Z" fill="#5B5B5B" stroke="#263238" stroke-width="1.06068" stroke-miterlimit="10"/>
<path d="M353.69 293.582C347.972 293.582 342.383 291.887 337.628 288.71C332.874 285.534 329.169 281.018 326.981 275.736C324.792 270.453 324.22 264.64 325.335 259.032C326.451 253.424 329.204 248.273 333.248 244.23C337.291 240.187 342.442 237.433 348.05 236.318C353.658 235.202 359.471 235.775 364.753 237.963C370.036 240.151 374.551 243.857 377.728 248.611C380.904 253.365 382.6 258.955 382.6 264.672C382.592 272.337 379.544 279.686 374.124 285.106C368.704 290.526 361.355 293.575 353.69 293.582V293.582ZM353.69 244.252C349.651 244.252 345.703 245.45 342.345 247.694C338.987 249.938 336.37 253.127 334.824 256.858C333.279 260.589 332.874 264.695 333.662 268.656C334.45 272.617 336.395 276.256 339.251 279.112C342.107 281.967 345.745 283.912 349.706 284.7C353.667 285.488 357.773 285.084 361.504 283.538C365.236 281.993 368.425 279.375 370.669 276.017C372.912 272.659 374.11 268.711 374.11 264.672C374.105 259.258 371.952 254.068 368.123 250.239C364.295 246.411 359.104 244.258 353.69 244.252V244.252Z" fill="#263238" stroke="#263238" stroke-width="1.06068" stroke-miterlimit="10"/>
<path d="M373.71 260.602C372.761 255.995 370.255 251.854 366.613 248.876C362.971 245.899 358.414 244.266 353.71 244.252V235.762C360.373 235.779 366.827 238.09 371.986 242.306C377.146 246.522 380.696 252.387 382.04 258.912L373.71 260.602Z" fill="#5B5B5B" stroke="#263238" stroke-width="1.06068" stroke-miterlimit="10"/>
<path d="M222.63 203.752H358.4" stroke="#263238" stroke-width="1.06068" stroke-miterlimit="10"/>
<path d="M222.63 203.752V200.862" stroke="#263238" stroke-width="1.06068" stroke-miterlimit="10"/>
<path d="M249.78 203.752V200.862" stroke="#263238" stroke-width="1.06068" stroke-miterlimit="10"/>
<path d="M276.94 203.752V200.862" stroke="#263238" stroke-width="1.06068" stroke-miterlimit="10"/>
<path d="M304.09 203.752V200.862" stroke="#263238" stroke-width="1.06068" stroke-miterlimit="10"/>
<path d="M331.24 203.752V200.862" stroke="#263238" stroke-width="1.06068" stroke-miterlimit="10"/>
<path d="M358.4 203.752V200.862" stroke="#263238" stroke-width="1.06068" stroke-miterlimit="10"/>
<path d="M245.98 165.162H226.43V188.312H245.98V165.162Z" fill="#5B5B5B" stroke="#263238" stroke-width="1.06068" stroke-miterlimit="10"/>
<path d="M273.13 138.152H253.58V192.172H273.13V138.152Z" fill="#5B5B5B" stroke="#263238" stroke-width="1.06068" stroke-miterlimit="10"/>
<path d="M300.29 100.342H280.74V160.542H300.29V100.342Z" fill="#5B5B5B" stroke="#263238" stroke-width="1.06068" stroke-miterlimit="10"/>
<path d="M327.44 156.682H307.89V168.262H327.44V156.682Z" fill="#5B5B5B" stroke="#263238" stroke-width="1.06068" stroke-miterlimit="10"/>
<path d="M354.59 149.732H335.04V179.832H354.59V149.732Z" fill="#5B5B5B" stroke="#263238" stroke-width="1.06068" stroke-miterlimit="10"/>
<path d="M245.98 188.322H226.43V203.762H245.98V188.322Z" fill="#263238" stroke="#263238" stroke-width="1.06068" stroke-miterlimit="10"/>
<path d="M273.13 192.182H253.58V203.762H273.13V192.182Z" fill="#263238" stroke="#263238" stroke-width="1.06068" stroke-miterlimit="10"/>
<path d="M300.29 160.532H280.74V203.752H300.29V160.532Z" fill="#263238" stroke="#263238" stroke-width="1.06068" stroke-miterlimit="10"/>
<path d="M327.44 168.252H307.89V203.752H327.44V168.252Z" fill="#263238" stroke="#263238" stroke-width="1.06068" stroke-miterlimit="10"/>
<path d="M354.59 179.832H335.04V203.752H354.59V179.832Z" fill="#263238" stroke="#263238" stroke-width="1.06068" stroke-miterlimit="10"/>
<path d="M394.58 89.4125C394.345 89.4141 394.113 89.3574 393.906 89.2475C393.698 89.1375 393.521 88.9778 393.39 88.7825L351.33 27.4425L308.66 72.9425L265.09 44.5425L222.94 54.3225L180.13 89.0925C179.833 89.3338 179.452 89.4473 179.071 89.4079C178.691 89.3685 178.341 89.1795 178.1 88.8825C177.859 88.5854 177.745 88.2047 177.785 87.824C177.824 87.4433 178.013 87.0938 178.31 86.8525L221.64 51.6625L265.64 41.4525L308.22 69.2125L351.69 22.8525L395.77 87.1525C395.919 87.3683 396.007 87.6208 396.023 87.8828C396.04 88.1448 395.984 88.4063 395.863 88.639C395.741 88.8716 395.558 89.0667 395.334 89.203C395.11 89.3394 394.852 89.4118 394.59 89.4125H394.58Z" fill="#263238"/>
<path d="M182.84 87.9725C182.84 88.6786 182.631 89.3688 182.238 89.9559C181.846 90.5429 181.288 91.0005 180.636 91.2707C179.984 91.5409 179.266 91.6116 178.573 91.4739C177.881 91.3361 177.245 90.9961 176.746 90.4968C176.246 89.9976 175.906 89.3615 175.769 88.6689C175.631 87.9764 175.702 87.2586 175.972 86.6063C176.242 85.954 176.7 85.3964 177.287 85.0041C177.874 84.6118 178.564 84.4025 179.27 84.4025C180.217 84.4025 181.125 84.7786 181.794 85.4481C182.464 86.1176 182.84 87.0257 182.84 87.9725Z" fill="#5B5B5B"/>
<path d="M222.29 56.5625C224.262 56.5625 225.86 54.9641 225.86 52.9925C225.86 51.0208 224.262 49.4225 222.29 49.4225C220.318 49.4225 218.72 51.0208 218.72 52.9925C218.72 54.9641 220.318 56.5625 222.29 56.5625Z" fill="#5B5B5B"/>
<path d="M265.36 46.5625C267.332 46.5625 268.93 44.9641 268.93 42.9925C268.93 41.0208 267.332 39.4225 265.36 39.4225C263.388 39.4225 261.79 41.0208 261.79 42.9925C261.79 44.9641 263.388 46.5625 265.36 46.5625Z" fill="#5B5B5B"/>
<path d="M308.43 74.6425C310.402 74.6425 312 73.0441 312 71.0725C312 69.1008 310.402 67.5025 308.43 67.5025C306.458 67.5025 304.86 69.1008 304.86 71.0725C304.86 73.0441 306.458 74.6425 308.43 74.6425Z" fill="#5B5B5B"/>
<path d="M355.07 25.1525C355.07 25.8586 354.861 26.5488 354.468 27.1359C354.076 27.7229 353.518 28.1805 352.866 28.4507C352.214 28.7209 351.496 28.7916 350.804 28.6539C350.111 28.5161 349.475 28.1761 348.976 27.6768C348.476 27.1776 348.136 26.5415 347.999 25.8489C347.861 25.1564 347.932 24.4386 348.202 23.7863C348.472 23.134 348.929 22.5764 349.517 22.1841C350.104 21.7919 350.794 21.5825 351.5 21.5825C352.447 21.5825 353.355 21.9586 354.024 22.6281C354.694 23.2976 355.07 24.2057 355.07 25.1525V25.1525Z" fill="#5B5B5B"/>
<path d="M398.14 87.9725C398.14 88.6786 397.931 89.3688 397.538 89.9559C397.146 90.5429 396.588 91.0005 395.936 91.2707C395.284 91.5409 394.566 91.6116 393.874 91.4739C393.181 91.3361 392.545 90.9961 392.046 90.4968C391.546 89.9976 391.206 89.3615 391.069 88.6689C390.931 87.9764 391.002 87.2586 391.272 86.6063C391.542 85.954 392 85.3964 392.587 85.0041C393.174 84.6118 393.864 84.4025 394.57 84.4025C395.517 84.4025 396.425 84.7786 397.094 85.4481C397.764 86.1176 398.14 87.0257 398.14 87.9725Z" fill="#5B5B5B"/>
<path d="M471.56 428.232C509.679 428.232 540.58 424.082 540.58 418.962C540.58 413.843 509.679 409.692 471.56 409.692C433.441 409.692 402.54 413.843 402.54 418.962C402.54 424.082 433.441 428.232 471.56 428.232Z" fill="#5B5B5B"/>
<path opacity="0.7" d="M471.56 428.232C509.679 428.232 540.58 424.082 540.58 418.962C540.58 413.843 509.679 409.692 471.56 409.692C433.441 409.692 402.54 413.843 402.54 418.962C402.54 424.082 433.441 428.232 471.56 428.232Z" fill="white"/>
<path d="M93.42 428.232C128.595 428.232 157.11 424.082 157.11 418.962C157.11 413.843 128.595 409.692 93.42 409.692C58.245 409.692 29.73 413.843 29.73 418.962C29.73 424.082 58.245 428.232 93.42 428.232Z" fill="#5B5B5B"/>
<path opacity="0.7" d="M93.42 428.232C128.595 428.232 157.11 424.082 157.11 418.962C157.11 413.843 128.595 409.692 93.42 409.692C58.245 409.692 29.73 413.843 29.73 418.962C29.73 424.082 58.245 428.232 93.42 428.232Z" fill="white"/>
<path d="M452.08 92.3925C452.08 92.3925 478.3 89.8525 479.8 94.2225C481.3 98.5925 480.8 108.572 480.8 108.572C482.121 108.916 483.409 109.374 484.65 109.942C485 110.282 488.88 112.822 485.26 116.992C484.315 118.05 483.169 118.91 481.89 119.522C480.294 120.229 478.775 121.101 477.36 122.122L472.1 128.092L473.1 135.782C473.1 135.782 475.45 137.482 478.32 143.412C478.32 143.412 485.1 147.412 489.08 149.682C492.353 151.402 495.757 152.86 499.26 154.042C499.26 154.042 501.08 154.632 500.95 155.942C500.82 157.252 491.89 186.942 491.89 186.942L487.19 201.942C487.101 203.786 486.86 205.619 486.47 207.422C485.8 210.652 483.28 212.772 480.67 212.112L480.93 223.112C480.93 223.112 468.67 229.242 448.45 228.202C448.45 228.202 438.93 227.282 431.89 222.072L431.76 196.372L399.32 190.092C399.32 190.092 395.21 189.222 397.32 185.522C399.43 181.822 406.52 172.642 406.52 172.642L429.31 144.762C429.31 144.762 430.88 142.912 431.46 142.322C432.04 141.732 433.46 141.322 439.09 140.852C444.72 140.382 451.03 139.292 451.03 139.292C451.03 139.292 454.45 136.352 454.94 136.352C455.43 136.352 455.53 131.952 455.53 131.952C453.8 130.704 452.362 129.096 451.314 127.239C450.266 125.381 449.634 123.318 449.46 121.192C448.97 114.052 452.1 97.3225 452.1 97.3225L452.08 92.3925Z" fill="white"/>
<path d="M432.29 221.972C432.29 221.972 429.53 262.972 429.53 282.592C429.53 302.212 430.76 318.102 431.37 331.882C431.98 345.662 429.53 355.152 431.67 365.252C433.81 375.352 438.72 404.752 438.72 404.752L444.49 408.232C444.49 408.232 445.49 384.842 447.59 376.582C449.69 368.322 450.35 333.412 451.59 322.692C452.83 311.972 456.8 274.012 456.8 274.012C456.8 274.012 472.11 313.812 475.8 329.432C479.49 345.052 492.03 380.252 494.8 388.822C497.57 397.392 501.84 410.092 501.84 410.092C503.138 410.472 504.5 410.574 505.84 410.392C506.419 410.346 506.976 410.153 507.459 409.831C507.942 409.509 508.335 409.069 508.6 408.552C508.6 408.552 504.53 382.912 502.74 370.452C500.53 355.042 496.93 331.882 494.74 323.312C492.55 314.742 489.23 301.262 489.23 294.832C489.23 288.402 480.97 223.832 480.97 223.832C480.97 223.832 452.19 236.362 432.29 221.972Z" fill="#263238"/>
<path d="M456.78 274.012L444.5 259.692" stroke="white" stroke-width="0.530341" stroke-miterlimit="10" stroke-linecap="round"/>
<path d="M441.36 260.742L451.47 270.152" stroke="white" stroke-width="0.530341" stroke-miterlimit="10" stroke-linecap="round"/>
<path d="M462.97 261.792C465.559 255.242 470.37 249.812 476.56 246.452" stroke="white" stroke-width="0.530341" stroke-miterlimit="10" stroke-linecap="round"/>
<path d="M477.25 227.292C477.25 227.292 475.86 232.512 477.6 235.652C479.34 238.792 481.09 238.792 481.09 238.792C481.09 238.792 484.22 255.862 484.22 265.622C484.22 275.382 482.13 276.422 484.22 287.222C486.31 298.022 487.71 301.512 487.71 307.782C487.71 314.052 490.49 318.242 492.93 322.072C495.37 325.902 496.07 337.072 496.07 341.582C496.07 346.092 497.46 350.992 498.86 355.522C498.86 355.522 499.19 365.682 500.95 368.062C502.71 370.442 503.04 378.522 503.04 378.522" stroke="white" stroke-width="0.530341" stroke-miterlimit="10" stroke-linecap="round"/>
<path d="M454.26 272.592C454.26 272.592 454.95 280.592 452.51 294.542C450.07 308.492 448.33 312.312 447.98 328.342C447.63 344.372 449.03 347.162 448.33 355.522C447.63 363.882 443.45 377.092 443.45 383.092C443.45 389.092 444.09 408.272 444.09 408.272" stroke="white" stroke-width="0.530341" stroke-miterlimit="10" stroke-linecap="round"/>
<path d="M446.59 229.382L447.29 232.172L451.82 233.212L451.12 229.732" stroke="white" stroke-width="0.530341" stroke-miterlimit="10" stroke-linecap="round"/>
<path d="M451.84 233.212C451.84 233.212 460.2 232.862 464.38 231.472L463.38 228.682" stroke="white" stroke-width="0.530341" stroke-miterlimit="10" stroke-linecap="round"/>
<path d="M467.15 227.982L468.15 231.472C468.15 231.472 474.84 231.092 475.84 230.092" stroke="white" stroke-width="0.530341" stroke-miterlimit="10" stroke-linecap="round"/>
<path d="M447.29 232.172C444.979 232.1 442.715 231.501 440.67 230.422L437.53 228.682L438.53 226.242" stroke="white" stroke-width="0.530341" stroke-miterlimit="10" stroke-linecap="round"/>
<path d="M438.72 404.752C438.72 404.752 423.72 414.542 421.57 419.132C419.42 423.722 428 421.892 434.12 419.442C440.24 416.992 444.12 408.232 444.12 408.232L438.72 404.752Z" fill="white" stroke="#263238" stroke-width="1.06068" stroke-miterlimit="10" stroke-linecap="round"/>
<path d="M502.32 410.222C503.076 414.417 504.566 418.445 506.72 422.122C510.02 427.252 516.25 431.652 516.25 423.582C516.25 415.512 508.56 408.582 508.56 408.582C508.56 408.582 504.74 410.652 502.32 410.222Z" fill="white" stroke="#263238" stroke-width="1.06068" stroke-miterlimit="10" stroke-linecap="round"/>
<path d="M451.99 97.9325C451.99 97.9325 448.74 118.092 449.84 123.092C452.35 134.282 461.16 133.802 466.67 131.662C471.82 129.662 476.96 122.592 477.62 121.662C477.667 121.597 477.733 121.548 477.81 121.522C478.63 121.292 483.72 119.672 485.96 115.742C488.41 111.452 483.82 109.622 483.82 109.622" fill="white"/>
<g style="mix-blend-mode:multiply" opacity="0.5">
<path d="M472.84 126.852L477.7 121.512C477.7 121.512 483.45 119.742 485.96 115.692C487.43 113.322 486.62 111.252 485.73 110.692C484.51 110.032 483.251 109.448 481.96 108.942L480.33 112.532L478.94 112.772C478.94 112.772 479.52 109.072 477.84 106.882C476.16 104.692 475.78 98.3525 475.78 98.3525C475.78 98.3525 473.43 110.992 473.14 116.282C473.065 119.226 472.145 122.087 470.49 124.522C470.49 124.522 470.79 127.752 471.37 130.982C471.44 131.362 471.51 131.932 471.58 132.642L472.38 131.362L472.82 132.582C472.32 130.482 472.09 128.252 472.84 126.852Z" fill="#5B5B5B"/>
</g>
<path d="M451.99 97.9325C451.99 97.9325 448.74 118.092 449.84 123.092C452.35 134.282 461.16 133.802 466.67 131.662C471.82 129.662 476.96 122.592 477.62 121.662C477.667 121.597 477.733 121.548 477.81 121.522C478.63 121.292 483.72 119.672 485.96 115.742C488.41 111.452 483.82 109.622 483.82 109.622" stroke="#263238" stroke-width="1.06068" stroke-miterlimit="10" stroke-linecap="round"/>
<path d="M464.43 108.182C464.24 108.982 464.43 109.702 464.8 109.792C465.17 109.882 465.67 109.322 465.86 108.532C466.05 107.742 465.86 107.022 465.49 106.922C465.12 106.822 464.62 107.392 464.43 108.182Z" fill="#263238"/>
<path d="M455.84 106.092C455.65 106.892 455.84 107.612 456.21 107.702C456.58 107.792 457.08 107.232 457.27 106.442C457.46 105.652 457.27 104.922 456.9 104.832C456.53 104.742 456.02 105.292 455.84 106.092Z" fill="#263238"/>
<path d="M469.76 104.682C469.288 103.851 468.615 103.151 467.802 102.646C466.99 102.141 466.065 101.848 465.11 101.792" stroke="#263238" stroke-width="1.06068" stroke-miterlimit="10" stroke-linecap="round"/>
<path d="M458.53 101.942C457.743 101.598 456.87 101.502 456.026 101.667C455.183 101.831 454.41 102.248 453.81 102.862" stroke="#263238" stroke-width="1.06068" stroke-miterlimit="10" stroke-linecap="round"/>
<path d="M459.11 105.582C459.129 106.922 459.028 108.261 458.81 109.582C458.48 111.252 457.18 111.582 457.51 112.872C457.84 114.162 459.51 114.292 459.51 114.292" stroke="#263238" stroke-width="1.06068" stroke-miterlimit="10" stroke-linecap="round"/>
<path d="M461.25 119.502C461.958 119.728 462.706 119.797 463.443 119.706C464.18 119.614 464.889 119.364 465.52 118.972" stroke="#263238" stroke-width="1.06068" stroke-miterlimit="10" stroke-linecap="round"/>
<path d="M477.09 83.8525C477.09 83.8525 470.36 78.0325 463.93 78.0325C457.5 78.0325 452.29 81.7125 448.31 82.0325C444.33 82.3525 441.58 78.6625 439.13 83.5625C436.68 88.4625 445.87 96.7325 451.99 97.9525C458.11 99.1725 466.68 97.3425 469.13 97.0325C471.477 96.8716 473.833 96.8716 476.18 97.0325C476.18 97.0325 474.34 102.852 476.18 104.692C478.02 106.532 478.32 107.752 478.32 108.972C478.425 110.319 478.629 111.656 478.93 112.972L480.77 113.592L481.69 110.222C484.172 107.575 485.869 104.289 486.59 100.732C487.5 95.2225 482.91 89.7325 482.91 89.7325L477.09 83.8525Z" fill="#263238"/>
<path d="M451.31 95.4425C451.31 95.4425 461.78 97.4425 469.98 94.0325C478.18 90.6225 471.11 83.8525 471.11 83.8525" stroke="white" stroke-width="0.530341" stroke-miterlimit="10" stroke-linecap="round"/>
<path d="M472.84 83.2825C473.69 83.2825 480.76 88.6525 479.34 92.6125C477.92 96.5725 475.1 96.8625 475.1 96.8625" stroke="white" stroke-width="0.530341" stroke-miterlimit="10" stroke-linecap="round"/>
<path d="M471.68 204.752L462.84 200.092C460.568 199.967 458.308 199.673 456.08 199.212C454.02 198.622 432.88 196.602 432.88 196.602L432.56 201.602C432.56 201.602 456.67 204.842 461.66 205.432C466.65 206.022 471.07 208.372 471.95 209.842C472.83 211.312 474.6 212.782 473.72 216.842C472.84 220.902 466.96 226.842 466.96 226.842C466.68 226.422 481.1 225.382 480.96 223.842C480.65 220.782 479.02 211.842 479.02 211.842L471.68 204.752Z" fill="#5B5B5B"/>
<path opacity="0.5" d="M471.68 204.752L462.84 200.092C460.568 199.967 458.308 199.673 456.08 199.212C454.02 198.622 432.88 196.602 432.88 196.602L432.56 201.602C432.56 201.602 456.67 204.842 461.66 205.432C466.65 206.022 471.07 208.372 471.95 209.842C472.83 211.312 474.6 212.782 473.72 216.842C472.84 220.902 466.96 226.842 466.96 226.842C466.73 226.392 481.13 225.372 480.96 223.842C480.49 219.942 479.02 211.842 479.02 211.842L471.68 204.752Z" fill="white"/>
<path d="M500.84 155.832C500.06 152.172 494.24 152.662 490.73 150.632C487.22 148.602 478.73 143.902 478.73 143.902L474.62 137.722C473.878 136.056 473.279 134.33 472.83 132.562L472.39 131.342L471.59 132.622C472.1 138.102 472.59 152.132 472.59 152.132L474.35 160.952C474.35 160.952 481.12 190.052 482.88 196.522C484.64 202.992 484.64 207.392 483.47 209.452C482.3 211.512 482.69 212.452 482.69 212.452C482.69 212.452 487.28 208.902 487 205.382C486.63 201.242 501.39 158.312 500.84 155.832Z" fill="#5B5B5B"/>
<path opacity="0.5" d="M500.84 155.832C500.44 152.112 494.24 152.662 490.73 150.632C487.22 148.602 478.73 143.902 478.73 143.902L474.62 137.722C473.878 136.056 473.279 134.33 472.83 132.562L472.39 131.342L471.59 132.622C472.1 138.102 472.59 152.132 472.59 152.132L474.35 160.952C474.35 160.952 481.12 190.052 482.88 196.522C484.64 202.992 484.64 207.392 483.47 209.452C482.3 211.512 482.69 212.452 482.69 212.452C482.69 212.452 487.41 208.892 487 205.382C486.53 201.612 501.2 158.922 500.84 155.832Z" fill="white"/>
<path d="M475.15 152.162C475.15 152.162 473.31 135.632 472.39 131.342C471.47 127.052 472.09 124.612 468.11 124.612C464.13 124.612 459.23 123.992 460.11 126.142C460.99 128.292 467.11 126.442 468.11 127.362C469.11 128.282 468.41 130.422 468.41 130.422C468.41 130.422 460.41 131.042 460.41 133.182C460.41 135.322 460.72 141.182 462.25 141.752C463.78 142.322 464.39 139.002 464.39 139.002C464.39 139.002 464.7 146.002 466.23 148.492C467.204 150.03 468.334 151.464 469.6 152.772L475.15 152.162Z" fill="white" stroke="#263238" stroke-width="1.06068" stroke-miterlimit="10" stroke-linecap="round"/>
<path d="M469.64 156.752C469.64 156.752 468.72 194.752 470.25 200.842C471.78 206.932 480.05 215.232 484.33 211.252C488.61 207.272 486.48 198.702 486.48 194.722C486.48 190.742 476.68 161.352 476.68 159.202C476.534 157.417 476.12 155.664 475.45 154.002" stroke="#263238" stroke-width="1.06068" stroke-miterlimit="10" stroke-linecap="round"/>
<path d="M470.25 161.352L476.37 160.732" stroke="#263238" stroke-width="1.06068" stroke-miterlimit="10" stroke-linecap="round"/>
<path d="M431.11 180.352L432.29 146.542C432.29 146.542 430.82 145.662 430.23 148.892C429.64 152.122 429.35 158.602 429.35 158.602C429.35 158.602 422.29 154.192 424.06 156.832C425.83 159.472 428.76 165.362 428.76 165.362L417.84 176.232L422.84 178.292L431.11 180.352Z" fill="#5B5B5B"/>
<path opacity="0.5" d="M431.11 180.352L432.29 146.542C432.29 146.542 430.82 145.662 430.23 148.892C429.64 152.122 429.35 158.602 429.35 158.602C429.35 158.602 422.29 154.192 424.06 156.832C425.83 159.472 428.76 165.362 428.76 165.362L417.84 176.232L422.84 178.292L431.11 180.352Z" fill="white"/>
<path d="M445.75 154.092C445.75 154.092 445.19 156.092 447.54 156.092C449.89 156.092 454.02 154.422 454.02 154.422L453.72 151.102C453.72 151.102 448.07 153.852 445.75 154.092Z" fill="#5B5B5B"/>
<path opacity="0.5" d="M445.75 154.092C445.75 154.092 445.19 156.092 447.54 156.092C449.89 156.092 454.02 154.422 454.02 154.422L453.72 151.102C453.72 151.102 448.07 153.852 445.75 154.092Z" fill="white"/>
<path d="M455.84 131.732C455.84 131.732 452.78 149.732 454.62 153.732C456.46 157.732 459.21 156.792 461.35 154.962C463.49 153.132 466.25 148.532 466.25 148.532" stroke="#263238" stroke-width="1.06068" stroke-miterlimit="10" stroke-linecap="round"/>
<path d="M431.67 196.862L432.29 221.972C432.29 221.972 439.29 228.702 452.8 228.702C466.31 228.702 480.97 223.802 480.97 223.802V214.922" stroke="#263238" stroke-width="1.06068" stroke-miterlimit="10" stroke-linecap="round"/>
<path d="M473.01 135.322C473.01 135.322 478.52 140.832 478.52 146.042C478.52 151.252 477.6 152.472 477.6 152.472" stroke="#263238" stroke-width="1.06068" stroke-miterlimit="10" stroke-linecap="round"/>
<path d="M477.9 142.982C477.9 142.982 486.17 147.872 490.76 150.632C495.35 153.392 500.87 153.382 500.87 155.832C500.87 158.282 488.01 199.922 488.01 199.922" stroke="#263238" stroke-width="1.06068" stroke-miterlimit="10" stroke-linecap="round"/>
<path d="M483.11 156.752L480.05 169.002" stroke="#263238" stroke-width="1.06068" stroke-miterlimit="10" stroke-linecap="round"/>
<path d="M431.75 163.942L426.8 153.562" stroke="#263238" stroke-width="0.530341" stroke-miterlimit="10" stroke-linecap="round"/>
<path d="M431.75 166.912L424.33 162.462" stroke="#263238" stroke-width="0.530341" stroke-miterlimit="10" stroke-linecap="round"/>
<path d="M455.96 190.132L454.48 197.552" stroke="#263238" stroke-width="0.530341" stroke-miterlimit="10" stroke-linecap="round"/>
<path d="M495.99 155.542C495.99 155.542 488.58 157.022 481.66 165.422" stroke="#263238" stroke-width="0.530341" stroke-miterlimit="10" stroke-linecap="round"/>
<path d="M491.05 155.092C491.05 155.092 489.05 154.592 482.16 160.522" stroke="#263238" stroke-width="0.530341" stroke-miterlimit="10" stroke-linecap="round"/>
<path d="M455.96 157.522L453 180.742L455.47 181.242L457.45 173.832" stroke="#263238" stroke-width="0.530341" stroke-miterlimit="10" stroke-linecap="round"/>
<path d="M457.94 218.302C449.04 225.722 436.69 225.222 436.69 225.222" stroke="#263238" stroke-width="0.530341" stroke-miterlimit="10" stroke-linecap="round"/>
<path d="M420.33 177.972C420.33 177.972 414.28 172.432 405.71 179.482" stroke="#263238" stroke-width="0.530341" stroke-miterlimit="10" stroke-linecap="round"/>
<path d="M455.25 136.242C455.25 136.242 452.8 136.852 450.04 141.142C447.28 145.432 443.92 152.772 446.37 153.382C448.82 153.992 453.37 151.242 453.37 151.242" stroke="#263238" stroke-width="1.06068" stroke-miterlimit="10" stroke-linecap="round"/>
<path d="M464.74 152.472L467.8 155.222" stroke="#263238" stroke-width="1.06068" stroke-miterlimit="10" stroke-linecap="round"/>
<path d="M450.96 139.302C450.96 139.302 439.63 140.832 435.04 141.142C430.45 141.452 431.34 143.142 429.84 144.202C427.42 145.892 399.66 181.082 397.84 184.452C396.02 187.822 396.31 189.352 399.37 190.272C402.43 191.192 432.91 196.552 432.91 196.552L459.84 199.312L461.98 192.572C461.98 192.572 468.24 193.402 469.34 193.402" stroke="#263238" stroke-width="1.06068" stroke-miterlimit="10" stroke-linecap="round"/>
<path d="M458.92 190.092C452.976 188.368 447.231 186.022 441.78 183.092" stroke="#263238" stroke-width="1.06068" stroke-miterlimit="10" stroke-linecap="round"/>
<path d="M439.33 182.472C439.33 182.472 430.33 179.132 425.46 178.522C420.59 177.912 413.13 177.712 413.13 177.712" stroke="#263238" stroke-width="1.06068" stroke-miterlimit="10" stroke-linecap="round"/>
<path d="M431.06 178.492L431.98 154.302" stroke="#263238" stroke-width="1.06068" stroke-miterlimit="10" stroke-linecap="round"/>
<path d="M459.84 199.312C461.941 200.369 464.142 201.213 466.41 201.832" stroke="#263238" stroke-width="1.06068" stroke-miterlimit="10" stroke-linecap="round"/>
<path d="M59.17 179.822L62.78 160.092L85.63 151.092C85.63 151.092 86.74 144.962 87.86 144.692C88.98 144.422 90.08 141.902 90.08 141.902L89.53 136.852C89.53 136.852 91.62 128.852 102.13 135.082C102.13 135.082 98.95 137.202 99.5 138.082C100.05 138.962 98.89 141.762 100.28 141.762C101.67 141.762 104.48 143.532 105.9 144.962C106.894 146.03 107.772 147.2 108.52 148.452L120.35 149.132C121.563 149.143 122.769 149.307 123.94 149.622C124.14 143.842 123.43 139.432 122.03 136.002C116.94 123.622 107.66 119.202 106.33 113.002C105 106.802 105.67 106.152 105.67 106.152C107.022 104.777 108.012 103.088 108.552 101.237C109.091 99.3851 109.163 97.4286 108.76 95.5425C107.44 88.9125 102.35 84.2625 84 83.3825C65.65 82.5025 68.31 95.0925 68.31 95.0925L68.53 95.9725C68.53 95.9725 56.81 99.9725 59.03 114.762C61.25 129.552 67.65 135.982 67.43 140.622C67.21 145.262 60.35 147.032 50.62 157.622C40.89 168.212 38.91 184.142 42.89 194.532C44.89 199.642 48.8 203.902 53.71 207.082L59.17 179.822Z" fill="#263238"/>
<path d="M74.49 181.772V186.232L66.02 212.402C71.3126 213.803 76.8632 213.919 82.21 212.742C85.2281 211.956 88.1129 210.726 90.77 209.092L74.49 181.772Z" fill="#263238"/>
<path d="M98.84 137.922L99.84 142.422C99.84 142.422 102.84 139.422 108.7 148.532C108.7 148.532 120.88 148.242 124.2 149.902C124.2 149.902 124.89 150.102 127.14 152.492C129.39 154.882 137.85 162.492 137.85 162.492C137.85 162.492 148.71 172.572 149.79 173.352C150.87 174.132 154.92 178.002 157.95 179.352L166.07 160.862L169.69 151.712L171.69 144.182H172.33L172.47 138.112L171.98 130.872C172.06 130.504 172.228 130.161 172.47 129.872C173.308 128.71 173.953 127.42 174.38 126.052C174.38 125.372 173.69 121.352 173.69 121.352C173.69 121.352 173.35 120.352 174.09 120.232C174.83 120.112 177.56 121.062 177.9 122.972L178.9 122.632C179.728 120.654 180.76 118.767 181.98 117.002C183.6 114.902 185.26 113.582 186.29 114.262C186.573 114.457 186.776 114.747 186.864 115.079C186.952 115.411 186.919 115.763 186.77 116.072L183.55 121.992C183.55 121.992 182.13 123.902 183.89 124.582C183.89 124.582 187.7 127.032 187.95 129.182C188.2 131.332 186.82 133.182 185.6 134.762C184.38 136.342 182.23 139.762 182.23 139.762L179.73 141.972L178.73 145.782L179.91 147.252L178.15 154.882L176.88 160.602L176.24 164.072L172.24 177.772L168.24 189.712C168.24 189.712 166.18 196.552 161.19 196.362C156.2 196.172 150.73 193.472 148.96 192.592C147.19 191.712 132.6 184.092 132.6 184.092L129.6 182.672C130 184.038 130.173 185.461 130.11 186.882C130.06 189.522 127.22 195.342 126.39 196.662L125.9 206.982C125.706 208.773 125.74 210.581 126 212.362C126.44 215.052 128.69 230.272 129.18 232.172C129.18 232.172 124.32 236.572 109.84 238.662C95.36 240.752 88.58 237.362 88.58 237.362L82.13 233.572L90.08 217.862C90.08 217.862 92.08 213.192 91.88 211.962C91.68 210.732 88.26 205.432 88.26 205.432L75.71 183.092L75.12 183.292L73.17 189.812L66.12 211.922L56.84 239.522C56.84 239.522 54.3 246.522 53.25 248.592L50.32 257.522C50.4827 259.118 50.8768 260.681 51.49 262.162L44.12 257.392L45.43 250.392L47.06 239.952L49.06 228.602L50.82 219.212L53.63 206.692L54.63 203.232L56.63 193.452L60.15 175.712L63.15 160.522L84.15 152.172L85.46 151.172C85.7513 149.239 86.4611 147.393 87.54 145.762C88.2887 144.69 89.1803 143.724 90.19 142.892C90.19 142.892 90.09 141.582 90.02 140.342C89.95 139.102 89.63 136.822 89.63 136.822C89.63 136.822 96.12 139.612 98.84 137.922Z" fill="white"/>
<path d="M70.71 97.7325C70.71 97.7325 74.6 89.1225 82.38 89.1225C90.16 89.1225 106.27 104.402 106.27 104.402" stroke="white" stroke-width="0.530341" stroke-miterlimit="10" stroke-linecap="round"/>
<path d="M74.04 99.0925C74.04 99.0925 78.76 94.0925 84.6 96.0325C90.44 97.9725 91.27 104.922 91.27 104.922" stroke="white" stroke-width="0.530341" stroke-miterlimit="10" stroke-linecap="round"/>
<path d="M70.15 99.9525C70.15 99.9525 63.21 103.842 62.65 111.072C62.09 118.302 72.37 126.902 73.76 136.632C75.15 146.362 67.93 148.572 56.26 156.632C44.59 164.692 46.54 182.742 49.04 186.632" stroke="white" stroke-width="0.530341" stroke-miterlimit="10" stroke-linecap="round"/>
<path d="M50.43 188.862C50.43 188.862 52.09 192.472 54.59 193.582" stroke="white" stroke-width="0.530341" stroke-miterlimit="10" stroke-linecap="round"/>
<path d="M70.99 118.842C70.6613 119.548 70.5139 120.325 70.5611 121.102C70.6082 121.879 70.8484 122.632 71.26 123.292C72.65 125.792 83.26 138.292 82.38 144.132C81.5 149.972 75.99 153.572 75.99 153.572" stroke="white" stroke-width="0.530341" stroke-miterlimit="10" stroke-linecap="round"/>
<path d="M76.26 99.9525C76.26 99.9525 69.87 102.732 70.15 109.122C70.43 115.512 71.82 117.182 71.82 117.182" stroke="white" stroke-width="0.530341" stroke-miterlimit="10" stroke-linecap="round"/>
<path d="M106.27 121.092C108.255 125.587 110.98 129.718 114.33 133.312C119.33 138.312 119.88 145.542 119.88 145.542" stroke="white" stroke-width="0.530341" stroke-miterlimit="10" stroke-linecap="round"/>
<path d="M112.1 136.902C112.1 136.902 114.6 142.742 114.6 146.352" stroke="white" stroke-width="0.530341" stroke-miterlimit="10" stroke-linecap="round"/>
<path d="M98.27 138.452L90.42 145.522C90.42 145.522 89.58 147.662 88 151.092C86.42 154.522 86.68 161.092 86.68 161.092L91.52 170.722C91.52 170.722 82.21 160.042 81.68 158.722C81.15 157.402 71.41 159.782 69.57 160.572C67.73 161.362 65.35 162.942 65.88 165.312C66.41 167.682 68.78 170.832 67.72 171.362C66.66 171.892 63.77 170.572 63.77 172.152C63.77 173.732 67.2 179.792 65.62 181.892C64.04 183.992 54.03 217.972 54.03 217.972C54.03 217.972 60.35 212.702 58.77 214.812C57.19 216.922 49.56 234.032 49.56 234.032L46.66 244.032L53.51 208.492L59.3 178.492L62.78 160.092C66.14 158.972 85.63 151.092 85.63 151.092C85.63 151.092 87.17 144.612 90.08 141.902L89.53 136.852C89.53 136.852 94.84 138.712 98.27 138.452Z" fill="#5B5B5B"/>
<path opacity="0.5" d="M98.27 138.452L90.42 145.522C90.42 145.522 89.58 147.662 88 151.092C86.42 154.522 86.68 161.092 86.68 161.092L91.52 170.722C91.52 170.722 82.21 160.042 81.68 158.722C81.15 157.402 71.41 159.782 69.57 160.572C67.73 161.362 65.35 162.942 65.88 165.312C66.41 167.682 68.78 170.832 67.72 171.362C66.66 171.892 63.77 170.572 63.77 172.152C63.77 173.732 67.2 179.792 65.62 181.892C64.04 183.992 54.03 217.972 54.03 217.972C54.03 217.972 60.35 212.702 58.77 214.812C57.19 216.922 49.56 234.032 49.56 234.032L46.66 244.032L53.51 208.492L59.3 178.492L62.78 160.092C66.14 158.972 85.63 151.092 85.63 151.092C85.63 151.092 86.05 145.092 90.09 142.992L89.53 136.852C89.53 136.852 94.84 138.712 98.27 138.452Z" fill="white"/>
<path d="M127.49 173.992C127.49 173.992 132.23 166.102 132.76 167.942C133.29 169.782 131.44 176.092 131.44 176.092C131.44 176.092 136.44 174.252 135.92 175.832C135.4 177.412 134.34 178.202 134.6 178.992C134.86 179.782 151.98 188.732 154.09 189.782C156.2 190.832 161.2 184.782 163.57 186.622C165.94 188.462 163.57 194.772 158.83 194.782C154.09 194.792 140.4 188.782 140.4 188.782L129.62 182.512" fill="#5B5B5B"/>
<path opacity="0.5" d="M127.49 173.992C127.49 173.992 132.23 166.102 132.76 167.942C133.29 169.782 131.44 176.092 131.44 176.092C131.44 176.092 136.44 174.252 135.92 175.832C135.4 177.412 134.34 178.202 134.6 178.992C134.86 179.782 151.98 188.732 154.09 189.782C156.2 190.832 161.2 184.782 163.57 186.622C165.94 188.462 163.57 194.772 158.83 194.782C154.09 194.792 140.4 188.782 140.4 188.782L129.66 182.532" fill="white"/>
<path d="M99.06 205.852C99.06 205.852 129.84 189.532 124.84 195.582C119.84 201.632 103.27 208.492 99.06 205.852Z" fill="#5B5B5B"/>
<path opacity="0.5" d="M99.06 205.852C99.06 205.852 129.84 189.532 124.84 195.582C119.84 201.632 103.27 208.492 99.06 205.852Z" fill="white"/>
<path d="M89.53 136.902C89.53 136.902 89.75 141.102 90.42 145.522C91.09 149.942 90.86 149.942 95.06 155.242C99.26 160.542 103.68 164.972 104.34 164.092" stroke="#263238" stroke-width="1.06068" stroke-miterlimit="10" stroke-linecap="round"/>
<path d="M104.56 162.542C104.56 162.542 105 154.802 103.46 149.722C101.92 144.642 99.7 142.862 99.7 141.722C99.6252 140.535 99.4783 139.352 99.26 138.182" stroke="#263238" stroke-width="1.06068" stroke-miterlimit="10" stroke-linecap="round"/>
<path d="M89.53 143.312C87.7636 144.903 86.528 146.997 85.99 149.312C85.33 152.842 84.67 157.042 84.67 157.042L91.52 170.752C92.1164 168.365 93.0065 166.061 94.17 163.892C94.7462 162.822 95.4926 161.853 96.38 161.022" stroke="#263238" stroke-width="1.06068" stroke-miterlimit="10" stroke-linecap="round"/>
<path d="M106.11 158.782C106.594 158.661 107.097 158.638 107.589 158.713C108.082 158.789 108.555 158.962 108.98 159.222C110.75 160.112 114.29 164.752 114.29 164.752C114.29 164.752 111.86 153.252 107.66 147.292C103.46 141.332 100.58 141.762 100.58 141.762" stroke="#263238" stroke-width="1.06068" stroke-miterlimit="10" stroke-linecap="round"/>
<path d="M84 151.932L62.78 160.092C62.78 160.092 55.05 202.312 52.17 213.582C49.29 224.852 44.44 256.692 44.44 256.692L50.18 257.792L52.18 252.052" stroke="#263238" stroke-linecap="round" stroke-linejoin="round"/>
<path d="M53.28 248.752C53.28 248.752 54.6 246.752 58.14 235.752C61.68 224.752 71.14 197.752 72.73 192.422C74.32 187.092 75.6 183.582 75.6 183.582" stroke="#263238" stroke-width="1.06068" stroke-miterlimit="10" stroke-linecap="round"/>
<path d="M71.84 177.092C71.84 177.092 89.74 209.092 91.29 210.472C92.84 211.852 90.63 215.552 90.18 217.542" stroke="#263238" stroke-width="1.06068" stroke-miterlimit="10" stroke-linecap="round"/>
<path d="M88.2 221.562L82.46 233.502C82.46 233.502 86.22 239.252 102.13 239.252C111.598 239.281 120.931 237.002 129.32 232.612C129.32 232.612 125.56 212.722 125.78 209.182C126 205.642 126.45 196.362 126.45 196.362C126.45 196.362 130.45 190.362 129.98 185.752C129.51 181.142 127.55 175.802 127.55 174.922C127.55 174.042 127.11 164.532 127.11 164.532" stroke="#263238" stroke-width="1.06068" stroke-miterlimit="10" stroke-linecap="round"/>
<path d="M102.1 201.912L117.94 192.192" stroke="#263238" stroke-width="0.530341" stroke-miterlimit="10" stroke-linecap="round"/>
<path d="M110.44 198.862L119.05 193.862" stroke="#263238" stroke-width="0.530341" stroke-miterlimit="10" stroke-linecap="round"/>
<path d="M157.84 179.562L154.61 187.472" stroke="#263238" stroke-width="0.530341" stroke-miterlimit="10" stroke-linecap="round"/>
<path d="M156.55 183.022L153.5 186.082" stroke="#263238" stroke-width="0.530341" stroke-miterlimit="10" stroke-linecap="round"/>
<path d="M66.26 211.092C66.26 211.092 60.98 217.202 57.37 219.702" stroke="#263238" stroke-width="0.530341" stroke-miterlimit="10" stroke-linecap="round"/>
<path d="M63.21 212.752C63.21 212.752 54.04 219.972 51.82 221.642" stroke="#263238" stroke-width="0.530341" stroke-miterlimit="10" stroke-linecap="round"/>
<path d="M64.84 161.352C67.6043 165.261 70.1096 169.346 72.34 173.582" stroke="#263238" stroke-width="0.530341" stroke-miterlimit="10" stroke-linecap="round"/>
<path d="M73.21 175.522L75.15 178.852" stroke="#263238" stroke-width="0.530341" stroke-miterlimit="10" stroke-linecap="round"/>
<path d="M127.55 174.922L129.98 162.542" stroke="#263238" stroke-width="0.530341" stroke-miterlimit="10" stroke-linecap="round"/>
<path d="M128.44 175.802L132.19 170.502" stroke="#263238" stroke-width="0.530341" stroke-miterlimit="10" stroke-linecap="round"/>
<path d="M75.6 183.542L64.99 177.792" stroke="#263238" stroke-width="0.530341" stroke-miterlimit="10" stroke-linecap="round"/>
<path d="M104.12 165.192C104.12 165.192 108.12 173.192 109.43 178.902" stroke="#263238" stroke-width="0.530341" stroke-miterlimit="10" stroke-linecap="round"/>
<path d="M169.77 151.262C170.828 151.184 171.891 151.321 172.895 151.665C173.898 152.009 174.822 152.552 175.61 153.262" stroke="#263238" stroke-width="0.530341" stroke-miterlimit="10" stroke-linecap="round"/>
<path d="M48.28 251.202L51.02 252.222" stroke="#263238" stroke-width="0.530341" stroke-miterlimit="10" stroke-linecap="round"/>
<path d="M44.37 257.092C44.4044 260.895 44.204 264.695 43.77 268.472C43.11 273.122 43.33 283.732 44.21 287.042C45.09 290.352 45.54 291.042 46.42 289.042C47.3 287.042 49.96 275.342 49.96 275.342C49.96 275.342 50.4 283.072 52.39 282.412C54.38 281.752 53.28 277.992 53.28 274.672C53.28 271.352 53.5 270.252 53.28 267.602C53.06 264.952 50.11 258.402 50.11 258.402" fill="white"/>
<path d="M44.37 257.092C44.4044 260.895 44.204 264.695 43.77 268.472C43.11 273.122 43.33 283.732 44.21 287.042C45.09 290.352 45.54 291.042 46.42 289.042C47.3 287.042 49.96 275.342 49.96 275.342C49.96 275.342 50.4 283.072 52.39 282.412C54.38 281.752 53.28 277.992 53.28 274.672C53.28 271.352 53.5 270.252 53.28 267.602C53.06 264.952 50.11 258.402 50.11 258.402" stroke="#263238" stroke-miterlimit="10" stroke-linecap="round"/>
<path d="M172.35 144.012C172.249 142.057 172.249 140.098 172.35 138.142C172.53 136.302 171.8 133.552 171.98 131.142C172.16 128.732 174.55 127.842 174.18 124.722C173.81 121.602 173.08 121.232 173.63 120.502C174.18 119.772 177.63 120.862 177.85 122.882C178.046 124.961 178.046 127.054 177.85 129.132C177.67 129.682 178.95 133.132 178.22 134.632C177.802 135.445 177.492 136.309 177.3 137.202" stroke="#263238" stroke-width="0.880843" stroke-miterlimit="10" stroke-linecap="round"/>
<path d="M178.59 122.722C178.59 122.722 182.81 114.282 185.2 114.092C187.59 113.902 186.85 116.092 186.11 117.212C185.37 118.332 182.99 122.352 182.81 124.012C182.63 125.672 180.42 131.162 180.42 131.162" stroke="#263238" stroke-width="0.880843" stroke-miterlimit="10" stroke-linecap="round"/>
<path d="M182.84 124.012C182.84 124.012 189.27 127.862 187.84 131.012C186.41 134.162 185.63 135.422 184.53 135.012C183.555 134.514 182.683 133.835 181.96 133.012" stroke="#263238" stroke-width="0.880843" stroke-miterlimit="10" stroke-linecap="round"/>
<path d="M185.2 135.022C185.2 135.022 183.54 137.772 182.26 139.432C181.524 140.391 180.651 141.237 179.67 141.942L178.89 144.652" stroke="#263238" stroke-width="0.880843" stroke-miterlimit="10" stroke-linecap="round"/>
<path d="M108.1 148.392C108.1 148.392 123.35 148.172 125.34 150.602C127.33 153.032 151.43 175.142 154.34 177.132C157.25 179.122 157.88 179.562 157.88 179.562C157.88 179.562 169.81 152.562 169.81 151.262C169.81 149.962 171.81 143.972 171.81 143.972C171.81 143.972 175.57 144.412 176.46 144.412C177.35 144.412 179.77 147.292 179.77 147.292C179.77 147.292 176.46 160.772 176.46 162.292C176.46 163.812 170.27 184.842 167.39 191.292C164.51 197.742 160.54 196.812 154.13 194.822C147.72 192.832 130.26 182.892 130.26 182.892" stroke="#263238" stroke-width="1.06068" stroke-miterlimit="10" stroke-linecap="round"/>
<path d="M82.46 233.502C82.46 233.502 73.61 255.642 71.22 270.712C68.83 285.782 69.85 321.022 69.16 324.792C68.47 328.562 58.89 346.352 58.89 354.912C58.89 363.472 53.76 407.622 53.76 407.622L57.18 409.672C57.18 409.672 69.18 372.672 73.61 363.122C78.04 353.572 84.22 330.952 85.93 326.502C87.64 322.052 99.63 286.452 100.31 282.002C100.99 277.552 105.1 266.602 105.1 266.602C105.1 266.602 114 321.022 115.71 332.322C117.42 343.622 129.4 404.882 129.4 404.882C130.187 405.075 130.991 405.189 131.8 405.222C132.8 405.222 133.17 403.512 133.17 403.512C133.17 403.512 137.96 360.042 136.59 348.402C135.22 336.762 131.12 322.402 131.12 318.282C131.12 314.162 137.28 278.582 137.28 266.282C137.28 253.982 129.28 232.632 129.28 232.632C129.28 232.632 100.89 246.952 82.46 233.502Z" fill="#263238"/>
<path d="M130.99 320.542C130.99 320.542 127.94 333.602 123.77 340.542" stroke="white" stroke-width="0.530341" stroke-miterlimit="10" stroke-linecap="round"/>
<path d="M130.16 333.882C130.16 333.882 127.66 343.322 122.66 347.772" stroke="white" stroke-width="0.530341" stroke-miterlimit="10" stroke-linecap="round"/>
<path d="M70.99 329.712C70.99 329.712 72.93 341.102 75.15 345.822" stroke="white" stroke-width="0.530341" stroke-miterlimit="10" stroke-linecap="round"/>
<path d="M70.43 336.382C70.43 336.382 72.1 344.442 75.15 349.162" stroke="white" stroke-width="0.530341" stroke-miterlimit="10" stroke-linecap="round"/>
<path d="M105.99 266.652L117.1 257.482" stroke="white" stroke-width="0.530341" stroke-miterlimit="10" stroke-linecap="round"/>
<path d="M111.27 262.762L124.33 256.922" stroke="white" stroke-width="0.530341" stroke-miterlimit="10" stroke-linecap="round"/>
<path d="M82.65 247.202C82.65 247.202 91.27 252.752 96.27 257.482" stroke="white" stroke-width="0.530341" stroke-miterlimit="10" stroke-linecap="round"/>
<path d="M54.12 407.592C54.12 407.592 41.12 418.592 41.12 424.052C41.12 429.512 46.25 429.182 51.73 424.052C57.21 418.922 57.49 408.353 57.49 408.353L54.12 407.592Z" fill="white" stroke="#263238" stroke-width="1.06068" stroke-miterlimit="10" stroke-linecap="round"/>
<path d="M129.4 404.882C129.4 404.882 133.85 415.832 138.65 420.632C143.45 425.432 146.18 427.132 146.18 421.992C146.18 416.852 143.1 411.042 133.18 403.512C133.17 403.512 135.91 405.562 129.4 404.882Z" fill="white" stroke="#263238" stroke-width="1.06068" stroke-miterlimit="10" stroke-linecap="round"/>
<path d="M83.48 101.792C82.59 101.462 81.75 101.062 80.88 100.692C80.01 100.322 78.42 100.122 77.82 102.852C76.93 106.852 83.12 110.152 81.13 113.462C79.892 115.476 78.0313 117.031 75.83 117.892C75.4716 118.016 75.0982 118.09 74.72 118.112C72.95 118.332 70.08 118.112 70.96 121.202C71.84 124.292 74.72 126.952 76.49 126.952H78.26C78.26 126.952 80.26 132.952 87.76 136.232C95.26 139.512 100.36 139.332 102.13 135.132C103.9 130.932 105.23 127.392 105.23 121.862C105.23 116.332 103.23 107.052 103.23 107.052C103.23 107.052 101.46 109.492 94.61 106.392C90.08 104.342 85.84 102.682 83.48 101.792Z" fill="white"/>
<g style="mix-blend-mode:multiply" opacity="0.5">
<path d="M94.62 106.392C94.62 106.392 84.05 105.802 82.47 106.062C80.89 106.322 82.73 111.062 82.21 115.802C81.69 120.542 81.94 128.182 84.05 130.552C86.5399 132.996 89.1782 135.284 91.95 137.402C91.95 137.402 83.84 136.092 80.89 132.662C77.94 129.232 77.47 127.392 77.47 127.392C77.47 127.392 70.62 123.392 70.09 120.282C69.56 117.172 74.09 118.822 76.26 117.282C77.48 116.442 82.53 114.862 81.26 110.652C79.99 106.442 77.94 105.652 77.86 102.832C77.8 100.832 79.56 100.252 80.64 100.072C81.1269 99.9905 81.6272 100.064 82.07 100.282L94.62 106.392Z" fill="#5B5B5B"/>
</g>
<path d="M83.48 101.792C82.59 101.462 81.75 101.062 80.88 100.692C80.01 100.322 78.42 100.122 77.82 102.852C76.93 106.852 83.12 110.152 81.13 113.462C79.892 115.476 78.0313 117.031 75.83 117.892C75.4716 118.016 75.0982 118.09 74.72 118.112C72.95 118.332 70.08 118.112 70.96 121.202C71.84 124.292 74.72 126.952 76.49 126.952H78.26C78.26 126.952 80.26 132.952 87.76 136.232C95.26 139.512 100.36 139.332 102.13 135.132C103.9 130.932 105.23 127.392 105.23 121.862C105.23 116.332 103.23 107.052 103.23 107.052C103.23 107.052 101.46 109.492 94.61 106.392C90.08 104.342 85.84 102.682 83.48 101.792Z" stroke="#263238" stroke-width="1.06068" stroke-miterlimit="10" stroke-linecap="round"/>
<path d="M91.29 114.892C91.43 115.732 91.2 116.472 90.77 116.542C90.34 116.612 89.9 115.982 89.77 115.142C89.64 114.302 89.87 113.552 90.29 113.482C90.71 113.412 91.15 114.092 91.29 114.892Z" fill="#263238"/>
<path d="M100.44 113.362C100.57 114.202 100.34 114.942 99.92 115.012C99.5 115.082 99.05 114.452 98.92 113.612C98.79 112.772 99.01 112.032 99.43 111.962C99.85 111.892 100.3 112.522 100.44 113.362Z" fill="#263238"/>
<path d="M85.99 110.812C86.5495 109.981 87.3085 109.302 88.1976 108.84C89.0868 108.377 90.0777 108.144 91.08 108.162" stroke="#263238" stroke-width="1.06068" stroke-miterlimit="10" stroke-linecap="round"/>
<path d="M97.93 108.822C98.7794 108.526 99.699 108.494 100.567 108.731C101.435 108.969 102.21 109.464 102.79 110.152" stroke="#263238" stroke-width="1.06068" stroke-miterlimit="10" stroke-linecap="round"/>
<path d="M97.05 112.582C96.9278 113.98 96.9278 115.385 97.05 116.782C97.27 118.552 98.59 118.992 98.15 120.322C97.71 121.652 95.94 121.642 95.94 121.642" stroke="#263238" stroke-width="1.06068" stroke-miterlimit="10" stroke-linecap="round"/>
<path d="M93.73 126.952C92.9726 127.131 92.1855 127.144 91.4226 126.991C90.6597 126.837 89.9391 126.521 89.31 126.062" stroke="#263238" stroke-width="1.06068" stroke-miterlimit="10" stroke-linecap="round"/>
</svg>
